SplineFontDB: 3.0
FontName: BravoScriptSSK
FullName: BravoScriptSSK
FamilyName: BravoScriptSSK
Weight: Book
Copyright: Copyright 1992 Southern Software, Inc. All Rights Reserved
Version: Macromedia Fontographer 4.1 7/27/95
ItalicAngle: 0
UnderlinePosition: -130
UnderlineWidth: 31
Ascent: 800
Descent: 200
InvalidEm: 0
sfntRevision: 0x00010000
LayerCount: 2
Layer: 0 1 "Back" 1
Layer: 1 1 "Fore" 0
XUID: [1021 290 -286971213 168495]
FSType: 1
OS2Version: 0
OS2_WeightWidthSlopeOnly: 0
OS2_UseTypoMetrics: 1
CreationTime: 29273398384750506
ModificationTime: 1126476239302570
PfmFamily: 81
TTFWeight: 400
TTFWidth: 5
LineGap: 0
VLineGap: 0
Panose: 0 0 4 0 0 0 0 0 0 0
OS2TypoAscent: 959
OS2TypoAOffset: 0
OS2TypoDescent: -319
OS2TypoDOffset: 0
OS2TypoLinegap: 0
OS2WinAscent: 959
OS2WinAOffset: 0
OS2WinDescent: 319
OS2WinDOffset: 0
HheadAscent: 959
HheadAOffset: 0
HheadDescent: -319
HheadDOffset: 0
OS2SubXSize: 700
OS2SubYSize: 650
OS2SubXOff: 0
OS2SubYOff: 143
OS2SupXSize: 700
OS2SupYSize: 650
OS2SupXOff: 0
OS2SupYOff: 453
OS2StrikeYSize: 50
OS2StrikeYPos: 259
OS2CapHeight: 0
OS2XHeight: 0
OS2Vendor: 'Alts'
OS2UnicodeRanges: 00000000.00000000.00000000.00000000
Lookup: 258 0 0 "'kern' Horizontal Kerning in Latin lookup 0" { "'kern' Horizontal Kerning in Latin lookup 0 subtable"  } ['kern' ('DFLT' <'dflt' > 'latn' <'dflt' > ) ]
DEI: 91125
TtTable: prep
NPUSHB
 39
 22
 22
 21
 21
 20
 20
 19
 19
 18
 18
 17
 17
 16
 16
 15
 15
 14
 14
 13
 13
 12
 12
 11
 11
 10
 10
 9
 9
 8
 8
 3
 3
 2
 2
 1
 1
 0
 0
 1
SCANTYPE
PUSHW_1
 511
SCANCTRL
RCVT
ROUND[Grey]
WCVTP
RCVT
ROUND[Grey]
WCVTP
RCVT
ROUND[Grey]
WCVTP
RCVT
ROUND[Grey]
WCVTP
RCVT
ROUND[Grey]
WCVTP
RCVT
ROUND[Grey]
WCVTP
RCVT
ROUND[Grey]
WCVTP
RCVT
ROUND[Grey]
WCVTP
RCVT
ROUND[Grey]
WCVTP
RCVT
ROUND[Grey]
WCVTP
RCVT
ROUND[Grey]
WCVTP
RCVT
ROUND[Grey]
WCVTP
RCVT
ROUND[Grey]
WCVTP
RCVT
ROUND[Grey]
WCVTP
RCVT
ROUND[Grey]
WCVTP
RCVT
ROUND[Grey]
WCVTP
RCVT
ROUND[Grey]
WCVTP
RCVT
ROUND[Grey]
WCVTP
RCVT
ROUND[Grey]
WCVTP
PUSHB_4
 5
 4

StartChar: .notdef
Encoding: 65536 -1 0
Width: 500
Flags: W
LayerCount: 2
Back
Fore
SplineSet
63 0 m 1,0,-1
 63 800 l 1,1,-1
 438 800 l 1,2,-1
 438 0 l 1,3,-1
 63 0 l 1,0,-1
125 63 m 1,4,-1
 375 63 l 1,5,-1
 375 738 l 1,6,-1
 125 738 l 1,7,-1
 125 63 l 1,4,-1
EndSplineSet
EndChar

StartChar: exclam
Encoding: 33 33 4
Width: 310
Flags: W
LayerCount: 2
Back
Fore
SplineSet
333 478 m 0,0,1
 333 455 333 455 304 419 c 0,2,3
 280 394 280 394 257 368 c 0,4,5
 203 308 203 308 79 123 c 1,6,-1
 73 128 l 1,7,8
 174 290 174 290 224 406 c 0,9,10
 238 439 238 439 251 471 c 0,11,12
 273 513 273 513 300 513 c 0,13,14
 314 513 314 513 323.5 502.5 c 128,-1,15
 333 492 333 492 333 478 c 0,0,1
56 32 m 256,16,17
 56 16 56 16 44.5 4.5 c 128,-1,18
 33 -7 33 -7 17 -7 c 256,19,20
 1 -7 1 -7 -11 4.5 c 128,-1,21
 -23 16 -23 16 -23 32 c 256,22,23
 -23 48 -23 48 -11 60 c 128,-1,24
 1 72 1 72 17 72 c 256,25,26
 33 72 33 72 44.5 60 c 128,-1,27
 56 48 56 48 56 32 c 256,16,17
EndSplineSet
EndChar

StartChar: quotedbl
Encoding: 34 34 5
Width: 251
Flags: W
LayerCount: 2
Back
Fore
SplineSet
242 675 m 0,0,1
 242 635 242 635 230 553 c 0,2,3
 220 491 220 491 211 429 c 1,4,-1
 197 429 l 1,5,6
 188 491 188 491 179 553 c 0,7,8
 167 634 167 634 167 675 c 0,9,10
 167 721 167 721 204 721 c 0,11,12
 242 721 242 721 242 675 c 0,0,1
84 675 m 0,13,14
 84 635 84 635 72 553 c 0,15,16
 63 491 63 491 54 429 c 1,17,-1
 40 429 l 1,18,-1
 11 652 l 2,19,20
 9 667 9 667 9 675 c 0,21,22
 9 721 9 721 47 721 c 0,23,24
 84 721 84 721 84 675 c 0,13,14
EndSplineSet
EndChar

StartChar: numbersign
Encoding: 35 35 6
Width: 635
Flags: W
LayerCount: 2
Back
Fore
SplineSet
639 472 m 1,0,-1
 626 432 l 1,1,-1
 468 432 l 1,2,-1
 416 283 l 1,3,-1
 586 283 l 1,4,-1
 572 243 l 1,5,-1
 402 243 l 1,6,-1
 317 0 l 1,7,-1
 270 0 l 1,8,-1
 355 243 l 1,9,-1
 208 243 l 1,10,-1
 123 0 l 1,11,-1
 77 0 l 1,12,-1
 162 243 l 1,13,-1
 -4 243 l 1,14,-1
 11 283 l 1,15,-1
 176 283 l 1,16,-1
 228 432 l 1,17,-1
 48 432 l 1,18,-1
 62 472 l 1,19,-1
 242 472 l 1,20,-1
 328 717 l 1,21,-1
 374 717 l 1,22,-1
 289 472 l 1,23,-1
 435 472 l 1,24,-1
 521 717 l 1,25,-1
 568 717 l 1,26,-1
 482 472 l 1,27,-1
 639 472 l 1,0,-1
421 432 m 1,28,-1
 275 432 l 1,29,-1
 222 283 l 1,30,-1
 369 283 l 1,31,-1
 421 432 l 1,28,-1
EndSplineSet
EndChar

StartChar: dollar
Encoding: 36 36 7
Width: 463
Flags: W
LayerCount: 2
Back
Fore
SplineSet
492 420 m 0,0,1
 492 392 492 392 473 370.5 c 128,-1,2
 454 349 454 349 426 349 c 2,3,-1
 410 351 l 1,4,5
 443 382 443 382 443 423 c 0,6,7
 443 467 443 467 397 501 c 1,8,-1
 268 294 l 1,9,10
 306 237 306 237 308 233 c 0,11,12
 329 196 329 196 329 164 c 0,13,14
 329 88 329 88 267 42 c 0,15,16
 211 0 211 0 133 0 c 0,17,18
 108 0 108 0 84 5 c 1,19,-1
 46 -60 l 1,20,-1
 35 -54 l 1,21,-1
 75 7 l 1,22,23
 31 19 31 19 3 49 c 0,24,25
 -28 81 -28 81 -28 124 c 0,26,27
 -28 162 -28 162 -2 192 c 128,-1,28
 24 222 24 222 62 222 c 0,29,30
 74 222 74 222 94 214 c 1,31,32
 63 205 63 205 45 178 c 128,-1,33
 27 151 27 151 27 118 c 0,34,35
 27 61 27 61 83 22 c 1,36,-1
 227 253 l 1,37,38
 183 321 183 321 183 369 c 0,39,40
 183 439 183 439 239 483 c 0,41,42
 290 522 290 522 361 522 c 0,43,44
 378 522 378 522 394 520 c 1,45,-1
 436 587 l 1,46,-1
 447 581 l 1,47,-1
 406 518 l 1,48,49
 492 490 492 490 492 420 c 0,0,1
387 505 m 1,50,51
 363 511 363 511 345 511 c 0,52,53
 294 511 294 511 264 477 c 128,-1,54
 234 443 234 443 234 392 c 0,55,56
 234 352 234 352 262 305 c 1,57,-1
 387 505 l 1,50,51
277 132 m 0,58,59
 277 189 277 189 235 243 c 1,60,-1
 92 18 l 1,61,62
 125 7 125 7 150 7 c 0,63,64
 203 7 203 7 240 43 c 128,-1,65
 277 79 277 79 277 132 c 0,58,59
EndSplineSet
EndChar

StartChar: percent
Encoding: 37 37 8
Width: 691
Flags: W
LayerCount: 2
Back
Fore
SplineSet
659 207 m 0,0,1
 659 136 659 136 584.5 65.5 c 128,-1,2
 510 -5 510 -5 439 -5 c 0,3,4
 401 -5 401 -5 380 20 c 128,-1,5
 359 45 359 45 359 84 c 0,6,7
 359 159 359 159 429.5 223.5 c 128,-1,8
 500 288 500 288 576 288 c 0,9,10
 659 288 659 288 659 207 c 0,0,1
574 520 m 1,11,12
 564 490 564 490 360 244 c 0,13,14
 237 98 237 98 114 -48 c 1,15,-1
 108 -43 l 1,16,-1
 495 460 l 1,17,18
 448 416 448 416 403 416 c 0,19,20
 366 416 366 416 336 448 c 1,21,22
 333 368 333 368 265 294 c 128,-1,23
 197 220 197 220 118 220 c 0,24,25
 78 220 78 220 55 245 c 128,-1,26
 32 270 32 270 32 310 c 0,27,28
 32 386 32 386 107 453 c 0,29,30
 179 519 179 519 256 519 c 0,31,32
 298 519 298 519 331 470.5 c 128,-1,33
 364 422 364 422 402 422 c 0,34,35
 439 422 439 422 474 451 c 0,36,37
 491 466 491 466 524 506 c 0,38,39
 548 535 548 535 559 535 c 1,40,-1
 574 520 l 1,11,12
619 239 m 0,41,42
 619 282 619 282 582 282 c 0,43,44
 523 282 523 282 459 196 c 0,45,46
 399 115 399 115 399 52 c 0,47,48
 399 3 399 3 439 3 c 0,49,50
 490 3 490 3 556 95 c 0,51,52
 619 184 619 184 619 239 c 0,41,42
293 467 m 0,53,54
 293 483 293 483 284.5 496.5 c 128,-1,55
 276 510 276 510 261 510 c 0,56,57
 197 510 197 510 134 423 c 0,58,59
 74 342 74 342 74 275 c 0,60,61
 74 227 74 227 114 227 c 0,62,63
 169 227 169 227 233 320 c 0,64,65
 293 407 293 407 293 467 c 0,53,54
EndSplineSet
EndChar

StartChar: ampersand
Encoding: 38 38 9
Width: 892
Flags: W
LayerCount: 2
Back
Fore
SplineSet
811 108 m 1,0,1
 704 -20 704 -20 557 -20 c 0,2,3
 464 -20 464 -20 373 44 c 1,4,5
 297 -7 297 -7 232 -7 c 256,6,7
 167 -7 167 -7 124 35 c 128,-1,8
 81 77 81 77 81 142 c 0,9,10
 81 270 81 270 249 343 c 1,11,12
 256 428 256 428 310 499 c 0,13,14
 370 579 370 579 450 579 c 0,15,16
 478 579 478 579 498 561.5 c 128,-1,17
 518 544 518 544 518 517 c 0,18,19
 518 465 518 465 437 416 c 0,20,21
 407 398 407 398 309 356 c 1,22,23
 312 199 312 199 413 92 c 1,24,25
 473 160 473 160 534 227 c 0,26,27
 621 318 621 318 674 318 c 0,28,29
 701 318 701 318 721.5 303 c 128,-1,30
 742 288 742 288 742 262 c 0,31,32
 742 237 742 237 717 211 c 1,33,34
 698 266 698 266 647 266 c 0,35,36
 598 266 598 266 524 194 c 0,37,38
 472 139 472 139 420 84 c 1,39,40
 513 6 513 6 603 6 c 0,41,42
 708 6 708 6 805 113 c 1,43,-1
 811 108 l 1,0,1
464 520 m 0,44,45
 464 538 464 538 452.5 550.5 c 128,-1,46
 441 563 441 563 424 563 c 0,47,48
 374 563 374 563 340 485 c 0,49,50
 314 427 314 427 309 366 c 1,51,52
 365 385 365 385 409 423 c 0,53,54
 464 470 464 470 464 520 c 0,44,45
364 52 m 1,55,56
 299 110 299 110 273 178 c 0,57,58
 249 240 249 240 249 333 c 1,59,60
 145 265 145 265 145 175 c 0,61,62
 145 114 145 114 181 69 c 0,63,64
 219 20 219 20 279 20 c 0,65,66
 320 20 320 20 364 52 c 1,55,56
EndSplineSet
EndChar

StartChar: quotesingle
Encoding: 39 39 10
Width: 109
Flags: W
LayerCount: 2
Back
Fore
SplineSet
92 675 m 0,0,1
 92 635 92 635 80 553 c 0,2,3
 70 491 70 491 61 429 c 1,4,-1
 47 429 l 1,5,6
 38 491 38 491 28 552 c 0,7,8
 17 628 17 628 17 675 c 0,9,10
 17 721 17 721 54 721 c 0,11,12
 92 721 92 721 92 675 c 0,0,1
EndSplineSet
EndChar

StartChar: parenleft
Encoding: 40 40 11
Width: 454
Flags: W
LayerCount: 2
Back
Fore
SplineSet
536 675 m 1,0,1
 273 535 273 535 105 269 c 128,-1,2
 -63 3 -63 3 -76 -295 c 1,3,-1
 -82 -295 l 1,4,-1
 -83 -222 l 2,5,6
 -87 73 -87 73 88 322 c 0,7,8
 258 566 258 566 535 679 c 1,9,-1
 536 675 l 1,0,1
EndSplineSet
EndChar

StartChar: parenright
Encoding: 41 41 12
Width: 476
Flags: W
LayerCount: 2
Back
Fore
SplineSet
548 605 m 2,0,1
 556 311 556 311 380 60 c 0,2,3
 209 -184 209 -184 -70 -297 c 1,4,-1
 -72 -293 l 1,5,6
 191 -153 191 -153 360.5 114.5 c 128,-1,7
 530 382 530 382 540 679 c 1,8,-1
 546 679 l 1,9,-1
 548 605 l 2,0,1
EndSplineSet
EndChar

StartChar: asterisk
Encoding: 42 42 13
Width: 353
Flags: W
LayerCount: 2
Back
Fore
SplineSet
226 704 m 0,0,1
 226 698 226 698 172 583 c 1,2,-1
 164 585 l 1,3,-1
 179 701 l 2,4,5
 182 724 182 724 200 724 c 0,6,7
 226 724 226 724 226 704 c 0,0,1
319 578 m 0,8,9
 319 553 319 553 295 556 c 2,10,-1
 176 572 l 1,11,-1
 176 579 l 1,12,13
 295 601 295 601 297 601 c 0,14,15
 319 601 319 601 319 578 c 0,8,9
159 582 m 1,16,-1
 155 576 l 1,17,-1
 50 625 l 2,18,19
 34 632 34 632 34 645 c 0,20,21
 34 653 34 653 40.5 662.5 c 128,-1,22
 47 672 47 672 55 672 c 0,23,24
 65 672 65 672 72 665 c 2,25,-1
 159 582 l 1,16,-1
233 448 m 0,26,27
 233 426 233 426 205 426 c 0,28,29
 192 426 192 426 188 445 c 2,30,-1
 166 565 l 1,31,-1
 173 567 l 1,32,33
 190 537 190 537 207 507 c 0,34,35
 233 459 233 459 233 448 c 0,26,27
160 565 m 1,36,-1
 81 480 l 2,37,38
 71 469 71 469 62 469 c 256,39,40
 53 469 53 469 45.5 477.5 c 128,-1,41
 38 486 38 486 38 495 c 0,42,43
 38 505 38 505 51 512 c 2,44,-1
 156 571 l 1,45,-1
 160 565 l 1,36,-1
EndSplineSet
EndChar

StartChar: plus
Encoding: 43 43 14
Width: 687
Flags: W
LayerCount: 2
Back
Fore
SplineSet
636 282 m 1,0,-1
 363 282 l 1,1,-1
 363 0 l 1,2,-1
 324 0 l 1,3,-1
 324 282 l 1,4,-1
 51 282 l 1,5,-1
 51 321 l 1,6,-1
 324 321 l 1,7,-1
 324 602 l 1,8,-1
 363 602 l 1,9,-1
 363 321 l 1,10,-1
 636 321 l 1,11,-1
 636 282 l 1,0,-1
EndSplineSet
EndChar

StartChar: comma
Encoding: 44 44 15
Width: 400
Flags: W
LayerCount: 2
Back
Fore
SplineSet
288 23 m 0,0,1
 288 -38 288 -38 230 -84 c 0,2,3
 176 -126 176 -126 112 -131 c 1,4,-1
 111 -123 l 1,5,6
 236 -110 236 -110 259 3 c 1,7,8
 245 -3 245 -3 242 -3 c 0,9,10
 212 -3 212 -3 212 30 c 0,11,12
 212 71 212 71 250 71 c 256,13,14
 288 71 288 71 288 23 c 0,0,1
EndSplineSet
EndChar

StartChar: hyphen
Encoding: 45 45 16
AltUni2: 002010.ffffffff.0
Width: 380
Flags: W
LayerCount: 2
Back
Fore
SplineSet
311 220 m 1,0,-1
 294 189 l 1,1,-1
 69 189 l 1,2,-1
 91 220 l 1,3,-1
 311 220 l 1,0,-1
EndSplineSet
EndChar

StartChar: period
Encoding: 46 46 17
Width: 249
Flags: W
LayerCount: 2
Back
Fore
SplineSet
164 32 m 256,0,1
 164 16 164 16 153 4.5 c 128,-1,2
 142 -7 142 -7 125 -7 c 0,3,4
 109 -7 109 -7 97 4.5 c 128,-1,5
 85 16 85 16 85 32 c 256,6,7
 85 48 85 48 97 60 c 128,-1,8
 109 72 109 72 125 72 c 0,9,10
 142 72 142 72 153 60 c 128,-1,11
 164 48 164 48 164 32 c 256,0,1
EndSplineSet
EndChar

StartChar: slash
Encoding: 47 47 18
Width: 282
Flags: W
LayerCount: 2
Back
Fore
SplineSet
316 711 m 1,0,1
 161 312 161 312 15 -93 c 1,2,-1
 -33 -91 l 1,3,4
 118 305 118 305 267 713 c 1,5,-1
 316 711 l 1,0,1
EndSplineSet
EndChar

StartChar: zero
Encoding: 48 48 19
Width: 633
Flags: W
LayerCount: 2
Back
Fore
SplineSet
554 397 m 0,0,1
 554 275 554 275 433 135 c 0,2,3
 308 -9 308 -9 189 -9 c 0,4,5
 134 -9 134 -9 105 33 c 0,6,7
 80 70 80 70 80 127 c 0,8,9
 80 251 80 251 199 385 c 0,10,11
 322 522 322 522 444 522 c 0,12,13
 496 522 496 522 525 486.5 c 128,-1,14
 554 451 554 451 554 397 c 0,0,1
490 389 m 0,15,16
 490 502 490 502 400 502 c 0,17,18
 302 502 302 502 217 357 c 0,19,20
 141 227 141 227 141 120 c 0,21,22
 141 9 141 9 222 9 c 0,23,24
 320 9 320 9 409 152 c 0,25,26
 490 283 490 283 490 389 c 0,15,16
EndSplineSet
EndChar

StartChar: one
Encoding: 49 49 20
Width: 633
Flags: W
LayerCount: 2
Back
Fore
SplineSet
516 523 m 1,0,1
 434 397 434 397 352 271 c 0,2,3
 255 121 255 121 200 11 c 1,4,-1
 117 -3 l 1,5,-1
 397 434 l 1,6,7
 280 359 280 359 195 338 c 1,8,-1
 192 350 l 1,9,10
 378 406 378 406 512 527 c 1,11,-1
 516 523 l 1,0,1
EndSplineSet
EndChar

StartChar: two
Encoding: 50 50 21
Width: 633
Flags: W
LayerCount: 2
Back
Fore
SplineSet
593 397 m 0,0,1
 593 313 593 313 506 246 c 0,2,3
 449 203 449 203 320 148 c 0,4,5
 183 90 183 90 147 65 c 1,6,-1
 147 63 l 1,7,8
 179 82 179 82 214 82 c 0,9,10
 248 82 248 82 304.5 56.5 c 128,-1,11
 361 31 361 31 388 31 c 0,12,13
 441 31 441 31 523 160 c 1,14,-1
 530 156 l 1,15,16
 425 -10 425 -10 333 -10 c 0,17,18
 301 -10 301 -10 239.5 21.5 c 128,-1,19
 178 53 178 53 155 53 c 0,20,21
 125 53 125 53 97 31 c 0,22,23
 51 -6 51 -6 49 -7 c 2,24,-1
 41 -2 l 1,25,26
 42 28 42 28 169 88 c 0,27,28
 347 173 347 173 404 211 c 0,29,30
 530 296 530 296 530 388 c 0,31,32
 530 434 530 434 502 468 c 128,-1,33
 474 502 474 502 429 502 c 0,34,35
 381 502 381 502 342.5 470 c 128,-1,36
 304 438 304 438 304 391 c 0,37,38
 304 324 304 324 359 324 c 0,39,40
 383 324 383 324 404 342 c 1,41,-1
 406 340 l 1,42,43
 375 282 375 282 331 282 c 0,44,45
 302 282 302 282 282 303.5 c 128,-1,46
 262 325 262 325 262 354 c 0,47,48
 262 422 262 422 327 472 c 0,49,50
 387 519 387 519 458 519 c 0,51,52
 515 519 515 519 554 486 c 128,-1,53
 593 453 593 453 593 397 c 0,0,1
EndSplineSet
EndChar

StartChar: three
Encoding: 51 51 22
Width: 633
Flags: W
LayerCount: 2
Back
Fore
SplineSet
582 420 m 0,0,1
 582 352 582 352 498 310 c 0,2,3
 434 278 434 278 355 273 c 1,4,-1
 355 272 l 1,5,-1
 368 273 l 2,6,7
 412 276 412 276 441.5 245.5 c 128,-1,8
 471 215 471 215 471 169 c 0,9,10
 471 87 471 87 385 35 c 0,11,12
 311 -10 311 -10 224 -10 c 0,13,14
 158 -10 158 -10 109 21 c 0,15,16
 52 57 52 57 52 119 c 0,17,18
 52 155 52 155 76 183 c 128,-1,19
 100 211 100 211 136 211 c 0,20,21
 175 211 175 211 206 182 c 1,22,-1
 205 179 l 1,23,24
 186 187 186 187 176 187 c 0,25,26
 146 187 146 187 127 157.5 c 128,-1,27
 108 128 108 128 108 97 c 0,28,29
 108 49 108 49 147 22 c 0,30,31
 181 -1 181 -1 232 -1 c 0,32,33
 301 -1 301 -1 356 50 c 128,-1,34
 411 101 411 101 411 170 c 0,35,36
 411 264 411 264 306 264 c 0,37,38
 286 264 286 264 264 260 c 1,39,-1
 264 270 l 1,40,41
 361 271 361 271 428 298 c 0,42,43
 522 337 522 337 522 420 c 0,44,45
 522 458 522 458 497.5 483 c 128,-1,46
 473 508 473 508 435 508 c 0,47,48
 398 508 398 508 368.5 484.5 c 128,-1,49
 339 461 339 461 339 425 c 0,50,51
 339 402 339 402 354 382 c 128,-1,52
 369 362 369 362 391 362 c 0,53,54
 407 362 407 362 420 381 c 1,55,-1
 424 379 l 1,56,57
 400 328 400 328 352 328 c 0,58,59
 326 328 326 328 311.5 344.5 c 128,-1,60
 297 361 297 361 297 387 c 0,61,62
 297 446 297 446 352 487 c 0,63,64
 403 525 403 525 464 525 c 0,65,66
 513 525 513 525 547.5 496.5 c 128,-1,67
 582 468 582 468 582 420 c 0,0,1
EndSplineSet
EndChar

StartChar: four
Encoding: 52 52 23
Width: 633
Flags: W
LayerCount: 2
Back
Fore
SplineSet
581 507 m 1,0,-1
 388 199 l 1,1,-1
 509 200 l 1,2,-1
 499 186 l 1,3,-1
 380 185 l 1,4,-1
 272 10 l 1,5,-1
 196 -1 l 1,6,-1
 314 184 l 1,7,-1
 52 181 l 1,8,-1
 538 598 l 1,9,-1
 571 602 l 1,10,-1
 81 193 l 1,11,-1
 322 198 l 1,12,-1
 519 498 l 1,13,-1
 581 507 l 1,0,-1
EndSplineSet
EndChar

StartChar: five
Encoding: 53 53 24
Width: 633
Flags: W
LayerCount: 2
Back
Fore
SplineSet
600 511 m 1,0,1
 532 434 532 434 467 434 c 0,2,3
 431 434 431 434 392 460 c 1,4,-1
 224 288 l 1,5,6
 277 308 277 308 319 308 c 0,7,8
 439 308 439 308 439 200 c 0,9,10
 439 115 439 115 358 51 c 0,11,12
 282 -9 282 -9 195 -9 c 0,13,14
 133 -9 133 -9 87 22 c 0,15,16
 34 57 34 57 34 116 c 0,17,18
 34 157 34 157 60.5 185.5 c 128,-1,19
 87 214 87 214 128 214 c 0,20,21
 159 214 159 214 183 189 c 1,22,-1
 181 186 l 1,23,-1
 167 188 l 1,24,25
 133 188 133 188 113 161.5 c 128,-1,26
 93 135 93 135 93 100 c 0,27,28
 93 54 93 54 121 26.5 c 128,-1,29
 149 -1 149 -1 195 -1 c 0,30,31
 271 -1 271 -1 325 61 c 0,32,33
 377 120 377 120 377 198 c 0,34,35
 377 294 377 294 292 294 c 0,36,37
 250 294 250 294 185 257 c 1,38,-1
 179 263 l 1,39,-1
 428 517 l 1,40,41
 455 481 455 481 512 481 c 0,42,43
 562 481 562 481 595 515 c 1,44,-1
 600 511 l 1,0,1
EndSplineSet
EndChar

StartChar: six
Encoding: 54 54 25
Width: 633
Flags: W
LayerCount: 2
Back
Fore
SplineSet
659 590 m 0,0,1
 659 547 659 547 621 517 c 1,2,3
 624 541 624 541 624 549 c 0,4,5
 624 596 624 596 585 626 c 0,6,7
 550 652 550 652 501 652 c 0,8,9
 380 652 380 652 253 523 c 0,10,11
 160 427 160 427 84 288 c 1,12,-1
 86 287 l 1,13,14
 158 395 158 395 254 395 c 0,15,16
 298 395 298 395 325 367.5 c 128,-1,17
 352 340 352 340 352 296 c 0,18,19
 352 201 352 201 263 96 c 0,20,21
 172 -12 172 -12 79 -12 c 0,22,23
 28 -12 28 -12 -1 29 c 0,24,25
 -26 64 -26 64 -26 118 c 0,26,27
 -26 237 -26 237 67 370 c 0,28,29
 154 496 154 496 285 581 c 0,30,31
 421 669 421 669 540 669 c 0,32,33
 584 669 584 669 617 651 c 0,34,35
 659 630 659 630 659 590 c 0,0,1
294 289 m 0,36,37
 294 326 294 326 280 350 c 0,38,39
 262 380 262 380 228 380 c 0,40,41
 150 380 150 380 87 274 c 0,42,43
 31 180 31 180 31 95 c 0,44,45
 31 -1 31 -1 96 -1 c 0,46,47
 165 -1 165 -1 232 111 c 0,48,49
 294 213 294 213 294 289 c 0,36,37
EndSplineSet
EndChar

StartChar: seven
Encoding: 55 55 26
Width: 633
Flags: W
LayerCount: 2
Back
Fore
SplineSet
602 521 m 1,0,-1
 124 -113 l 1,1,-1
 32 -124 l 1,2,-1
 569 489 l 1,3,-1
 567 492 l 1,4,5
 505 436 505 436 450 436 c 0,6,7
 417 436 417 436 369.5 458.5 c 128,-1,8
 322 481 322 481 305 481 c 0,9,10
 274 481 274 481 244 447 c 0,11,12
 221 419 221 419 198 390 c 1,13,-1
 191 397 l 1,14,15
 191 407 191 407 211 426 c 0,16,17
 240 452 240 452 241 452 c 0,18,19
 252 466 252 466 266 495 c 0,20,21
 284 535 284 535 288 541 c 1,22,-1
 299 536 l 1,23,-1
 257 469 l 1,24,25
 310 518 310 518 357 518 c 0,26,27
 382 518 382 518 427 497 c 128,-1,28
 472 476 472 476 498 476 c 0,29,30
 550 476 550 476 594 527 c 1,31,-1
 602 521 l 1,0,-1
EndSplineSet
EndChar

StartChar: eight
Encoding: 56 56 27
Width: 633
Flags: W
LayerCount: 2
Back
Fore
SplineSet
583 463 m 0,0,1
 583 394 583 394 528 343 c 0,2,3
 477 296 477 296 407 286 c 1,4,-1
 405 293 l 1,5,6
 465 304 465 304 498 344 c 128,-1,7
 531 384 531 384 531 445 c 0,8,9
 531 503 531 503 505 546 c 0,10,11
 474 597 474 597 420 597 c 0,12,13
 369 597 369 597 338 551 c 0,14,15
 312 511 312 511 312 458 c 0,16,17
 312 404 312 404 352 312 c 128,-1,18
 392 220 392 220 392 168 c 0,19,20
 392 92 392 92 337 40.5 c 128,-1,21
 282 -11 282 -11 206 -11 c 0,22,23
 139 -11 139 -11 95 34.5 c 128,-1,24
 51 80 51 80 51 147 c 0,25,26
 51 239 51 239 119 292 c 0,27,28
 182 341 182 341 277 341 c 1,29,30
 257 398 257 398 257 438 c 0,31,32
 257 513 257 513 309 560.5 c 128,-1,33
 361 608 361 608 437 608 c 0,34,35
 501 608 501 608 542 567.5 c 128,-1,36
 583 527 583 527 583 463 c 0,0,1
340 139 m 0,37,38
 340 222 340 222 279 333 c 1,39,40
 199 332 199 332 151 290 c 128,-1,41
 103 248 103 248 103 170 c 0,42,43
 103 104 103 104 135 57 c 0,44,45
 172 4 172 4 235 4 c 0,46,47
 286 4 286 4 315 47 c 0,48,49
 340 85 340 85 340 139 c 0,37,38
EndSplineSet
EndChar

StartChar: nine
Encoding: 57 57 28
Width: 633
Flags: W
LayerCount: 2
Back
Fore
SplineSet
694 391 m 0,0,1
 694 269 694 269 597 120 c 0,2,3
 504 -24 504 -24 369 -122 c 0,4,5
 225 -227 225 -227 101 -227 c 0,6,7
 41 -227 41 -227 -5 -201 c 0,8,9
 -60 -170 -60 -170 -60 -115 c 0,10,11
 -60 -71 -60 -71 -18 -51 c 1,12,13
 -18 -122 -18 -122 22.5 -167 c 128,-1,14
 63 -212 63 -212 134 -212 c 0,15,16
 269 -212 269 -212 410 -48 c 0,17,18
 505 62 505 62 593 233 c 1,19,20
 491 109 491 109 412 109 c 0,21,22
 365 109 365 109 340 140 c 0,23,24
 318 168 318 168 318 216 c 0,25,26
 318 306 318 306 408.5 411.5 c 128,-1,27
 499 517 499 517 587 517 c 0,28,29
 694 517 694 517 694 391 c 0,0,1
635 412 m 0,30,31
 635 504 635 504 573 504 c 0,32,33
 502 504 502 504 438 396 c 0,34,35
 380 298 380 298 380 220 c 0,36,37
 380 130 380 130 444 130 c 0,38,39
 517 130 517 130 579 236 c 0,40,41
 635 331 635 331 635 412 c 0,30,31
EndSplineSet
EndChar

StartChar: colon
Encoding: 58 58 29
Width: 234
Flags: W
LayerCount: 2
Back
Fore
SplineSet
224 314 m 256,0,1
 224 298 224 298 212.5 286.5 c 128,-1,2
 201 275 201 275 185 275 c 256,3,4
 169 275 169 275 157.5 286.5 c 128,-1,5
 146 298 146 298 146 314 c 256,6,7
 146 330 146 330 157.5 342 c 128,-1,8
 169 354 169 354 185 354 c 256,9,10
 201 354 201 354 212.5 342 c 128,-1,11
 224 330 224 330 224 314 c 256,0,1
90 27 m 256,12,13
 90 11 90 11 78.5 -1 c 128,-1,14
 67 -13 67 -13 51 -13 c 256,15,16
 35 -13 35 -13 23 -1 c 128,-1,17
 11 11 11 11 11 27 c 256,18,19
 11 43 11 43 23 55 c 128,-1,20
 35 67 35 67 51 67 c 256,21,22
 67 67 67 67 78.5 55 c 128,-1,23
 90 43 90 43 90 27 c 256,12,13
EndSplineSet
EndChar

StartChar: semicolon
Encoding: 59 59 30
Width: 249
Flags: W
LayerCount: 2
Back
Fore
SplineSet
277 314 m 256,0,1
 277 298 277 298 265.5 286.5 c 128,-1,2
 254 275 254 275 238 275 c 256,3,4
 222 275 222 275 210.5 286.5 c 128,-1,5
 199 298 199 298 199 314 c 256,6,7
 199 330 199 330 210.5 342 c 128,-1,8
 222 354 222 354 238 354 c 256,9,10
 254 354 254 354 265.5 342 c 128,-1,11
 277 330 277 330 277 314 c 256,0,1
151 23 m 0,12,13
 151 -37 151 -37 91 -84 c 0,14,15
 37 -126 37 -126 -26 -131 c 1,16,-1
 -27 -123 l 1,17,18
 98 -109 98 -109 122 3 c 1,19,20
 107 -3 107 -3 104 -3 c 0,21,22
 74 -3 74 -3 74 30 c 0,23,24
 74 47 74 47 85 59 c 128,-1,25
 96 71 96 71 113 71 c 0,26,27
 151 71 151 71 151 23 c 0,12,13
EndSplineSet
EndChar

StartChar: less
Encoding: 60 60 31
Width: 728
Flags: W
LayerCount: 2
Back
Fore
SplineSet
651 48 m 1,0,-1
 76 286 l 1,1,-1
 76 316 l 1,2,-1
 651 554 l 1,3,-1
 651 510 l 1,4,-1
 141 301 l 1,5,-1
 651 92 l 1,6,-1
 651 48 l 1,0,-1
EndSplineSet
EndChar

StartChar: equal
Encoding: 61 61 32
Width: 720
Flags: W
LayerCount: 2
Back
Fore
SplineSet
653 371 m 1,0,-1
 68 371 l 1,1,-1
 68 410 l 1,2,-1
 653 410 l 1,3,-1
 653 371 l 1,0,-1
653 192 m 1,4,-1
 68 192 l 1,5,-1
 68 231 l 1,6,-1
 653 231 l 1,7,-1
 653 192 l 1,4,-1
EndSplineSet
EndChar

StartChar: greater
Encoding: 62 62 33
Width: 699
Flags: W
LayerCount: 2
Back
Fore
SplineSet
637 286 m 1,0,-1
 62 48 l 1,1,-1
 62 92 l 1,2,-1
 572 301 l 1,3,-1
 62 510 l 1,4,-1
 62 554 l 1,5,-1
 637 316 l 1,6,-1
 637 286 l 1,0,-1
EndSplineSet
EndChar

StartChar: question
Encoding: 63 63 34
Width: 383
Flags: W
LayerCount: 2
Back
Fore
SplineSet
395 407 m 0,0,1
 395 330 395 330 330 280 c 0,2,3
 308 262 308 262 196 205 c 0,4,5
 110 161 110 161 81 115 c 1,6,-1
 75 119 l 1,7,8
 104 163 104 163 178 206 c 0,9,10
 267 257 267 257 290 279 c 0,11,12
 342 328 342 328 342 404 c 0,13,14
 342 448 342 448 315 476.5 c 128,-1,15
 288 505 288 505 244 505 c 0,16,17
 187 505 187 505 145 464.5 c 128,-1,18
 103 424 103 424 103 367 c 0,19,20
 103 284 103 284 161 284 c 0,21,22
 198 284 198 284 242 328 c 1,23,-1
 246 322 l 1,24,25
 202 275 202 275 152 275 c 0,26,27
 116 275 116 275 93.5 298 c 128,-1,28
 71 321 71 321 71 357 c 0,29,30
 71 421 71 421 137 473 c 0,31,32
 199 521 199 521 265 521 c 0,33,34
 320 521 320 521 357.5 491 c 128,-1,35
 395 461 395 461 395 407 c 0,0,1
67 32 m 256,36,37
 67 16 67 16 55.5 4.5 c 128,-1,38
 44 -7 44 -7 28 -7 c 256,39,40
 12 -7 12 -7 0 4.5 c 128,-1,41
 -12 16 -12 16 -12 32 c 256,42,43
 -12 48 -12 48 0 60 c 128,-1,44
 12 72 12 72 28 72 c 256,45,46
 44 72 44 72 55.5 60 c 128,-1,47
 67 48 67 48 67 32 c 256,36,37
EndSplineSet
EndChar

StartChar: at
Encoding: 64 64 35
Width: 973
Flags: W
LayerCount: 2
Back
Fore
SplineSet
907 378 m 0,0,1
 907 270 907 270 847 173 c 0,2,3
 778 62 778 62 676 62 c 0,4,5
 581 62 581 62 576 170 c 1,6,7
 518 63 518 63 421 63 c 0,8,9
 359 63 359 63 324 116 c 0,10,11
 294 161 294 161 294 226 c 0,12,13
 294 319 294 319 363 405 c 0,14,15
 436 495 436 495 527 495 c 0,16,17
 611 495 611 495 634 396 c 1,18,-1
 662 487 l 1,19,-1
 721 487 l 1,20,21
 693 400 693 400 664 312 c 0,22,23
 629 200 629 200 629 135 c 0,24,25
 629 81 629 81 680 81 c 0,26,27
 769 81 769 81 832 189 c 0,28,29
 888 284 888 284 888 379 c 0,30,31
 888 527 888 527 787 614 c 0,32,33
 692 696 692 696 541 696 c 0,34,35
 350 696 350 696 230 566 c 0,36,37
 114 441 114 441 114 248 c 0,38,39
 114 83 114 83 233 -20 c 0,40,41
 346 -117 346 -117 515 -117 c 0,42,43
 687 -117 687 -117 819 -14 c 1,44,-1
 832 -29 l 1,45,46
 690 -137 690 -137 515 -137 c 0,47,48
 323 -137 323 -137 199 -34 c 0,49,50
 66 77 66 77 66 265 c 0,51,52
 66 455 66 455 207 587 c 0,53,54
 345 715 345 715 537 715 c 0,55,56
 698 715 698 715 800 628 c 0,57,58
 907 536 907 536 907 378 c 0,0,1
616 367 m 0,59,60
 616 410 616 410 592 442 c 0,61,62
 566 479 566 479 525 479 c 0,63,64
 456 479 456 479 399 366 c 0,65,66
 350 267 350 267 350 188 c 0,67,68
 350 145 350 145 368 116 c 0,69,70
 389 82 389 82 430 82 c 0,71,72
 506 82 506 82 565 189 c 0,73,74
 616 282 616 282 616 367 c 0,59,60
EndSplineSet
EndChar

StartChar: A
Encoding: 65 65 36
Width: 868
Flags: W
LayerCount: 2
Back
Fore
SplineSet
856 699 m 1,0,1
 720 547 720 547 624 399 c 0,2,3
 485 184 485 184 485 54 c 0,4,5
 485 8 485 8 520 8 c 0,6,7
 571 8 571 8 673 116 c 0,8,9
 737 183 737 183 799 267 c 1,10,-1
 805 262 l 1,11,12
 607 -11 607 -11 490 -11 c 0,13,14
 426 -11 426 -11 426 73 c 0,15,16
 426 163 426 163 504 304 c 1,17,-1
 402 304 l 1,18,19
 296 170 296 170 229 107 c 0,20,21
 104 -9 104 -9 5 -9 c 0,22,23
 -29 -9 -29 -9 -53 4 c 0,24,25
 -83 21 -83 21 -83 52 c 0,26,27
 -83 69 -83 69 -73 82 c 128,-1,28
 -63 95 -63 95 -46 95 c 0,29,30
 -17 95 -17 95 -17 64 c 1,31,32
 -17 64 -17 64 -34 30 c 1,33,34
 -16 10 -16 10 28 10 c 0,35,36
 126 10 126 10 269 163 c 1,37,38
 403 317 403 317 538 471 c 1,39,40
 708 654 708 654 851 704 c 1,41,-1
 856 699 l 1,0,1
779 664 m 1,42,43
 618 583 618 583 408 311 c 1,44,-1
 508 311 l 1,45,46
 614 502 614 502 779 664 c 1,42,43
EndSplineSet
EndChar

StartChar: B
Encoding: 66 66 37
Width: 839
Flags: W
LayerCount: 2
Back
Fore
SplineSet
864 693 m 1,0,1
 794 683 794 683 742 643 c 1,2,3
 802 597 802 597 802 525 c 0,4,5
 802 452 802 452 742 402 c 0,6,7
 689 357 689 357 613 346 c 1,8,9
 753 346 753 346 753 229 c 0,10,11
 753 130 753 130 682 59.5 c 128,-1,12
 611 -11 611 -11 512 -11 c 0,13,14
 466 -11 466 -11 434 9 c 0,15,16
 396 32 396 32 396 75 c 0,17,18
 396 101 396 101 411.5 120 c 128,-1,19
 427 139 427 139 453 139 c 1,20,21
 453 139 453 139 483 127 c 1,22,23
 452 110 452 110 452 65 c 0,24,25
 452 -2 452 -2 526 -2 c 0,26,27
 595 -2 595 -2 647 72 c 0,28,29
 694 139 694 139 694 211 c 0,30,31
 694 338 694 338 588 338 c 0,32,33
 571 338 571 338 552 335 c 1,34,-1
 560 347 l 1,35,36
 639 347 639 347 694 400.5 c 128,-1,37
 749 454 749 454 749 533 c 0,38,39
 749 585 749 585 718 622 c 1,40,41
 647 563 647 563 547 385 c 0,42,43
 433 180 433 180 378 115 c 0,44,45
 268 -14 268 -14 133 -14 c 0,46,47
 94 -14 94 -14 62 2 c 0,48,49
 23 21 23 21 23 57 c 0,50,51
 23 73 23 73 35 85 c 128,-1,52
 47 97 47 97 63 97 c 0,53,54
 77 97 77 97 88.5 88 c 128,-1,55
 100 79 100 79 100 65 c 0,56,57
 100 54 100 54 92 42.5 c 128,-1,58
 84 31 84 31 74 31 c 0,59,60
 70 31 70 31 66 33 c 1,61,62
 83 -6 83 -6 141 -6 c 0,63,64
 232 -6 232 -6 333 131 c 0,65,66
 336 136 336 136 509 412 c 0,67,68
 617 585 617 585 703 639 c 1,69,70
 651 686 651 686 533 686 c 0,71,72
 374 686 374 686 241 585 c 0,73,74
 98 477 98 477 98 322 c 0,75,76
 98 262 98 262 125 220 c 0,77,78
 157 171 157 171 214 171 c 0,79,80
 290 171 290 171 335 241 c 0,81,82
 374 302 374 302 374 385 c 0,83,84
 374 416 374 416 368 442 c 1,85,-1
 375 443 l 1,86,87
 384 413 384 413 384 380 c 0,88,89
 384 293 384 293 338 230 c 0,90,91
 287 159 287 159 203 159 c 0,92,93
 136 159 136 159 97 205 c 0,94,95
 60 248 60 248 60 316 c 0,96,97
 60 481 60 481 227 594 c 0,98,99
 376 695 376 695 548 695 c 0,100,101
 648 695 648 695 727 655 c 1,102,103
 778 687 778 687 864 702 c 1,104,-1
 864 693 l 1,0,1
EndSplineSet
EndChar

StartChar: C
Encoding: 67 67 38
Width: 709
Flags: W
LayerCount: 2
Back
Fore
SplineSet
693 598 m 0,0,1
 693 531 693 531 636.5 484.5 c 128,-1,2
 580 438 580 438 512 438 c 0,3,4
 472 438 472 438 443 458 c 0,5,6
 411 481 411 481 411 520 c 0,7,8
 411 524 411 524 415 553 c 1,9,-1
 421 552 l 1,10,-1
 418 525 l 2,11,12
 418 492 418 492 441 471 c 128,-1,13
 464 450 464 450 497 450 c 0,14,15
 556 450 556 450 608.5 504.5 c 128,-1,16
 661 559 661 559 661 619 c 0,17,18
 661 652 661 652 638.5 670.5 c 128,-1,19
 616 689 616 689 582 689 c 0,20,21
 479 689 479 689 361 595 c 0,22,23
 252 509 252 509 176 380 c 128,-1,24
 100 251 100 251 100 147 c 0,25,26
 100 81 100 81 129 40 c 0,27,28
 162 -8 162 -8 225 -8 c 0,29,30
 307 -8 307 -8 380 70 c 128,-1,31
 453 148 453 148 453 230 c 0,32,33
 453 267 453 267 433 294.5 c 128,-1,34
 413 322 413 322 377 322 c 0,35,36
 331 322 331 322 293 282 c 0,37,38
 262 249 262 249 245 200 c 1,39,-1
 238 203 l 1,40,41
 257 257 257 257 293 292 c 0,42,43
 335 333 335 333 387 333 c 0,44,45
 433 333 433 333 462.5 305 c 128,-1,46
 492 277 492 277 492 231 c 0,47,48
 492 132 492 132 396 54 c 0,49,50
 304 -21 304 -21 203 -21 c 0,51,52
 123 -21 123 -21 78 28.5 c 128,-1,53
 33 78 33 78 33 159 c 0,54,55
 33 267 33 267 125 398 c 0,56,57
 212 522 212 522 337 608 c 0,58,59
 469 698 469 698 577 698 c 0,60,61
 627 698 627 698 658 673 c 0,62,63
 693 646 693 646 693 598 c 0,0,1
EndSplineSet
EndChar

StartChar: D
Encoding: 68 68 39
Width: 830
Flags: W
LayerCount: 2
Back
Fore
SplineSet
862 716 m 1,0,1
 766 701 766 701 686 628 c 1,2,3
 767 546 767 546 767 408 c 0,4,5
 767 221 767 221 629 102 c 0,6,7
 498 -11 498 -11 308 -11 c 0,8,9
 285 -11 285 -11 239 -5 c 128,-1,10
 193 1 193 1 171 1 c 0,11,12
 159 1 159 1 133.5 -5 c 128,-1,13
 108 -11 108 -11 95 -11 c 0,14,15
 15 -11 15 -11 16 16 c 1,16,17
 24 30 24 30 43 30 c 0,18,19
 94 30 94 30 166 12 c 1,20,21
 257 39 257 39 345 166 c 0,22,23
 346 168 346 168 492 417 c 0,24,25
 583 571 583 571 663 634 c 1,26,27
 576 699 576 699 472 699 c 0,28,29
 315 699 315 699 196 593 c 0,30,31
 72 483 72 483 72 329 c 0,32,33
 72 267 72 267 96 226 c 0,34,35
 125 175 125 175 183 175 c 0,36,37
 284 175 284 175 342 279 c 0,38,39
 391 365 391 365 391 474 c 1,40,-1
 401 475 l 1,41,42
 401 475 401 475 401 472 c 2,43,-1
 402 461 l 1,44,-1
 402 443 l 2,45,46
 403 341 403 341 340 255 c 0,47,48
 271 160 271 160 172 160 c 0,49,50
 103 160 103 160 65 211 c 0,51,52
 30 257 30 257 30 328 c 0,53,54
 30 483 30 483 174 600 c 0,55,56
 310 709 310 709 469 709 c 0,57,58
 581 709 581 709 672 641 c 1,59,60
 762 712 762 712 862 724 c 1,61,-1
 862 716 l 1,0,1
723 469 m 0,62,63
 723 553 723 553 679 618 c 1,64,65
 618 550 618 550 535 394 c 0,66,67
 445 225 445 225 396 162 c 0,68,69
 306 46 306 46 187 9 c 1,70,71
 263 -3 263 -3 307 -3 c 0,72,73
 485 -3 485 -3 608 146 c 0,74,75
 723 286 723 286 723 469 c 0,62,63
EndSplineSet
EndChar

StartChar: E
Encoding: 69 69 40
Width: 653
Flags: W
LayerCount: 2
Back
Fore
SplineSet
655 601 m 0,0,1
 655 542 655 542 602 501 c 0,2,3
 554 464 554 464 493 464 c 0,4,5
 468 464 468 464 441 472 c 1,6,-1
 443 478 l 1,7,8
 471 471 471 471 487 471 c 0,9,10
 537 471 537 471 574.5 509.5 c 128,-1,11
 612 548 612 548 612 599 c 0,12,13
 612 640 612 640 585.5 667 c 128,-1,14
 559 694 559 694 518 694 c 0,15,16
 467 694 467 694 426.5 663.5 c 128,-1,17
 386 633 386 633 374 584 c 0,18,19
 371 572 371 572 367 505 c 0,20,21
 364 457 364 457 345.5 430 c 128,-1,22
 327 403 327 403 258 370 c 0,23,24
 179 332 179 332 150 304 c 0,25,26
 97 253 97 253 97 172 c 0,27,28
 97 95 97 95 146.5 47 c 128,-1,29
 196 -1 196 -1 273 -1 c 0,30,31
 353 -1 353 -1 416 49 c 0,32,33
 484 103 484 103 484 181 c 0,34,35
 484 219 484 219 462.5 243 c 128,-1,36
 441 267 441 267 404 267 c 0,37,38
 345 267 345 267 271 179 c 1,39,-1
 265 183 l 1,40,41
 340 279 340 279 432 279 c 0,42,43
 474 279 474 279 502.5 255.5 c 128,-1,44
 531 232 531 232 531 191 c 0,45,46
 531 97 531 97 424 37 c 0,47,48
 333 -15 333 -15 232 -15 c 0,49,50
 146 -15 146 -15 92 23 c 0,51,52
 30 66 30 66 30 149 c 0,53,54
 30 235 30 235 94 290 c 0,55,56
 122 315 122 315 217 363 c 0,57,58
 289 399 289 399 298 432 c 0,59,60
 304 453 304 453 306 513 c 0,61,62
 308 564 308 564 324 595 c 0,63,64
 351 647 351 647 410 676 c 0,65,66
 463 702 463 702 526 702 c 0,67,68
 577 702 577 702 613 678 c 0,69,70
 655 650 655 650 655 601 c 0,0,1
EndSplineSet
EndChar

StartChar: F
Encoding: 70 70 41
Width: 1006
Flags: W
LayerCount: 2
Back
Fore
SplineSet
1018 646 m 0,0,1
 1018 614 1018 614 934 614 c 0,2,3
 922 614 922 614 905 614 c 0,4,5
 889 615 889 615 886 615 c 0,6,7
 784 615 784 615 697 516 c 0,8,9
 649 461 649 461 578 328 c 1,10,11
 634 332 634 332 685 358 c 0,12,13
 733 382 733 382 737 382 c 2,14,-1
 769 380 l 1,15,16
 677 295 677 295 625 211 c 1,17,-1
 618 216 l 1,18,-1
 674 327 l 1,19,20
 630 322 630 322 572 320 c 1,21,22
 484 162 484 162 405 91 c 0,23,24
 296 -8 296 -8 148 -8 c 0,25,26
 86 -8 86 -8 41 21 c 0,27,28
 -12 54 -12 54 -12 113 c 0,29,30
 -12 135 -12 135 0 151 c 128,-1,31
 12 167 12 167 33 167 c 0,32,33
 70 167 70 167 70 129 c 0,34,35
 70 107 70 107 41 94 c 1,36,-1
 29 98 l 1,37,38
 41 -1 41 -1 163 -1 c 0,39,40
 269 -1 269 -1 372 113 c 0,41,42
 436 184 436 184 511 319 c 1,43,-1
 469 321 l 1,44,-1
 472 328 l 1,45,-1
 515 328 l 1,46,47
 583 446 583 446 642 507 c 0,48,49
 724 594 724 594 826 620 c 1,50,-1
 657 623 l 2,51,52
 474 626 474 626 337 591 c 0,53,54
 123 535 123 535 123 398 c 0,55,56
 123 349 123 349 168 321 c 0,57,58
 207 297 207 297 259 297 c 0,59,60
 341 297 341 297 413 347 c 0,61,62
 492 402 492 402 492 478 c 0,63,64
 492 503 492 503 482 529 c 1,65,-1
 488 531 l 1,66,67
 501 503 501 503 501 482 c 0,68,69
 501 397 501 397 418 335 c 0,70,71
 342 278 342 278 254 278 c 0,72,73
 196 278 196 278 158 305 c 0,74,75
 114 336 114 336 114 391 c 0,76,77
 114 541 114 541 336 618 c 0,78,79
 494 672 494 672 681 672 c 0,80,81
 737 672 737 672 824 670 c 0,82,83
 944 668 944 668 967 668 c 0,84,85
 1018 667 1018 667 1018 646 c 0,0,1
EndSplineSet
EndChar

StartChar: G
Encoding: 71 71 42
Width: 773
Flags: W
LayerCount: 2
Back
Fore
SplineSet
772 630 m 0,0,1
 772 574 772 574 698 541 c 0,2,3
 640 515 640 515 577 515 c 0,4,5
 454 515 454 515 394 580 c 1,6,7
 328 525 328 525 281 455 c 0,8,9
 223 370 223 370 223 300 c 0,10,11
 223 262 223 262 245.5 233 c 128,-1,12
 268 204 268 204 305 204 c 0,13,14
 377 204 377 204 428 254 c 0,15,16
 439 265 439 265 498 347 c 0,17,18
 534 397 534 397 569 397 c 1,19,-1
 589 386 l 1,20,21
 588 374 588 374 560 337 c 0,22,23
 522 287 522 287 522 287 c 1,24,25
 428 136 428 136 372 82 c 0,26,27
 272 -14 272 -14 143 -14 c 0,28,29
 82 -14 82 -14 36 19 c 0,30,31
 -15 56 -15 56 -15 115 c 0,32,33
 -15 141 -15 141 -2 161.5 c 128,-1,34
 11 182 11 182 36 182 c 0,35,36
 76 182 76 182 76 146 c 0,37,38
 76 111 76 111 38 111 c 0,39,40
 30 111 30 111 22 114 c 1,41,-1
 20 96 l 1,42,43
 20 49 20 49 60 21 c 0,44,45
 96 -5 96 -5 145 -5 c 0,46,47
 232 -5 232 -5 323 90 c 0,48,49
 374 144 374 144 448 259 c 1,50,51
 354 189 354 189 277 189 c 0,52,53
 226 189 226 189 192.5 219 c 128,-1,54
 159 249 159 249 159 299 c 0,55,56
 159 381 159 381 232 473 c 0,57,58
 291 548 291 548 374 603 c 1,59,60
 348 636 348 636 348 680 c 0,61,62
 348 747 348 747 405 786 c 1,63,-1
 410 780 l 1,64,65
 356 742 356 742 356 680 c 0,66,67
 356 637 356 637 381 607 c 1,68,69
 528 699 528 699 660 699 c 0,70,71
 772 699 772 699 772 630 c 0,0,1
732 641 m 0,72,73
 732 692 732 692 656 692 c 0,74,75
 534 692 534 692 399 585 c 1,76,77
 459 525 459 525 558 525 c 0,78,79
 617 525 617 525 669 553 c 0,80,81
 732 587 732 587 732 641 c 0,72,73
EndSplineSet
EndChar

StartChar: H
Encoding: 72 72 43
Width: 1084
Flags: W
LayerCount: 2
Back
Fore
SplineSet
1075 655 m 0,0,1
 1075 648 1075 648 1063 634 c 128,-1,2
 1051 620 1051 620 1044 620 c 0,3,4
 1028 620 1028 620 1013.5 648.5 c 128,-1,5
 999 677 999 677 974 677 c 0,6,7
 894 677 894 677 785 555 c 0,8,9
 688 447 688 447 612.5 298 c 128,-1,10
 537 149 537 149 537 66 c 0,11,12
 537 10 537 10 580 10 c 0,13,14
 669 10 669 10 848 268 c 1,15,-1
 855 264 l 1,16,17
 776 147 776 147 726 93 c 0,18,19
 628 -12 628 -12 549 -12 c 0,20,21
 473 -12 473 -12 473 78 c 0,22,23
 473 169 473 169 568 334 c 1,24,-1
 430 334 l 1,25,26
 347 186 347 186 283 115 c 0,27,28
 176 -5 176 -5 62 -5 c 0,29,30
 25 -5 25 -5 -3 8 c 0,31,32
 -39 25 -39 25 -39 58 c 0,33,34
 -39 76 -39 76 -27.5 87.5 c 128,-1,35
 -16 99 -16 99 2 99 c 0,36,37
 35 99 35 99 35 65 c 0,38,39
 35 57 35 57 23.5 44.5 c 128,-1,40
 12 32 12 32 4 35 c 1,41,42
 14 3 14 3 68 3 c 0,43,44
 154 3 154 3 258 162 c 0,45,46
 356 317 356 317 455 472 c 1,47,48
 589 650 589 650 740 684 c 1,49,50
 541 681 541 681 387 640 c 0,51,52
 144 574 144 574 144 431 c 0,53,54
 144 396 144 396 167 373 c 128,-1,55
 190 350 190 350 225 350 c 0,56,57
 287 350 287 350 331 386.5 c 128,-1,58
 375 423 375 423 375 478 c 0,59,60
 375 501 375 501 366 525 c 1,61,-1
 372 527 l 1,62,63
 385 492 385 492 385 476 c 0,64,65
 385 415 385 415 327 375 c 0,66,67
 276 339 276 339 212 339 c 0,68,69
 165 339 165 339 131 365 c 0,70,71
 94 393 94 393 94 439 c 0,72,73
 94 557 94 557 244 618 c 0,74,75
 348 660 348 660 554 680 c 0,76,77
 798 704 798 704 817 708 c 1,78,-1
 831 699 l 1,79,80
 824 693 824 693 767 679 c 0,81,82
 707 665 707 665 685 652 c 0,83,84
 613 610 613 610 543 514 c 0,85,86
 502 459 502 459 437 343 c 1,87,-1
 574 343 l 1,88,89
 653 467 653 467 764 568 c 0,90,91
 908 697 908 697 1020 697 c 0,92,93
 1075 697 1075 697 1075 655 c 0,0,1
EndSplineSet
EndChar

StartChar: I
Encoding: 73 73 44
Width: 910
Flags: W
LayerCount: 2
Back
Fore
SplineSet
938 676 m 1,0,1
 921 663 921 663 892 661 c 0,2,3
 867 660 867 660 842 659 c 0,4,5
 773 652 773 652 666 477 c 0,6,7
 508 217 508 217 458 157 c 0,8,9
 316 -13 316 -13 156 -13 c 0,10,11
 91 -13 91 -13 45 14 c 0,12,13
 -11 46 -11 46 -11 107 c 0,14,15
 -11 164 -11 164 33 164 c 0,16,17
 71 164 71 164 71 128 c 0,18,19
 71 106 71 106 43 91 c 1,20,-1
 33 92 l 1,21,22
 45 -6 45 -6 157 -6 c 0,23,24
 274 -6 274 -6 388 144 c 1,25,26
 486 294 486 294 585 443 c 0,27,28
 708 620 708 620 829 662 c 1,29,30
 646 660 646 660 496 619 c 0,31,32
 265 555 265 555 265 421 c 0,33,34
 265 384 265 384 289.5 357.5 c 128,-1,35
 314 331 314 331 351 331 c 0,36,37
 414 331 414 331 455.5 370 c 128,-1,38
 497 409 497 409 497 468 c 0,39,40
 497 486 497 486 493 504 c 1,41,-1
 500 507 l 1,42,43
 508 474 508 474 508 460 c 0,44,45
 508 400 508 400 452 360 c 0,46,47
 402 323 402 323 340 323 c 0,48,49
 288 323 288 323 253 353 c 128,-1,50
 218 383 218 383 218 434 c 0,51,52
 218 541 218 541 365 600 c 0,53,54
 471 643 471 643 667 664 c 0,55,56
 793 674 793 674 919 685 c 1,57,-1
 938 676 l 1,0,1
EndSplineSet
EndChar

StartChar: J
Encoding: 74 74 45
Width: 1012
Flags: W
LayerCount: 2
Back
Fore
SplineSet
1034 674 m 1,0,1
 1015 662 1015 662 983 658 c 0,2,3
 957 656 957 656 930 653 c 0,4,5
 872 644 872 644 706 378 c 1,6,7
 610 216 610 216 514 53 c 1,8,9
 698 94 698 94 812 262 c 1,10,-1
 819 259 l 1,11,12
 707 89 707 89 508 40 c 1,13,14
 319 -290 319 -290 82 -290 c 0,15,16
 20 -290 20 -290 -21 -263 c 0,17,18
 -70 -231 -70 -231 -70 -173 c 0,19,20
 -70 -91 -70 -91 34 -45 c 0,21,22
 109 -11 109 -11 253 9 c 0,23,24
 348 22 348 22 444 35 c 1,25,26
 586 298 586 298 641 380 c 0,27,28
 783 594 783 594 915 652 c 1,29,30
 723 645 723 645 585 605 c 0,31,32
 361 540 361 540 361 404 c 0,33,34
 361 367 361 367 384 343 c 128,-1,35
 407 319 407 319 444 319 c 0,36,37
 505 319 505 319 548.5 356.5 c 128,-1,38
 592 394 592 394 592 450 c 0,39,40
 592 469 592 469 586 489 c 1,41,-1
 592 491 l 1,42,43
 601 447 601 447 601 447 c 1,44,45
 601 384 601 384 544 343 c 0,46,47
 493 306 493 306 428 306 c 0,48,49
 380 306 380 306 347 337.5 c 128,-1,50
 314 369 314 369 314 417 c 0,51,52
 314 526 314 526 441 583 c 0,53,54
 532 624 532 624 704 642 c 0,55,56
 817 652 817 652 929 663 c 0,57,58
 939 665 939 665 973 675 c 0,59,60
 999 683 999 683 1018 683 c 1,61,62
 1018 683 1018 683 1034 674 c 1,0,1
438 26 m 1,63,64
 351 13 351 13 263 0 c 0,65,66
 135 -21 135 -21 67 -55 c 0,67,68
 -26 -101 -26 -101 -26 -179 c 0,69,70
 -26 -227 -26 -227 5.5 -254 c 128,-1,71
 37 -281 37 -281 86 -281 c 0,72,73
 189 -281 189 -281 294 -172 c 0,74,75
 358 -105 358 -105 438 26 c 1,63,64
EndSplineSet
EndChar

StartChar: K
Encoding: 75 75 46
Width: 1155
Flags: W
LayerCount: 2
Back
Fore
SplineSet
1116 644 m 0,0,1
 1116 598 1116 598 1063 598 c 1,2,3
 1075 621 1075 621 1075 634 c 0,4,5
 1075 655 1075 655 1062.5 670 c 128,-1,6
 1050 685 1050 685 1029 685 c 0,7,8
 984 685 984 685 913 599 c 0,9,10
 805 469 805 469 770 438 c 0,11,12
 670 351 670 351 558 350 c 1,13,14
 623 315 623 315 623 251 c 0,15,16
 623 215 623 215 588 136.5 c 128,-1,17
 553 58 553 58 553 31 c 0,18,19
 553 19 553 19 563 10 c 128,-1,20
 573 1 573 1 585 1 c 0,21,22
 673 1 673 1 891 265 c 1,23,-1
 898 261 l 1,24,25
 681 -10 681 -10 565 -10 c 0,26,27
 538 -10 538 -10 520 7 c 128,-1,28
 502 24 502 24 502 51 c 0,29,30
 502 90 502 90 544 172 c 128,-1,31
 586 254 586 254 586 291 c 0,32,33
 586 346 586 346 536 346 c 0,34,35
 527 346 527 346 518 344 c 1,36,-1
 502 355 l 1,37,-1
 515 361 l 1,38,39
 538 357 538 357 553 357 c 0,40,41
 625 357 625 357 715 445 c 1,42,43
 792 526 792 526 869 608 c 1,44,45
 962 696 962 696 1042 696 c 0,46,47
 1070 696 1070 696 1091 684 c 0,48,49
 1116 670 1116 670 1116 644 c 0,0,1
863 693 m 1,50,51
 863 679 863 679 824 674 c 0,52,53
 800 673 800 673 775 671 c 0,54,55
 690 663 690 663 584 508 c 1,56,57
 522 406 522 406 460 305 c 0,58,59
 371 162 371 162 299 90 c 0,60,61
 200 -10 200 -10 104 -10 c 0,62,63
 65 -10 65 -10 39 5 c 0,64,65
 7 23 7 23 7 59 c 0,66,67
 7 100 7 100 45 100 c 0,68,69
 79 100 79 100 79 65 c 0,70,71
 79 39 79 39 54 34 c 1,72,73
 66 -3 66 -3 109 -3 c 0,74,75
 192 -3 192 -3 297 156 c 1,76,77
 394 311 394 311 492 465 c 1,78,79
 622 642 622 642 756 674 c 1,80,81
 544 663 544 663 389 619 c 0,82,83
 131 547 131 547 131 405 c 0,84,85
 131 317 131 317 210 317 c 0,86,87
 266 317 266 317 314 357.5 c 128,-1,88
 362 398 362 398 362 453 c 0,89,90
 362 476 362 476 350 496 c 1,91,-1
 356 499 l 1,92,93
 373 476 373 476 373 449 c 0,94,95
 373 388 373 388 312 346 c 0,96,97
 258 308 258 308 195 308 c 0,98,99
 145 308 145 308 113 336 c 0,100,101
 78 365 78 365 78 414 c 0,102,103
 78 533 78 533 227 594 c 0,104,105
 329 635 329 635 532 656 c 0,106,107
 755 679 755 679 779 686 c 0,108,109
 832 701 832 701 848 701 c 1,110,111
 848 701 848 701 863 693 c 1,50,51
EndSplineSet
EndChar

StartChar: L
Encoding: 76 76 47
Width: 858
Flags: W
LayerCount: 2
Back
Fore
SplineSet
843 639 m 0,0,1
 843 536 843 536 695 480 c 0,2,3
 578 436 578 436 460 441 c 1,4,5
 374 285 374 285 310 203 c 0,6,7
 205 68 205 68 95 31 c 1,8,-1
 131 33 l 2,9,10
 188 36 188 36 229 12 c 0,11,12
 276 -16 276 -16 276 -69 c 0,13,14
 276 -78 276 -78 275 -87 c 1,15,16
 340 -5 340 -5 446 95 c 0,17,18
 539 180 539 180 631 264 c 1,19,-1
 636 259 l 1,20,21
 539 169 539 169 442 80 c 0,22,23
 303 -52 303 -52 270 -107 c 0,24,25
 253 -135 253 -135 244 -145 c 0,26,27
 226 -164 226 -164 203 -164 c 1,28,-1
 195 -157 l 1,29,-1
 220 -130 l 1,30,-1
 223 -105 l 1,31,32
 223 -50 223 -50 179 -13 c 128,-1,33
 135 24 135 24 79 24 c 0,34,35
 60 24 60 24 14.5 6 c 128,-1,36
 -31 -12 -31 -12 -56 -12 c 0,37,38
 -74 -12 -74 -12 -81 -2 c 1,39,40
 -81 20 -81 20 -7 28 c 0,41,42
 37 30 37 30 81 33 c 0,43,44
 155 43 155 43 265 211 c 1,45,46
 337 331 337 331 409 450 c 1,47,48
 349 459 349 459 305 496 c 0,49,50
 255 538 255 538 255 595 c 0,51,52
 255 643 255 643 286 671 c 128,-1,53
 317 699 317 699 366 699 c 0,54,55
 395 699 395 699 425 684 c 1,56,-1
 422 677 l 1,57,58
 395 691 395 691 363 691 c 0,59,60
 322 691 322 691 293.5 662 c 128,-1,61
 265 633 265 633 265 591 c 0,62,63
 265 538 265 538 314 500 c 0,64,65
 357 466 357 466 413 458 c 1,66,67
 475 555 475 555 563 623 c 0,68,69
 668 703 668 703 767 703 c 0,70,71
 799 703 799 703 821 686.5 c 128,-1,72
 843 670 843 670 843 639 c 0,0,1
809 632 m 0,73,74
 809 658 809 658 793.5 675 c 128,-1,75
 778 692 778 692 753 692 c 0,76,77
 675 692 675 692 585 603 c 0,78,79
 521 540 521 540 465 449 c 1,80,81
 477 448 477 448 498 448 c 0,82,83
 598 448 598 448 692 491 c 0,84,85
 809 544 809 544 809 632 c 0,73,74
EndSplineSet
EndChar

StartChar: M
Encoding: 77 77 48
Width: 993
Flags: W
LayerCount: 2
Back
Fore
SplineSet
1080 692 m 1,0,-1
 1061 681 l 1,1,-1
 999 688 l 1,2,3
 890 642 890 642 805 484 c 1,4,5
 736 345 736 345 668 205 c 1,6,7
 581 52 581 52 466 10 c 1,8,9
 602 10 602 10 698 78 c 0,10,11
 783 138 783 138 855 266 c 1,12,-1
 863 262 l 1,13,14
 776 103 776 103 678 52 c 0,15,16
 601 12 601 12 408 -3 c 1,17,-1
 390 7 l 1,18,-1
 402 15 l 1,19,-1
 449 10 l 1,20,21
 536 51 536 51 607 194 c 0,22,23
 672 328 672 328 736 461 c 1,24,25
 828 616 828 616 962 683 c 1,26,-1
 961 687 l 1,27,28
 801 655 801 655 657 495 c 0,29,30
 603 434 603 434 440 197 c 0,31,32
 323 27 323 27 244 -9 c 1,33,-1
 239 -4 l 1,34,35
 304 82 304 82 343 228 c 0,36,37
 394 420 394 420 412 462 c 0,38,39
 468 591 468 591 589 673 c 1,40,-1
 588 675 l 1,41,42
 444 631 444 631 315 451 c 1,43,44
 218 297 218 297 121 144 c 1,45,46
 16 -10 16 -10 -81 -10 c 0,47,48
 -151 -10 -151 -10 -151 39 c 0,49,50
 -151 80 -151 80 -117 79 c 1,51,-1
 -88 51 l 1,52,53
 -87 37 -87 37 -95.5 27.5 c 128,-1,54
 -104 18 -104 18 -118 19 c 1,55,56
 -75 8 -75 8 -75 8 c 1,57,58
 27 8 27 8 127 167 c 128,-1,59
 227 326 227 326 327 483 c 1,60,61
 471 666 471 666 666 705 c 1,62,-1
 668 701 l 1,63,64
 552 659 552 659 488 529 c 0,65,66
 462 478 462 478 400 276 c 0,67,68
 350 113 350 113 289 39 c 1,69,-1
 291 38 l 1,70,71
 375 109 375 109 507 303 c 0,72,73
 642 503 642 503 724 577 c 0,74,75
 863 703 863 703 1039 703 c 0,76,77
 1068 703 1068 703 1080 692 c 1,0,-1
EndSplineSet
EndChar

StartChar: N
Encoding: 78 78 49
Width: 910
Flags: W
LayerCount: 2
Back
Fore
SplineSet
972 626 m 0,0,1
 972 564 972 564 889 529 c 1,2,-1
 885 533 l 1,3,4
 926 549 926 549 926 598 c 0,5,6
 926 657 926 657 871 657 c 0,7,8
 699 657 699 657 412 -12 c 1,9,-1
 405 -10 l 1,10,11
 416 40 416 40 416 99 c 0,12,13
 416 163 416 163 397.5 290.5 c 128,-1,14
 379 418 379 418 379 482 c 0,15,16
 379 527 379 527 386 566 c 1,17,18
 281 334 281 334 209 221 c 0,19,20
 61 -8 61 -8 -73 -8 c 0,21,22
 -101 -8 -101 -8 -121 4 c 0,23,24
 -144 18 -144 18 -144 44 c 0,25,26
 -144 52 -144 52 -131 66.5 c 128,-1,27
 -118 81 -118 81 -110 81 c 0,28,29
 -76 81 -76 81 -76 50 c 0,30,31
 -76 36 -76 36 -87 26 c 1,32,33
 -62 11 -62 11 -44 11 c 0,34,35
 54 11 54 11 174 189 c 0,36,37
 248 298 248 298 353 519 c 0,38,39
 437 697 437 697 450 698 c 1,40,-1
 455 694 l 1,41,42
 429 659 429 659 429 592 c 0,43,44
 429 528 429 528 445.5 400 c 128,-1,45
 462 272 462 272 462 208 c 0,46,47
 462 155 462 155 446 91 c 1,48,-1
 447 90 l 1,49,50
 530 290 530 290 626 442 c 0,51,52
 781 689 781 689 905 689 c 0,53,54
 972 689 972 689 972 626 c 0,0,1
EndSplineSet
EndChar

StartChar: O
Encoding: 79 79 50
Width: 705
Flags: W
LayerCount: 2
Back
Fore
SplineSet
737 256 m 1,0,1
 665 191 665 191 576 191 c 0,2,3
 533 191 533 191 493 209 c 1,4,5
 426 120 426 120 352 63 c 0,6,7
 255 -13 255 -13 169 -13 c 0,8,9
 28 -13 28 -13 28 153 c 0,10,11
 28 361 28 361 235 546 c 0,12,13
 275 582 275 582 331 609 c 0,14,15
 381 634 381 634 431 658 c 0,16,17
 452 671 452 671 472.5 682.5 c 128,-1,18
 493 694 493 694 520 694 c 0,19,20
 572 694 572 694 600 652 c 0,21,22
 625 616 625 616 625 562 c 0,23,24
 625 394 625 394 498 216 c 1,25,26
 533 199 533 199 576 199 c 0,27,28
 662 199 662 199 732 262 c 1,29,-1
 737 256 l 1,0,1
578 560 m 0,30,31
 578 683 578 683 505 683 c 0,32,33
 473 683 473 683 443 660 c 1,34,35
 483 660 483 660 510 639 c 128,-1,36
 537 618 537 618 537 579 c 0,37,38
 537 573 537 573 535 553 c 1,39,-1
 529 554 l 1,40,-1
 530 575 l 2,41,42
 532 609 532 609 510 631.5 c 128,-1,43
 488 654 488 654 454 652 c 2,44,-1
 434 651 l 1,45,46
 357 571 357 571 357 451 c 0,47,48
 357 311 357 311 474 227 c 1,49,50
 578 418 578 418 578 560 c 0,30,31
469 220 m 1,51,52
 341 305 341 305 341 448 c 0,53,54
 341 565 341 565 424 649 c 1,55,56
 296 610 296 610 190 447 c 0,57,58
 88 291 88 291 88 152 c 0,59,60
 88 3 88 3 204 3 c 0,61,62
 274 3 274 3 357 82 c 0,63,64
 418 140 418 140 469 220 c 1,51,52
EndSplineSet
EndChar

StartChar: P
Encoding: 80 80 51
Width: 907
Flags: W
LayerCount: 2
Back
Fore
SplineSet
918 716 m 1,0,1
 855 707 855 707 805 683 c 1,2,3
 885 646 885 646 885 556 c 0,4,5
 885 476 885 476 821.5 416.5 c 128,-1,6
 758 357 758 357 677 357 c 0,7,8
 608 357 608 357 608 404 c 0,9,10
 608 439 608 439 642 439 c 1,11,12
 642 439 642 439 675 425 c 1,13,14
 662 395 662 395 662 395 c 2,15,16
 662 387 662 387 671.5 376 c 128,-1,17
 681 365 681 365 689 365 c 0,18,19
 740 365 740 365 787 447 c 0,20,21
 830 520 830 520 830 577 c 0,22,23
 830 645 830 645 789 672 c 1,24,25
 703 618 703 618 602 456 c 0,26,27
 443 202 443 202 432 186 c 0,28,29
 327 47 327 47 215 23 c 1,30,31
 302 9 302 9 363 9 c 0,32,33
 643 9 643 9 810 267 c 1,34,-1
 816 264 l 1,35,36
 734 133 734 133 642 69 c 0,37,38
 535 -6 535 -6 395 -6 c 0,39,40
 362 -6 362 -6 297 6.5 c 128,-1,41
 232 19 232 19 202 19 c 0,42,43
 181 19 181 19 135 9 c 128,-1,44
 89 -1 89 -1 65 -1 c 0,45,46
 -58 -1 -58 -1 -59 36 c 1,47,48
 -49 53 -49 53 -28 53 c 0,49,50
 10 53 10 53 84 39.5 c 128,-1,51
 158 26 158 26 195 26 c 0,52,53
 253 26 253 26 356 170 c 1,54,55
 454 315 454 315 552 460 c 1,56,57
 677 633 677 633 773 681 c 1,58,59
 720 697 720 697 668 697 c 0,60,61
 495 697 495 697 336 595 c 0,62,63
 157 479 157 479 157 316 c 0,64,65
 157 268 157 268 178 239 c 0,66,67
 202 205 202 205 247 205 c 0,68,69
 327 205 327 205 376 278 c 0,70,71
 418 342 418 342 418 426 c 0,72,73
 418 440 418 440 417 453 c 1,74,-1
 424 453 l 1,75,76
 428 427 428 427 428 407 c 0,77,78
 428 328 428 328 373 264 c 0,79,80
 316 197 316 197 238 197 c 0,81,82
 186 197 186 197 155.5 231 c 128,-1,83
 125 265 125 265 125 317 c 0,84,85
 125 424 125 424 220 519 c 0,86,87
 303 601 303 601 434 654 c 0,88,89
 557 703 557 703 661 703 c 0,90,91
 729 703 729 703 788 688 c 1,92,93
 853 716 853 716 918 723 c 1,94,-1
 918 716 l 1,0,1
EndSplineSet
EndChar

StartChar: Q
Encoding: 81 81 52
Width: 788
Flags: W
LayerCount: 2
Back
Fore
SplineSet
782 262 m 1,0,1
 704 145 704 145 615 70 c 0,2,3
 498 -29 498 -29 388 -29 c 0,4,5
 319 -29 319 -29 180 32 c 1,6,7
 82 -4 82 -4 13 -4 c 0,8,9
 -66 -4 -66 -4 -66 26 c 0,10,11
 -66 54 -66 54 -5 72 c 0,12,13
 41 85 41 85 77 85 c 0,14,15
 151 85 151 85 230 64 c 1,16,17
 395 149 395 149 510 258 c 0,18,19
 666 406 666 406 666 548 c 0,20,21
 666 610 666 610 634.5 647.5 c 128,-1,22
 603 685 603 685 542 685 c 0,23,24
 442 685 442 685 366 615 c 0,25,26
 287 543 287 543 287 444 c 0,27,28
 287 392 287 392 313.5 361 c 128,-1,29
 340 330 340 330 391 330 c 0,30,31
 485 330 485 330 557 410 c 1,32,-1
 563 405 l 1,33,34
 492 320 492 320 392 320 c 0,35,36
 335 320 335 320 297 354 c 0,37,38
 256 389 256 389 256 445 c 0,39,40
 256 554 256 554 363 629 c 0,41,42
 459 696 459 696 572 696 c 0,43,44
 643 696 643 696 687 661 c 0,45,46
 734 622 734 622 734 553 c 0,47,48
 734 412 734 412 549 257 c 0,49,50
 419 147 419 147 241 61 c 1,51,52
 352 25 352 25 430 25 c 0,53,54
 540 25 540 25 632 99 c 0,55,56
 700 153 700 153 776 266 c 1,57,-1
 782 262 l 1,0,1
170 37 m 1,58,59
 107 61 107 61 46 61 c 0,60,61
 19 61 19 61 -12 54 c 0,62,63
 -55 44 -55 44 -55 26 c 0,64,65
 -55 5 -55 5 16 5 c 0,66,67
 59 5 59 5 170 37 c 1,58,59
EndSplineSet
EndChar

StartChar: R
Encoding: 82 82 53
Width: 943
Flags: W
LayerCount: 2
Back
Fore
SplineSet
917 259 m 1,0,1
 851 160 851 160 783 91 c 0,2,3
 682 -12 682 -12 604 -12 c 0,4,5
 575 -12 575 -12 556.5 9 c 128,-1,6
 538 30 538 30 538 60 c 0,7,8
 538 99 538 99 573 177 c 128,-1,9
 608 255 608 255 608 294 c 0,10,11
 608 350 608 350 532 352 c 1,12,-1
 537 363 l 1,13,14
 573 357 573 357 573 357 c 1,15,16
 654 357 654 357 711.5 417.5 c 128,-1,17
 769 478 769 478 769 559 c 0,18,19
 769 610 769 610 731 643 c 1,20,21
 649 594 649 594 542 417 c 0,22,23
 396 178 396 178 358 131 c 0,24,25
 244 -10 244 -10 122 -10 c 0,26,27
 85 -10 85 -10 59 4 c 0,28,29
 26 21 26 21 26 55 c 0,30,31
 26 99 26 99 63 99 c 256,32,33
 100 99 100 99 100 65 c 0,34,35
 100 58 100 58 91 47.5 c 128,-1,36
 82 37 82 37 74 34 c 1,37,38
 86 -2 86 -2 132 -2 c 0,39,40
 199 -2 199 -2 306 144 c 1,41,42
 405 291 405 291 504 438 c 0,43,44
 625 613 625 613 709 659 c 1,45,46
 645 686 645 686 567 686 c 0,47,48
 408 686 408 686 264 594 c 0,49,50
 101 490 101 490 101 339 c 0,51,52
 101 291 101 291 131 254.5 c 128,-1,53
 161 218 161 218 209 218 c 0,54,55
 295 218 295 218 348 306 c 0,56,57
 395 384 395 384 388 472 c 1,58,-1
 395 473 l 1,59,-1
 397 439 l 2,60,61
 402 349 402 349 341 278 c 128,-1,62
 280 207 280 207 189 207 c 0,63,64
 130 207 130 207 98.5 242 c 128,-1,65
 67 277 67 277 67 336 c 0,66,67
 67 491 67 491 249 600 c 0,68,69
 407 695 407 695 573 695 c 0,70,71
 668 695 668 695 734 669 c 1,72,73
 802 702 802 702 856 704 c 1,74,-1
 858 698 l 1,75,76
 810 691 810 691 752 661 c 1,77,78
 824 616 824 616 824 535 c 0,79,80
 824 444 824 444 744 393 c 0,81,82
 675 350 675 350 579 350 c 1,83,84
 612 343 612 343 631.5 316 c 128,-1,85
 651 289 651 289 651 254 c 0,86,87
 651 215 651 215 621 139.5 c 128,-1,88
 591 64 591 64 591 24 c 0,89,90
 591 18 591 18 603 9 c 128,-1,91
 615 0 615 0 621 0 c 0,92,93
 683 0 683 0 784 105 c 0,94,95
 857 181 857 181 909 262 c 1,96,-1
 917 259 l 1,0,1
EndSplineSet
EndChar

StartChar: S
Encoding: 83 83 54
Width: 846
Flags: W
LayerCount: 2
Back
Fore
SplineSet
823 613 m 0,0,1
 823 589 823 589 800 566.5 c 128,-1,2
 777 544 777 544 753 544 c 2,3,-1
 745 545 l 1,4,5
 769 579 769 579 769 613 c 256,6,7
 769 647 769 647 747 667 c 128,-1,8
 725 687 725 687 691 687 c 0,9,10
 574 687 574 687 543 505 c 0,11,12
 516 337 516 337 489 168 c 1,13,14
 427 -14 427 -14 236 -14 c 0,15,16
 149 -14 149 -14 89 30 c 0,17,18
 23 79 23 79 23 163 c 0,19,20
 23 198 23 198 37 223 c 0,21,22
 54 255 54 255 86 255 c 0,23,24
 125 255 125 255 125 216 c 0,25,26
 125 184 125 184 93 184 c 0,27,28
 82 184 82 184 71 189 c 1,29,30
 54 173 54 173 54 139 c 0,31,32
 54 70 54 70 107 30 c 0,33,34
 156 -6 156 -6 227 -6 c 0,35,36
 392 -6 392 -6 438 176 c 1,37,38
 465 345 465 345 492 515 c 1,39,40
 539 697 539 697 704 697 c 0,41,42
 748 697 748 697 782 678 c 0,43,44
 823 654 823 654 823 613 c 0,0,1
EndSplineSet
EndChar

StartChar: T
Encoding: 84 84 55
Width: 926
Flags: W
LayerCount: 2
Back
Fore
SplineSet
921 646 m 0,0,1
 921 622 921 622 865 616 c 0,2,3
 851 615 851 615 790 615 c 0,4,5
 670 615 670 615 559 452 c 1,6,7
 461 300 461 300 362 148 c 1,8,9
 231 -15 231 -15 62 -15 c 0,10,11
 0 -15 0 -15 -49 14 c 0,12,13
 -108 49 -108 49 -108 107 c 0,14,15
 -108 130 -108 130 -95 147 c 128,-1,16
 -82 164 -82 164 -60 164 c 0,17,18
 -44 164 -44 164 -33 152 c 128,-1,19
 -22 140 -22 140 -22 124 c 0,20,21
 -22 104 -22 104 -37 98 c 0,22,23
 -40 97 -40 97 -67 94 c 1,24,25
 -67 52 -67 52 -22 21 c 0,26,27
 19 -6 19 -6 63 -6 c 0,28,29
 187 -6 187 -6 299 141 c 1,30,31
 393 283 393 283 487 426 c 1,32,33
 605 590 605 590 734 618 c 1,34,-1
 637 619 l 2,35,36
 24 625 24 625 24 390 c 0,37,38
 24 333 24 333 77 300 c 0,39,40
 121 273 121 273 182 273 c 0,41,42
 283 273 283 273 344 332 c 128,-1,43
 405 391 405 391 405 491 c 1,44,-1
 413 491 l 1,45,-1
 414 475 l 2,46,47
 420 376 420 376 345 313 c 0,48,49
 274 254 274 254 171 254 c 0,50,51
 106 254 106 254 62 286 c 0,52,53
 13 321 13 321 13 384 c 0,54,55
 13 552 13 552 268 626 c 0,56,57
 439 675 439 675 657 672 c 2,58,-1
 889 669 l 2,59,60
 896 669 896 669 908.5 661 c 128,-1,61
 921 653 921 653 921 646 c 0,0,1
EndSplineSet
EndChar

StartChar: U
Encoding: 85 85 56
Width: 840
Flags: W
LayerCount: 2
Back
Fore
SplineSet
808 683 m 1,0,1
 708 534 708 534 608 386 c 1,2,3
 435 116 435 116 435 49 c 0,4,5
 435 30 435 30 449 16 c 128,-1,6
 463 2 463 2 482 2 c 0,7,8
 545 2 545 2 652 109 c 0,9,10
 729 185 729 185 787 268 c 1,11,-1
 793 263 l 1,12,13
 600 -11 600 -11 464 -11 c 0,14,15
 427 -11 427 -11 406 11.5 c 128,-1,16
 385 34 385 34 385 71 c 0,17,18
 385 115 385 115 421 174 c 1,19,20
 360 104 360 104 297 56 c 0,21,22
 209 -10 209 -10 143 -10 c 0,23,24
 73 -10 73 -10 73 64 c 0,25,26
 73 117 73 117 153 243 c 1,27,28
 228 353 228 353 303 463 c 0,29,30
 383 585 383 585 383 629 c 0,31,32
 383 687 383 687 329 687 c 0,33,34
 240 687 240 687 146 604 c 0,35,36
 49 519 49 519 49 431 c 0,37,38
 49 401 49 401 67.5 378 c 128,-1,39
 86 355 86 355 116 355 c 0,40,41
 166 355 166 355 237 432 c 1,42,-1
 241 428 l 1,43,44
 182 343 182 343 112 343 c 0,45,46
 80 343 80 343 56.5 368 c 128,-1,47
 33 393 33 393 33 425 c 0,48,49
 33 524 33 524 139 613 c 0,50,51
 241 698 241 698 342 698 c 0,52,53
 434 698 434 698 434 615 c 0,54,55
 434 571 434 571 354 446 c 0,56,57
 280 333 280 333 205 221 c 0,58,59
 125 94 125 94 125 47 c 0,60,61
 125 30 125 30 138.5 17.5 c 128,-1,62
 152 5 152 5 169 5 c 0,63,64
 260 5 260 5 396 164 c 0,65,66
 495 278 495 278 615 472 c 0,67,68
 677 576 677 576 738 679 c 1,69,-1
 808 683 l 1,0,1
EndSplineSet
EndChar

StartChar: V
Encoding: 86 86 57
Width: 769
Flags: W
LayerCount: 2
Back
Fore
SplineSet
766 624 m 0,0,1
 766 513 766 513 637 377 c 0,2,3
 538 274 538 274 361 152 c 0,4,5
 318 123 318 123 106 -12 c 1,6,-1
 100 -4 l 1,7,8
 151 73 151 73 206 227 c 0,9,10
 271 406 271 406 301 466 c 0,11,12
 365 591 365 591 461 655 c 1,13,14
 429 638 429 638 305 602 c 0,15,16
 191 569 191 569 141 535 c 0,17,18
 65 484 65 484 65 402 c 0,19,20
 65 375 65 375 80.5 355 c 128,-1,21
 96 335 96 335 122 335 c 0,22,23
 170 335 170 335 199 366.5 c 128,-1,24
 228 398 228 398 228 444 c 0,25,26
 228 456 228 456 226 468 c 1,27,-1
 232 470 l 1,28,29
 236 436 236 436 236 436 c 1,30,31
 236 390 236 390 200.5 357.5 c 128,-1,32
 165 325 165 325 119 325 c 0,33,34
 82 325 82 325 57 351.5 c 128,-1,35
 32 378 32 378 32 416 c 0,36,37
 32 495 32 495 127 548 c 0,38,39
 186 582 186 582 327 623 c 0,40,41
 465 664 465 664 504 687 c 1,42,-1
 510 679 l 1,43,44
 431 630 431 630 370 495 c 1,45,46
 322 369 322 369 273 243 c 0,47,48
 214 93 214 93 146 25 c 1,49,50
 393 179 393 179 492 266 c 0,51,52
 688 437 688 437 707 609 c 1,53,54
 680 613 680 613 680 644 c 0,55,56
 680 661 680 661 691.5 673 c 128,-1,57
 703 685 703 685 720 685 c 0,58,59
 742 685 742 685 754 666 c 128,-1,60
 766 647 766 647 766 624 c 0,0,1
EndSplineSet
EndChar

StartChar: W
Encoding: 87 87 58
Width: 1016
Flags: W
LayerCount: 2
Back
Fore
SplineSet
1000 635 m 0,0,1
 1000 519 1000 519 878 395 c 0,2,3
 806 323 806 323 622 192 c 2,4,-1
 472 86 l 2,5,6
 408 40 408 40 371 -9 c 1,7,-1
 365 -2 l 1,8,9
 418 83 418 83 472 232 c 0,10,11
 539 417 539 417 565 472 c 1,12,13
 517 402 517 402 336 211 c 0,14,15
 143 7 143 7 96 -10 c 1,16,-1
 86 -4 l 1,17,18
 142 60 142 60 204 221 c 0,19,20
 288 443 288 443 308 484 c 0,21,22
 376 621 376 621 463 660 c 1,23,24
 385 635 385 635 307 609 c 0,25,26
 195 572 195 572 139 533 c 0,27,28
 60 479 60 479 60 407 c 0,29,30
 60 377 60 377 77.5 354.5 c 128,-1,31
 95 332 95 332 125 332 c 0,32,33
 166 332 166 332 196 365.5 c 128,-1,34
 226 399 226 399 226 440 c 0,35,36
 226 453 226 453 223 464 c 1,37,-1
 229 466 l 1,38,39
 234 435 234 435 234 435 c 1,40,41
 234 390 234 390 197 357.5 c 128,-1,42
 160 325 160 325 114 325 c 0,43,44
 31 325 31 325 31 412 c 0,45,46
 31 488 31 488 126 546 c 0,47,48
 191 586 191 586 325 628 c 0,49,50
 480 676 480 676 503 687 c 1,51,-1
 509 679 l 1,52,53
 424 625 424 625 369 505 c 0,54,55
 359 481 359 481 290 282 c 0,56,57
 243 147 243 147 188 84 c 1,58,59
 447 313 447 313 584 512 c 1,60,61
 606 552 606 552 660 626 c 1,62,63
 704 672 704 672 757 692 c 1,64,-1
 769 682 l 1,65,66
 753 657 753 657 710.5 613.5 c 128,-1,67
 668 570 668 570 651 541 c 0,68,69
 616 480 616 480 580 378 c 0,70,71
 532 238 532 238 521 210 c 0,72,73
 482 118 482 118 429 57 c 1,74,75
 527 122 527 122 622 192 c 0,76,77
 939 429 939 429 939 609 c 1,78,-1
 938 620 l 1,79,80
 915 635 915 635 915 651 c 256,81,82
 915 667 915 667 927 678.5 c 128,-1,83
 939 690 939 690 955 690 c 0,84,85
 976 690 976 690 988 673.5 c 128,-1,86
 1000 657 1000 657 1000 635 c 0,0,1
EndSplineSet
EndChar

StartChar: X
Encoding: 88 88 59
Width: 918
Flags: W
LayerCount: 2
Back
Fore
SplineSet
977 642 m 0,0,1
 977 607 977 607 944 607 c 1,2,3
 944 607 944 607 914 622 c 1,4,-1
 915 637 l 2,5,6
 917 673 917 673 861 673 c 0,7,8
 760 673 760 673 655 573 c 0,9,10
 562 484 562 484 498 352 c 128,-1,11
 434 220 434 220 434 122 c 0,12,13
 434 79 434 79 447 48 c 0,14,15
 465 6 465 6 502 6 c 0,16,17
 629 6 629 6 813 266 c 1,18,-1
 820 262 l 1,19,20
 633 -12 633 -12 477 -12 c 0,21,22
 375 -12 375 -12 375 113 c 0,23,24
 375 161 375 161 394 229 c 1,25,26
 323 126 323 126 235 64 c 0,27,28
 131 -10 131 -10 22 -10 c 0,29,30
 -73 -10 -73 -10 -73 54 c 0,31,32
 -73 97 -73 97 -36 97 c 0,33,34
 -21 97 -21 97 -10.5 86 c 128,-1,35
 0 75 0 75 0 60 c 1,36,37
 0 60 0 60 -17 25 c 1,38,39
 1 0 1 0 45 0 c 0,40,41
 148 0 148 0 257 98 c 0,42,43
 355 187 355 187 422 318.5 c 128,-1,44
 489 450 489 450 489 550 c 0,45,46
 489 609 489 609 463 643 c 0,47,48
 434 681 434 681 377 681 c 0,49,50
 283 681 283 681 211 590 c 0,51,52
 143 505 143 505 143 408 c 0,53,54
 143 357 143 357 165 324 c 0,55,56
 190 284 190 284 238 284 c 0,57,58
 288 284 288 284 332 325 c 0,59,60
 371 360 371 360 392 411 c 1,61,-1
 399 410 l 1,62,63
 374 352 374 352 330 313 c 0,64,65
 279 270 279 270 221 270 c 0,66,67
 167 270 167 270 137 308 c 0,68,69
 110 342 110 342 110 398 c 0,70,71
 110 510 110 510 201.5 602 c 128,-1,72
 293 694 293 694 405 694 c 0,73,74
 545 694 545 694 545 547 c 0,75,76
 545 494 545 494 528 449 c 1,77,78
 706 687 706 687 888 687 c 0,79,80
 977 687 977 687 977 642 c 0,0,1
EndSplineSet
EndChar

StartChar: Y
Encoding: 89 89 60
Width: 968
Flags: W
LayerCount: 2
Back
Fore
SplineSet
967 678 m 1,0,-1
 516 -18 l 2,1,2
 340 -289 340 -289 136 -289 c 0,3,4
 72 -289 72 -289 26 -260 c 0,5,6
 -28 -225 -28 -225 -28 -165 c 0,7,8
 -28 -120 -28 -120 3 -86.5 c 128,-1,9
 34 -53 34 -53 79 -53 c 0,10,11
 130 -53 130 -53 168 -79 c 1,12,-1
 165 -85 l 1,13,14
 140 -67 140 -67 110 -67 c 0,15,16
 71 -67 71 -67 48.5 -95.5 c 128,-1,17
 26 -124 26 -124 26 -164 c 0,18,19
 26 -216 26 -216 59.5 -247.5 c 128,-1,20
 93 -279 93 -279 146 -279 c 0,21,22
 267 -279 267 -279 406 -92 c 1,23,24
 504 54 504 54 601 200 c 1,25,-1
 598 202 l 1,26,27
 414 -12 414 -12 285 -12 c 0,28,29
 253 -12 253 -12 234.5 10.5 c 128,-1,30
 216 33 216 33 216 66 c 0,31,32
 216 118 216 118 298 241 c 0,33,34
 374 351 374 351 451 461 c 0,35,36
 533 585 533 585 533 637 c 0,37,38
 533 684 533 684 478 684 c 0,39,40
 387 684 387 684 295.5 598 c 128,-1,41
 204 512 204 512 204 422 c 0,42,43
 204 394 204 394 219.5 374 c 128,-1,44
 235 354 235 354 263 354 c 0,45,46
 327 354 327 354 385 429 c 1,47,-1
 391 424 l 1,48,49
 328 344 328 344 260 344 c 0,50,51
 224 344 224 344 202 368.5 c 128,-1,52
 180 393 180 393 180 429 c 0,53,54
 180 526 180 526 290 612 c 0,55,56
 394 694 394 694 494 694 c 0,57,58
 532 694 532 694 557 674.5 c 128,-1,59
 582 655 582 655 582 618 c 0,60,61
 582 560 582 560 500 435 c 0,62,63
 425 326 425 326 349 216 c 0,64,65
 267 95 267 95 267 47 c 0,66,67
 267 1 267 1 310 1 c 0,68,69
 404 1 404 1 543 156 c 0,70,71
 644 268 644 268 767 461 c 0,72,73
 832 568 832 568 898 676 c 1,74,-1
 967 678 l 1,0,-1
EndSplineSet
EndChar

StartChar: Z
Encoding: 90 90 61
Width: 664
Flags: W
LayerCount: 2
Back
Fore
SplineSet
737 689 m 1,0,1
 736 683 736 683 673 633 c 0,2,3
 636 604 636 604 600 575 c 0,4,5
 453 445 453 445 307 315 c 0,6,7
 135 163 135 163 8 61 c 1,8,9
 96 108 96 108 145 108 c 0,10,11
 187 108 187 108 261.5 72.5 c 128,-1,12
 336 37 336 37 379 37 c 0,13,14
 459 37 459 37 541 118 c 0,15,16
 589 165 589 165 658 267 c 1,17,-1
 665 264 l 1,18,19
 597 159 597 159 525 89 c 0,20,21
 421 -11 421 -11 333 -11 c 0,22,23
 277 -11 277 -11 204 35 c 128,-1,24
 131 81 131 81 95 81 c 0,25,26
 45 81 45 81 8.5 48.5 c 128,-1,27
 -28 16 -28 16 -63 -15 c 1,28,-1
 -72 -7 l 1,29,30
 -72 5 -72 5 253.5 293.5 c 128,-1,31
 579 582 579 582 639 621 c 1,32,33
 545 575 545 575 482 575 c 0,34,35
 435 575 435 575 356 612 c 128,-1,36
 277 649 277 649 237 649 c 0,37,38
 185 649 185 649 149.5 610 c 128,-1,39
 114 571 114 571 114 519 c 0,40,41
 114 475 114 475 138.5 445 c 128,-1,42
 163 415 163 415 207 415 c 0,43,44
 258 415 258 415 299 465 c 1,45,-1
 306 461 l 1,46,47
 260 405 260 405 205 405 c 0,48,49
 159 405 159 405 130 433 c 128,-1,50
 101 461 101 461 101 507 c 0,51,52
 101 581 101 581 159 630 c 0,53,54
 214 677 214 677 290 677 c 0,55,56
 337 677 337 677 423.5 645 c 128,-1,57
 510 613 510 613 556 613 c 0,58,59
 613 613 613 613 652 641 c 128,-1,60
 691 669 691 669 730 698 c 1,61,-1
 737 689 l 1,0,1
EndSplineSet
EndChar

StartChar: bracketleft
Encoding: 91 91 62
Width: 507
Flags: W
LayerCount: 2
Back
Fore
SplineSet
622 660 m 1,0,-1
 619 647 l 1,1,-1
 476 647 l 1,2,-1
 -57 -199 l 1,3,-1
 83 -199 l 1,4,-1
 83 -211 l 1,5,-1
 -115 -211 l 1,6,-1
 433 660 l 1,7,-1
 622 660 l 1,0,-1
EndSplineSet
EndChar

StartChar: backslash
Encoding: 92 92 63
Width: 476
Flags: W
LayerCount: 2
Back
Fore
SplineSet
412 -91 m 1,0,-1
 364 -93 l 1,1,2
 219 311 219 311 64 711 c 1,3,-1
 112 713 l 1,4,5
 271 279 271 279 412 -91 c 1,0,-1
EndSplineSet
EndChar

StartChar: bracketright
Encoding: 93 93 64
Width: 507
Flags: W
LayerCount: 2
Back
Fore
SplineSet
623 660 m 1,0,-1
 74 -211 l 1,1,-1
 -115 -211 l 1,2,-1
 -112 -199 l 1,3,-1
 31 -199 l 1,4,-1
 564 647 l 1,5,-1
 424 647 l 1,6,-1
 424 660 l 1,7,-1
 623 660 l 1,0,-1
EndSplineSet
EndChar

StartChar: asciicircum
Encoding: 94 94 65
Width: 718
Flags: W
LayerCount: 2
Back
Fore
SplineSet
657 442 m 1,0,-1
 616 442 l 1,1,-1
 359 672 l 1,2,-1
 100 442 l 1,3,-1
 61 442 l 1,4,-1
 322 721 l 1,5,-1
 396 721 l 1,6,-1
 657 442 l 1,0,-1
EndSplineSet
EndChar

StartChar: underscore
Encoding: 95 95 66
Width: 450
Flags: W
LayerCount: 2
Back
Fore
SplineSet
475 -238 m 1,0,-1
 -25 -238 l 1,1,-1
 -25 -199 l 1,2,-1
 475 -199 l 1,3,-1
 475 -238 l 1,0,-1
EndSplineSet
EndChar

StartChar: grave
Encoding: 96 96 67
Width: 286
Flags: W
LayerCount: 2
Back
Fore
SplineSet
181 403 m 1,0,-1
 172 401 l 1,1,2
 152 488 152 488 145 514 c 0,3,4
 127 579 127 579 105 622 c 1,5,-1
 160 622 l 1,6,7
 180 494 180 494 181 403 c 1,0,-1
EndSplineSet
EndChar

StartChar: a
Encoding: 97 97 68
Width: 529
Flags: W
LayerCount: 2
Back
Fore
SplineSet
603 263 m 1,0,1
 407 -10 407 -10 307 -10 c 0,2,3
 285 -10 285 -10 269 4 c 128,-1,4
 253 18 253 18 253 40 c 0,5,6
 253 68 253 68 280 107 c 1,7,-1
 277 110 l 1,8,9
 242 66 242 66 200 34 c 0,10,11
 146 -6 146 -6 102 -6 c 0,12,13
 71 -6 71 -6 54.5 16 c 128,-1,14
 38 38 38 38 38 70 c 0,15,16
 38 154 38 154 132 249.5 c 128,-1,17
 226 345 226 345 310 345 c 0,18,19
 369 345 369 345 379 279 c 1,20,-1
 414 336 l 1,21,-1
 482 339 l 1,22,23
 432 272 432 272 376 185 c 0,24,25
 293 56 293 56 293 24 c 0,26,27
 293 2 293 2 317 2 c 0,28,29
 400 2 400 2 597 268 c 1,30,-1
 603 263 l 1,0,1
349 287 m 0,31,32
 349 338 349 338 309 338 c 0,33,34
 244 338 244 338 169 232 c 0,35,36
 98 132 98 132 98 62 c 0,37,38
 98 15 98 15 135 15 c 0,39,40
 196 15 196 15 274 119 c 0,41,42
 349 220 349 220 349 287 c 0,31,32
EndSplineSet
EndChar

StartChar: b
Encoding: 98 98 69
Width: 461
Flags: W
LayerCount: 2
Back
Fore
SplineSet
552 258 m 1,0,1
 504 194 504 194 439 194 c 0,2,3
 397 194 397 194 371 228 c 1,4,5
 337 144 337 144 257 72 c 0,6,7
 168 -6 168 -6 85 -6 c 0,8,9
 4 -6 4 -6 4 72 c 0,10,11
 4 131 4 131 176 394 c 0,12,13
 271 535 271 535 366 675 c 1,14,-1
 437 678 l 1,15,16
 335 538 335 538 219 358 c 0,17,18
 55 103 55 103 55 48 c 0,19,20
 55 3 55 3 97 3 c 0,21,22
 161 3 161 3 244 111 c 0,23,24
 324 214 324 214 324 281 c 0,25,26
 324 287 324 287 319 301 c 128,-1,27
 314 315 314 315 314 323 c 0,28,29
 314 349 314 349 339 349 c 0,30,31
 377 349 377 349 377 290 c 0,32,33
 377 280 377 280 376 264 c 128,-1,34
 375 248 375 248 375 243 c 0,35,36
 375 223 375 223 400 211 c 0,37,38
 421 201 421 201 442 201 c 0,39,40
 501 201 501 201 546 262 c 1,41,-1
 552 258 l 1,0,1
EndSplineSet
EndChar

StartChar: c
Encoding: 99 99 70
Width: 375
Flags: W
LayerCount: 2
Back
Fore
SplineSet
462 263 m 1,0,1
 386 156 386 156 303 83 c 0,2,3
 187 -19 187 -19 93 -19 c 0,4,5
 54 -19 54 -19 31.5 5.5 c 128,-1,6
 9 30 9 30 9 70 c 0,7,8
 9 160 9 160 105.5 254 c 128,-1,9
 202 348 202 348 292 348 c 0,10,11
 359 348 359 348 359 304 c 0,12,13
 359 286 359 286 342.5 273.5 c 128,-1,14
 326 261 326 261 307 261 c 2,15,16
 307 261 307 261 295 263 c 1,17,18
 303 286 303 286 303 300 c 0,19,20
 303 337 303 337 268 337 c 0,21,22
 208 337 208 337 138 232 c 0,23,24
 72 134 72 134 72 67 c 0,25,26
 72 2 72 2 129 2 c 0,27,28
 205 2 205 2 313 104 c 0,29,30
 388 175 388 175 455 269 c 1,31,-1
 462 263 l 1,0,1
EndSplineSet
EndChar

StartChar: d
Encoding: 100 100 71
Width: 479
Flags: W
LayerCount: 2
Back
Fore
SplineSet
699 683 m 1,0,1
 592 526 592 526 485 369 c 0,2,3
 282 64 282 64 282 24 c 0,4,5
 282 2 282 2 306 2 c 0,6,7
 389 2 389 2 586 268 c 1,8,-1
 592 263 l 1,9,10
 396 -10 396 -10 296 -10 c 0,11,12
 274 -10 274 -10 258 4 c 128,-1,13
 242 18 242 18 242 40 c 0,14,15
 242 68 242 68 269 107 c 1,16,-1
 266 110 l 1,17,18
 176 -6 176 -6 91 -6 c 0,19,20
 60 -6 60 -6 43.5 16 c 128,-1,21
 27 38 27 38 27 70 c 0,22,23
 27 154 27 154 121 249.5 c 128,-1,24
 215 345 215 345 299 345 c 0,25,26
 358 345 358 345 368 279 c 1,27,-1
 631 680 l 1,28,-1
 699 683 l 1,0,1
338 287 m 0,29,30
 338 337 338 337 298 337 c 0,31,32
 233 337 233 337 158 232 c 0,33,34
 87 133 87 133 87 62 c 0,35,36
 87 15 87 15 124 15 c 0,37,38
 185 15 185 15 263 119 c 0,39,40
 338 220 338 220 338 287 c 0,29,30
EndSplineSet
EndChar

StartChar: e
Encoding: 101 101 72
Width: 350
Flags: W
LayerCount: 2
Back
Fore
SplineSet
469 264 m 1,0,1
 398 158 398 158 313 84 c 0,2,3
 201 -13 201 -13 103 -13 c 0,4,5
 66 -13 66 -13 45.5 10 c 128,-1,6
 25 33 25 33 25 70 c 0,7,8
 25 163 25 163 116.5 257 c 128,-1,9
 208 351 208 351 300 351 c 0,10,11
 354 351 354 351 354 313 c 0,12,13
 354 248 354 248 110 168 c 1,14,15
 85 114 85 114 85 70 c 0,16,17
 85 6 85 6 140 6 c 0,18,19
 218 6 218 6 323 105 c 0,20,21
 396 174 396 174 462 269 c 1,22,-1
 469 264 l 1,0,1
303 314 m 0,23,24
 303 340 303 340 276 340 c 0,25,26
 238 340 238 340 182 275 c 0,27,28
 139 226 139 226 114 177 c 1,29,30
 178 196 178 196 228 225 c 0,31,32
 303 268 303 268 303 314 c 0,23,24
EndSplineSet
EndChar

StartChar: f
Encoding: 102 102 73
Width: 382
Flags: W
LayerCount: 2
Back
Fore
SplineSet
578 615 m 0,0,1
 578 564 578 564 521 558 c 1,2,3
 531 590 531 590 531 602 c 0,4,5
 531 659 531 659 487 659 c 0,6,7
 398 659 398 659 214 332 c 1,8,-1
 434 331 l 1,9,-1
 422 320 l 1,10,-1
 206 321 l 1,11,12
 136 200 136 200 66 79 c 0,13,14
 -35 -87 -35 -87 -127 -174 c 0,15,16
 -251 -290 -251 -290 -381 -290 c 0,17,18
 -448 -290 -448 -290 -491 -267 c 0,19,20
 -547 -237 -547 -237 -547 -176 c 0,21,22
 -547 -137 -547 -137 -518.5 -111 c 128,-1,23
 -490 -85 -490 -85 -450 -85 c 2,24,-1
 -408 -89 l 2,25,26
 -407 -91 -407 -91 -406 -92 c 0,27,28
 -406 -95 -406 -95 -424 -95 c 0,29,30
 -457 -96 -457 -96 -477.5 -119 c 128,-1,31
 -498 -142 -498 -142 -498 -175 c 0,32,33
 -498 -223 -498 -223 -461 -253 c 0,34,35
 -427 -282 -427 -282 -378 -282 c 0,36,37
 -284 -282 -284 -282 -167 -154 c 0,38,39
 -81 -60 -81 -60 22 108 c 0,40,41
 84 215 84 215 146 321 c 1,42,-1
 66 321 l 1,43,-1
 75 332 l 1,44,-1
 152 331 l 1,45,46
 196 399 196 399 240 467 c 0,47,48
 303 558 303 558 359 606 c 0,49,50
 433 670 433 670 505 670 c 0,51,52
 533 670 533 670 555.5 656 c 128,-1,53
 578 642 578 642 578 615 c 0,0,1
EndSplineSet
EndChar

StartChar: g
Encoding: 103 103 74
Width: 673
Flags: W
LayerCount: 2
Back
Fore
SplineSet
778 262 m 1,0,1
 625 35 625 35 436 -1 c 1,2,3
 270 -291 270 -291 34 -291 c 0,4,5
 -27 -291 -27 -291 -69 -267 c 0,6,7
 -121 -237 -121 -237 -121 -181 c 0,8,9
 -121 -140 -121 -140 -91 -112.5 c 128,-1,10
 -61 -85 -61 -85 -19 -85 c 1,11,12
 -19 -85 -19 -85 19 -89 c 1,13,-1
 17 -98 l 1,14,-1
 -2 -97 l 2,15,16
 -33 -95 -33 -95 -53 -123 c 0,17,18
 -70 -147 -70 -147 -70 -180 c 0,19,20
 -70 -226 -70 -226 -38.5 -253 c 128,-1,21
 -7 -280 -7 -280 39 -280 c 0,22,23
 128 -280 128 -280 209 -213 c 0,24,25
 267 -164 267 -164 337 -63 c 0,26,27
 391 16 391 16 445 94 c 1,28,-1
 442 96 l 1,29,30
 346 -6 346 -6 267 -6 c 0,31,32
 240 -6 240 -6 224 16 c 128,-1,33
 208 38 208 38 208 65 c 0,34,35
 208 155 208 155 303 249.5 c 128,-1,36
 398 344 398 344 488 344 c 0,37,38
 554 344 554 344 556 271 c 1,39,-1
 600 337 l 1,40,-1
 669 341 l 1,41,-1
 444 10 l 1,42,43
 623 46 623 46 772 268 c 1,44,-1
 778 262 l 1,0,1
523 281 m 0,45,46
 523 335 523 335 481 335 c 0,47,48
 421 335 421 335 344 232 c 0,49,50
 269 133 269 133 269 67 c 0,51,52
 269 15 269 15 307 15 c 0,53,54
 370 15 370 15 448 116 c 0,55,56
 523 213 523 213 523 281 c 0,45,46
EndSplineSet
EndChar

StartChar: h
Encoding: 104 104 75
Width: 423
Flags: W
LayerCount: 2
Back
Fore
SplineSet
564 264 m 1,0,1
 371 -5 371 -5 262 -5 c 0,2,3
 203 -5 203 -5 203 55 c 0,4,5
 203 98 203 98 277.5 198 c 128,-1,6
 352 298 352 298 352 319 c 0,7,8
 352 324 352 324 342.5 333 c 128,-1,9
 333 342 333 342 328 342 c 0,10,11
 250 342 250 342 141 207 c 0,12,13
 65 113 65 113 9 5 c 1,14,-1
 -62 0 l 1,15,-1
 374 677 l 1,16,-1
 447 678 l 1,17,18
 360 550 360 550 274 422 c 0,19,20
 174 276 174 276 95 170 c 1,21,-1
 100 168 l 1,22,23
 235 354 235 354 337 354 c 0,24,25
 361 354 361 354 379.5 339.5 c 128,-1,26
 398 325 398 325 398 302 c 0,27,28
 398 266 398 266 321.5 163.5 c 128,-1,29
 245 61 245 61 245 29 c 0,30,31
 245 7 245 7 272 7 c 0,32,33
 327 7 327 7 430 115 c 0,34,35
 497 186 497 186 557 269 c 1,36,-1
 564 264 l 1,0,1
EndSplineSet
EndChar

StartChar: i
Encoding: 105 105 76
Width: 253
Flags: W
LayerCount: 2
Back
Fore
SplineSet
331 481 m 0,0,1
 331 467 331 467 320 456 c 128,-1,2
 309 445 309 445 295 445 c 0,3,4
 262 445 262 445 262 480 c 0,5,6
 262 494 262 494 272 504 c 128,-1,7
 282 514 282 514 296 514 c 256,8,9
 310 514 310 514 320.5 504 c 128,-1,10
 331 494 331 494 331 481 c 0,0,1
360 263 m 1,11,12
 157 -4 157 -4 56 -4 c 0,13,14
 33 -4 33 -4 18.5 12 c 128,-1,15
 4 28 4 28 4 52 c 0,16,17
 4 91 4 91 74 200 c 0,18,19
 121 267 121 267 167 335 c 1,20,-1
 237 340 l 1,21,22
 184 262 184 262 131 184 c 0,23,24
 45 53 45 53 45 27 c 0,25,26
 45 8 45 8 65 8 c 0,27,28
 119 8 119 8 224 115 c 0,29,30
 296 190 296 190 352 268 c 1,31,-1
 360 263 l 1,11,12
EndSplineSet
EndChar

StartChar: j
Encoding: 106 106 77
Width: 314
Flags: W
LayerCount: 2
Back
Fore
SplineSet
406 481 m 0,0,1
 406 467 406 467 395 456 c 128,-1,2
 384 445 384 445 370 445 c 0,3,4
 337 445 337 445 337 480 c 0,5,6
 337 494 337 494 347 504 c 128,-1,7
 357 514 357 514 371 514 c 256,8,9
 385 514 385 514 395.5 504 c 128,-1,10
 406 494 406 494 406 481 c 0,0,1
431 262 m 1,11,12
 278 35 278 35 89 -1 c 1,13,14
 -77 -291 -77 -291 -314 -291 c 0,15,16
 -375 -291 -375 -291 -417 -267 c 0,17,18
 -469 -237 -469 -237 -469 -181 c 0,19,20
 -469 -140 -469 -140 -438.5 -112.5 c 128,-1,21
 -408 -85 -408 -85 -366 -85 c 1,22,23
 -366 -85 -366 -85 -329 -89 c 1,24,-1
 -330 -98 l 1,25,-1
 -350 -97 l 2,26,27
 -381 -95 -381 -95 -401 -123 c 0,28,29
 -418 -147 -418 -147 -418 -180 c 0,30,31
 -418 -226 -418 -226 -386.5 -253 c 128,-1,32
 -355 -280 -355 -280 -309 -280 c 0,33,34
 -206 -280 -206 -280 -87 -156 c 0,35,36
 0 -65 0 -65 105 105 c 0,37,38
 174 220 174 220 242 335 c 1,39,-1
 312 340 l 1,40,-1
 97 10 l 1,41,42
 276 47 276 47 425 268 c 1,43,-1
 431 262 l 1,11,12
EndSplineSet
EndChar

StartChar: k
Encoding: 107 107 78
Width: 492
Flags: W
LayerCount: 2
Back
Fore
SplineSet
581 266 m 1,0,1
 517 173 517 173 445 99 c 0,2,3
 337 -10 337 -10 268 -10 c 0,4,5
 242 -10 242 -10 223.5 5 c 128,-1,6
 205 20 205 20 205 46 c 0,7,8
 205 69 205 69 228.5 109.5 c 128,-1,9
 252 150 252 150 252 173 c 1,10,-1
 241 186 l 1,11,-1
 181 176 l 1,12,-1
 165 183 l 1,13,14
 174 192 174 192 188 195 c 0,15,16
 198 197 198 197 214 196 c 0,17,18
 239 194 239 194 240 194 c 0,19,20
 278 194 278 194 312.5 227 c 128,-1,21
 347 260 347 260 347 298 c 0,22,23
 347 332 347 332 316 332 c 0,24,25
 253 332 253 332 146 195 c 0,26,27
 67 94 67 94 20 4 c 1,28,-1
 -42 1 l 1,29,-1
 387 688 l 1,30,-1
 454 692 l 1,31,32
 373 565 373 565 293 437 c 0,33,34
 197 288 197 288 121 189 c 1,35,-1
 124 187 l 1,36,37
 188 262 188 262 223 292 c 0,38,39
 292 352 292 352 349 352 c 0,40,41
 405 352 405 352 405 303 c 256,42,43
 405 254 405 254 348 222 c 0,44,45
 306 198 306 198 248 190 c 1,46,47
 291 177 291 177 291 138 c 0,48,49
 291 117 291 117 276 80 c 128,-1,50
 261 43 261 43 261 24 c 0,51,52
 261 3 261 3 285 3 c 0,53,54
 340 3 340 3 445 114 c 0,55,56
 517 190 517 190 574 270 c 1,57,-1
 581 266 l 1,0,1
EndSplineSet
EndChar

StartChar: l
Encoding: 108 108 79
Width: 206
Flags: W
LayerCount: 2
Back
Fore
SplineSet
375 681 m 1,0,1
 265 514 265 514 155 348 c 0,2,3
 -27 64 -27 64 -27 26 c 0,4,5
 -27 5 -27 5 -4 5 c 0,6,7
 46 5 46 5 150 116 c 0,8,9
 217 188 217 188 275 269 c 1,10,-1
 281 263 l 1,11,12
 219 175 219 175 150 103 c 0,13,14
 46 -7 46 -7 -15 -7 c 0,15,16
 -72 -7 -72 -7 -72 45 c 0,17,18
 -72 91 -72 91 98 360 c 0,19,20
 200 518 200 518 303 676 c 1,21,-1
 375 681 l 1,0,1
EndSplineSet
EndChar

StartChar: m
Encoding: 109 109 80
Width: 623
Flags: W
LayerCount: 2
Back
Fore
SplineSet
760 264 m 1,0,1
 566 -5 566 -5 455 -5 c 0,2,3
 430 -5 430 -5 414.5 12.5 c 128,-1,4
 399 30 399 30 399 55 c 0,5,6
 399 97 399 97 473.5 198 c 128,-1,7
 548 299 548 299 548 319 c 0,8,9
 548 324 548 324 538 332.5 c 128,-1,10
 528 341 528 341 523 341 c 0,11,12
 445 341 445 341 336 207 c 0,13,14
 261 113 261 113 205 5 c 1,15,-1
 135 0 l 1,16,17
 188 78 188 78 241 156 c 0,18,19
 309 258 309 258 325 320 c 1,20,21
 315 342 315 342 301 342 c 0,22,23
 223 342 223 342 115 207 c 0,24,25
 39 113 39 113 -17 5 c 1,26,-1
 -89 0 l 1,27,-1
 126 339 l 1,28,-1
 195 343 l 1,29,-1
 69 170 l 1,30,-1
 73 168 l 1,31,32
 209 354 209 354 311 354 c 0,33,34
 333 354 333 354 350.5 340.5 c 128,-1,35
 368 327 368 327 368 306 c 0,36,37
 368 278 368 278 339 234 c 0,38,39
 315 202 315 202 291 170 c 1,40,-1
 296 168 l 1,41,42
 432 354 432 354 533 354 c 0,43,44
 557 354 557 354 575.5 339.5 c 128,-1,45
 594 325 594 325 594 302 c 0,46,47
 594 267 594 267 517.5 163.5 c 128,-1,48
 441 60 441 60 441 29 c 0,49,50
 441 7 441 7 469 7 c 0,51,52
 524 7 524 7 626 115 c 0,53,54
 692 185 692 185 753 269 c 1,55,-1
 760 264 l 1,0,1
EndSplineSet
EndChar

StartChar: n
Encoding: 110 110 81
Width: 506
Flags: W
LayerCount: 2
Back
Fore
SplineSet
576 264 m 1,0,1
 385 -5 385 -5 277 -5 c 0,2,3
 252 -5 252 -5 237 12 c 128,-1,4
 222 29 222 29 222 55 c 0,5,6
 222 97 222 97 295.5 198.5 c 128,-1,7
 369 300 369 300 369 319 c 0,8,9
 369 342 369 342 345 342 c 0,10,11
 268 342 268 342 161 206 c 0,12,13
 87 113 87 113 32 5 c 1,14,-1
 -38 0 l 1,15,-1
 173 339 l 1,16,-1
 240 343 l 1,17,-1
 117 170 l 1,18,-1
 121 168 l 1,19,20
 254 354 254 354 354 354 c 0,21,22
 377 354 377 354 395.5 339.5 c 128,-1,23
 414 325 414 325 414 302 c 0,24,25
 414 267 414 267 339 163 c 128,-1,26
 264 59 264 59 264 29 c 0,27,28
 264 7 264 7 291 7 c 0,29,30
 345 7 345 7 446 116 c 0,31,32
 511 186 511 186 570 269 c 1,33,-1
 576 264 l 1,0,1
EndSplineSet
EndChar

StartChar: o
Encoding: 111 111 82
Width: 470
Flags: W
LayerCount: 2
Back
Fore
SplineSet
522 264 m 1,0,1
 467 195 467 195 407 195 c 0,2,3
 346 195 346 195 329 257 c 1,4,5
 315 164 315 164 234 81 c 0,6,7
 149 -7 149 -7 58 -7 c 0,8,9
 -22 -7 -22 -7 -22 86 c 0,10,11
 -22 173 -22 173 74.5 264.5 c 128,-1,12
 171 356 171 356 257 356 c 0,13,14
 303 356 303 356 320 316 c 0,15,16
 331 280 331 280 342 243 c 1,17,18
 360 203 360 203 407 203 c 0,19,20
 463 203 463 203 516 268 c 1,21,-1
 522 264 l 1,0,1
281 291 m 0,22,23
 281 344 281 344 240 344 c 0,24,25
 178 344 178 344 102 235 c 0,26,27
 30 131 30 131 30 62 c 0,28,29
 30 38 30 38 41 22 c 0,30,31
 54 3 54 3 76 3 c 0,32,33
 140 3 140 3 213 115 c 0,34,35
 281 221 281 221 281 291 c 0,22,23
EndSplineSet
EndChar

StartChar: p
Encoding: 112 112 83
Width: 393
Flags: W
LayerCount: 2
Back
Fore
SplineSet
518 264 m 1,0,1
 404 131 404 131 255 99 c 1,2,3
 148 -1 148 -1 74 -1 c 0,4,5
 34 -1 34 -1 34 26 c 0,6,7
 34 71 34 71 211 102 c 1,8,9
 284 203 284 203 284 292 c 0,10,11
 284 340 284 340 249 340 c 0,12,13
 204 340 204 340 132 252 c 0,14,15
 86 196 86 196 45 126 c 2,16,-1
 -201 -291 l 1,17,-1
 -259 -294 l 1,18,-1
 235 535 l 1,19,-1
 296 539 l 1,20,21
 233 434 233 434 98 230 c 1,22,-1
 103 229 l 1,23,24
 200 356 200 356 274 356 c 0,25,26
 307 356 307 356 326 335 c 128,-1,27
 345 314 345 314 345 280 c 0,28,29
 345 197 345 197 260 109 c 1,30,31
 396 139 396 139 512 269 c 1,32,-1
 518 264 l 1,0,1
205 93 m 1,33,34
 145 83 145 83 123 76 c 0,35,36
 66 58 66 58 66 27 c 0,37,38
 66 7 66 7 88 7 c 0,39,40
 128 7 128 7 205 93 c 1,33,34
EndSplineSet
EndChar

StartChar: q
Encoding: 113 113 84
Width: 489
Flags: W
LayerCount: 2
Back
Fore
SplineSet
575 262 m 1,0,1
 422 35 422 35 233 -1 c 1,2,-1
 32 -316 l 1,3,-1
 -35 -319 l 1,4,5
 32 -215 32 -215 100 -110 c 0,6,7
 180 13 180 13 242 94 c 1,8,-1
 239 96 l 1,9,10
 144 -5 144 -5 66 -5 c 0,11,12
 39 -5 39 -5 22 16.5 c 128,-1,13
 5 38 5 38 5 65 c 0,14,15
 5 155 5 155 100.5 249.5 c 128,-1,16
 196 344 196 344 285 344 c 0,17,18
 351 344 351 344 353 271 c 1,19,-1
 397 337 l 1,20,-1
 457 341 l 1,21,-1
 241 10 l 1,22,23
 420 46 420 46 569 268 c 1,24,-1
 575 262 l 1,0,1
320 281 m 0,25,26
 320 335 320 335 278 335 c 0,27,28
 218 335 218 335 141 232 c 0,29,30
 66 133 66 133 66 67 c 0,31,32
 66 15 66 15 104 15 c 0,33,34
 167 15 167 15 245 116 c 0,35,36
 320 213 320 213 320 281 c 0,25,26
EndSplineSet
EndChar

StartChar: r
Encoding: 114 114 85
Width: 368
Flags: W
LayerCount: 2
Back
Fore
SplineSet
428 261 m 1,0,1
 370 197 370 197 300 197 c 0,2,3
 232 197 232 197 232 260 c 0,4,5
 232 284 232 284 247 314 c 1,6,7
 69 178 69 178 -11 5 c 1,8,-1
 -81 1 l 1,9,-1
 126 337 l 1,10,-1
 191 341 l 1,11,-1
 61 155 l 1,12,-1
 64 152 l 1,13,14
 105 200 105 200 170 262 c 0,15,16
 257 346 257 346 280 347 c 2,17,-1
 326 349 l 1,18,19
 279 285 279 285 279 241 c 0,20,21
 279 207 279 207 315 207 c 0,22,23
 367 207 367 207 423 266 c 1,24,-1
 428 261 l 1,0,1
EndSplineSet
EndChar

StartChar: s
Encoding: 115 115 86
Width: 313
Flags: W
LayerCount: 2
Back
Fore
SplineSet
421 264 m 1,0,1
 228 -10 228 -10 41 -10 c 0,2,3
 -5 -10 -5 -10 -36 15.5 c 128,-1,4
 -67 41 -67 41 -67 85 c 0,5,6
 -67 113 -67 113 -51 135 c 128,-1,7
 -35 157 -35 157 -8 157 c 0,8,9
 29 157 29 157 29 121 c 0,10,11
 29 90 29 90 -4 90 c 0,12,13
 -27 90 -27 90 -30 113 c 1,14,15
 -45 93 -45 93 -45 71 c 0,16,17
 -45 0 -45 0 27 0 c 0,18,19
 69 0 69 0 93 30 c 0,20,21
 115 57 115 57 115 100 c 0,22,23
 115 127 115 127 95 177.5 c 128,-1,24
 75 228 75 228 75 256 c 0,25,26
 75 301 75 301 108 326 c 128,-1,27
 141 351 141 351 187 351 c 0,28,29
 219 351 219 351 242 336 c 0,30,31
 270 319 270 319 270 289 c 0,32,33
 270 268 270 268 256 251.5 c 128,-1,34
 242 235 242 235 222 235 c 2,35,36
 222 235 222 235 204 238 c 1,37,38
 222 265 222 265 222 295 c 0,39,40
 222 342 222 342 177 342 c 0,41,42
 151 342 151 342 136 323 c 128,-1,43
 121 304 121 304 121 278 c 0,44,45
 121 255 121 255 145.5 200.5 c 128,-1,46
 170 146 170 146 170 112 c 0,47,48
 170 30 170 30 83 3 c 1,49,-1
 83 1 l 1,50,51
 246 27 246 27 414 269 c 1,52,-1
 421 264 l 1,0,1
EndSplineSet
EndChar

StartChar: t
Encoding: 116 116 87
Width: 201
Flags: W
LayerCount: 2
Back
Fore
SplineSet
372 259 m 1,0,1
 307 166 307 166 231 94 c 0,2,3
 123 -8 123 -8 46 -8 c 0,4,5
 17 -8 17 -8 -2 12 c 128,-1,6
 -21 32 -21 32 -21 61 c 0,7,8
 -21 100 -21 100 38 194 c 0,9,10
 79 257 79 257 121 320 c 1,11,-1
 64 320 l 1,12,-1
 72 331 l 1,13,-1
 127 331 l 1,14,-1
 203 450 l 1,15,-1
 266 453 l 1,16,-1
 191 331 l 1,17,-1
 321 331 l 1,18,-1
 314 320 l 1,19,-1
 183 320 l 1,20,21
 138 251 138 251 92 182 c 0,22,23
 24 73 24 73 24 33 c 0,24,25
 24 3 24 3 60 3 c 0,26,27
 125 3 125 3 231 106 c 0,28,29
 310 182 310 182 365 263 c 1,30,-1
 372 259 l 1,0,1
EndSplineSet
EndChar

StartChar: u
Encoding: 117 117 88
Width: 495
Flags: W
LayerCount: 2
Back
Fore
SplineSet
588 258 m 1,0,1
 525 169 525 169 457 100 c 0,2,3
 353 -5 353 -5 289 -5 c 0,4,5
 264 -5 264 -5 248 10.5 c 128,-1,6
 232 26 232 26 232 51 c 0,7,8
 232 81 232 81 256 117 c 1,9,-1
 254 118 l 1,10,11
 156 -7 156 -7 70 -7 c 0,12,13
 12 -7 12 -7 12 43 c 0,14,15
 12 84 12 84 83 191 c 0,16,17
 133 262 133 262 183 333 c 1,18,-1
 257 340 l 1,19,20
 202 265 202 265 147 190 c 0,21,22
 60 66 60 66 60 34 c 0,23,24
 60 6 60 6 84 6 c 0,25,26
 199 6 199 6 395 336 c 1,27,-1
 470 341 l 1,28,29
 362 191 362 191 361 190 c 0,30,31
 278 67 278 67 278 33 c 0,32,33
 278 7 278 7 303 7 c 0,34,35
 354 7 354 7 457 113 c 0,36,37
 530 188 530 188 583 262 c 1,38,-1
 588 258 l 1,0,1
EndSplineSet
EndChar

StartChar: v
Encoding: 118 118 89
Width: 451
Flags: W
LayerCount: 2
Back
Fore
SplineSet
543 258 m 1,0,1
 492 194 492 194 434 194 c 0,2,3
 391 194 391 194 362 228 c 1,4,5
 336 146 336 146 248 72 c 0,6,7
 156 -5 156 -5 73 -5 c 0,8,9
 38 -5 38 -5 15.5 16.5 c 128,-1,10
 -7 38 -7 38 -7 73 c 0,11,12
 -7 124 -7 124 54 215 c 0,13,14
 98 276 98 276 142 337 c 1,15,-1
 211 340 l 1,16,17
 136 242 136 242 107 199 c 0,18,19
 40 96 40 96 40 43 c 0,20,21
 40 3 40 3 80 3 c 0,22,23
 156 3 156 3 232 105 c 0,24,25
 300 195 300 195 315 279 c 1,26,27
 304 301 304 301 304 316 c 0,28,29
 304 347 304 347 334 347 c 0,30,31
 371 347 371 347 371 288 c 0,32,33
 371 267 371 267 366 240 c 1,34,35
 388 203 388 203 435 203 c 0,36,37
 486 203 486 203 538 262 c 1,38,-1
 543 258 l 1,0,1
EndSplineSet
EndChar

StartChar: w
Encoding: 119 119 90
Width: 625
Flags: W
LayerCount: 2
Back
Fore
SplineSet
763 264 m 1,0,1
 711 196 711 196 653 196 c 0,2,3
 615 196 615 196 578 227 c 1,4,5
 551 147 551 147 461 72 c 0,6,7
 367 -7 367 -7 287 -7 c 0,8,9
 214 -7 214 -7 214 63 c 0,10,11
 214 92 214 92 231 121 c 1,12,-1
 229 123 l 1,13,14
 133 -6 133 -6 46 -6 c 0,15,16
 -23 -6 -23 -6 -23 61 c 0,17,18
 -23 108 -23 108 43 205 c 1,19,20
 91 268 91 268 139 331 c 1,21,-1
 216 337 l 1,22,23
 130 232 130 232 104 197 c 0,24,25
 27 90 27 90 27 43 c 0,26,27
 27 5 27 5 65 5 c 0,28,29
 162 5 162 5 353 333 c 1,30,-1
 432 338 l 1,31,32
 358 244 358 244 329 199 c 0,33,34
 262 98 262 98 262 45 c 0,35,36
 262 4 262 4 301 4 c 0,37,38
 377 4 377 4 452 106 c 0,39,40
 516 194 516 194 533 280 c 1,41,42
 520 304 520 304 520 319 c 0,43,44
 520 350 520 350 543 350 c 0,45,46
 589 350 589 350 589 285 c 0,47,48
 589 258 589 258 581 237 c 1,49,50
 612 204 612 204 653 204 c 0,51,52
 707 204 707 204 756 268 c 1,53,-1
 763 264 l 1,0,1
EndSplineSet
EndChar

StartChar: x
Encoding: 120 120 91
Width: 462
Flags: W
LayerCount: 2
Back
Fore
SplineSet
623 260 m 1,0,1
 565 167 565 167 473 88 c 0,2,3
 360 -10 360 -10 273 -10 c 0,4,5
 246 -10 246 -10 228.5 7 c 128,-1,6
 211 24 211 24 211 51 c 0,7,8
 211 68 211 68 221 92 c 1,9,-1
 217 94 l 1,10,11
 127 -8 127 -8 29 -8 c 0,12,13
 -11 -8 -11 -8 -38 13.5 c 128,-1,14
 -65 35 -65 35 -65 74 c 0,15,16
 -65 97 -65 97 -51.5 115 c 128,-1,17
 -38 133 -38 133 -15 133 c 0,18,19
 23 133 23 133 23 102 c 0,20,21
 23 88 23 88 13 78 c 128,-1,22
 3 68 3 68 -11 68 c 0,23,24
 -21 68 -21 68 -37 82 c 1,25,26
 -46 68 -46 68 -46 59 c 0,27,28
 -46 32 -46 32 -23 16 c 128,-1,29
 0 0 0 0 28 0 c 0,30,31
 107 0 107 0 193 105 c 0,32,33
 276 206 276 206 276 287 c 0,34,35
 276 308 276 308 263 322.5 c 128,-1,36
 250 337 250 337 229 337 c 0,37,38
 174 337 174 337 117 256 c 1,39,-1
 110 259 l 1,40,41
 170 349 170 349 242 349 c 0,42,43
 278 349 278 349 301 330.5 c 128,-1,44
 324 312 324 312 324 281 c 0,45,46
 324 271 324 271 322 261 c 1,47,-1
 325 260 l 1,48,49
 408 343 408 343 490 343 c 0,50,51
 562 343 562 343 562 297 c 0,52,53
 562 280 562 280 549 268 c 128,-1,54
 536 256 536 256 519 256 c 2,55,56
 519 256 519 256 498 260 c 1,57,58
 513 288 513 288 513 306 c 0,59,60
 513 335 513 335 485 335 c 0,61,62
 420 335 420 335 339.5 234.5 c 128,-1,63
 259 134 259 134 259 65 c 0,64,65
 259 11 259 11 306 11 c 0,66,67
 379 11 379 11 482 107 c 0,68,69
 563 182 563 182 616 265 c 1,70,-1
 623 260 l 1,0,1
EndSplineSet
EndChar

StartChar: y
Encoding: 121 121 92
Width: 472
Flags: W
LayerCount: 2
Back
Fore
SplineSet
596 262 m 1,0,1
 440 33 440 33 251 -1 c 1,2,3
 83 -291 83 -291 -155 -291 c 0,4,5
 -216 -291 -216 -291 -259 -267 c 0,6,7
 -312 -237 -312 -237 -312 -181 c 0,8,9
 -312 -139 -312 -139 -281 -112 c 128,-1,10
 -250 -85 -250 -85 -208 -85 c 1,11,12
 -208 -85 -208 -85 -171 -89 c 1,13,-1
 -172 -98 l 1,14,-1
 -192 -97 l 2,15,16
 -223 -95 -223 -95 -243 -123 c 0,17,18
 -260 -147 -260 -147 -260 -180 c 0,19,20
 -260 -226 -260 -226 -229 -253 c 128,-1,21
 -198 -280 -198 -280 -151 -280 c 0,22,23
 -23 -280 -23 -280 105 -126 c 0,24,25
 163 -56 163 -56 276 137 c 1,26,-1
 273 139 l 1,27,28
 158 -3 158 -3 62 -3 c 0,29,30
 42 -3 42 -3 28.5 11 c 128,-1,31
 15 25 15 25 15 45 c 0,32,33
 15 84 15 84 88 192 c 0,34,35
 138 263 138 263 188 333 c 1,36,-1
 265 339 l 1,37,38
 69 99 69 99 69 41 c 0,39,40
 69 13 69 13 99 13 c 0,41,42
 159 13 159 13 268 149 c 0,43,44
 341 239 341 239 398 335 c 1,45,-1
 476 340 l 1,46,-1
 259 10 l 1,47,48
 443 48 443 48 590 268 c 1,49,-1
 596 262 l 1,0,1
EndSplineSet
EndChar

StartChar: z
Encoding: 122 122 93
Width: 433
Flags: W
LayerCount: 2
Back
Fore
SplineSet
517 263 m 1,0,1
 328 -12 328 -12 217 -12 c 0,2,3
 191 -12 191 -12 142 14 c 128,-1,4
 93 40 93 40 67 40 c 0,5,6
 51 40 51 40 30 16.5 c 128,-1,7
 9 -7 9 -7 1 -8 c 1,8,-1
 -9 0 l 1,9,10
 -9 8 -9 8 181 154 c 0,11,12
 352 285 352 285 385 308 c 1,13,-1
 383 309 l 1,14,15
 334 277 334 277 300 277 c 0,16,17
 279 277 279 277 242.5 293.5 c 128,-1,18
 206 310 206 310 188 310 c 0,19,20
 157 310 157 310 119 254 c 1,21,-1
 113 259 l 1,22,23
 165 347 165 347 232 347 c 0,24,25
 256 347 256 347 297 328 c 128,-1,26
 338 309 338 309 359 309 c 0,27,28
 385 309 385 309 407.5 333.5 c 128,-1,29
 430 358 430 358 436 359 c 1,30,-1
 442 351 l 1,31,32
 438 325 438 325 63 47 c 1,33,-1
 63 46 l 1,34,35
 98 67 98 67 130 67 c 0,36,37
 158 67 158 67 200 45.5 c 128,-1,38
 242 24 242 24 263 24 c 0,39,40
 339 24 339 24 510 269 c 1,41,-1
 517 263 l 1,0,1
EndSplineSet
EndChar

StartChar: braceleft
Encoding: 123 123 94
Width: 435
Flags: W
LayerCount: 2
Back
Fore
SplineSet
380 -120 m 1,0,-1
 375 -120 l 2,1,2
 267 -120 267 -120 224 -74 c 0,3,4
 192 -39 192 -39 192 35 c 0,5,6
 192 54 192 54 194.5 92.5 c 128,-1,7
 197 131 197 131 197 150 c 0,8,9
 197 216 197 216 172 250 c 0,10,11
 139 293 139 293 54 300 c 1,12,-1
 54 327 l 1,13,14
 139 334 139 334 172 377 c 0,15,16
 197 411 197 411 197 476 c 0,17,18
 197 495 197 495 194.5 534.5 c 128,-1,19
 192 574 192 574 192 593 c 0,20,21
 192 667 192 667 225 701 c 0,22,23
 269 747 269 747 380 747 c 1,24,-1
 380 724 l 1,25,26
 303 724 303 724 273 686 c 0,27,28
 250 657 250 657 250 595 c 0,29,30
 250 579 250 579 251.5 544.5 c 128,-1,31
 253 510 253 510 253 492 c 0,32,33
 253 420 253 420 227 381 c 0,34,35
 193 329 193 329 104 313 c 1,36,37
 193 298 193 298 227 246 c 0,38,39
 253 207 253 207 253 135 c 0,40,41
 253 117 253 117 251.5 82.5 c 128,-1,42
 250 48 250 48 250 32 c 0,43,44
 250 -31 250 -31 273 -60 c 0,45,46
 302 -98 302 -98 380 -98 c 1,47,-1
 380 -120 l 1,0,-1
EndSplineSet
EndChar

StartChar: bar
Encoding: 124 124 95
Width: 416
Flags: W
LayerCount: 2
Back
Fore
SplineSet
230 -238 m 1,0,-1
 186 -238 l 1,1,-1
 186 772 l 1,2,-1
 230 772 l 1,3,-1
 230 -238 l 1,0,-1
EndSplineSet
EndChar

StartChar: braceright
Encoding: 125 125 96
Width: 426
Flags: W
LayerCount: 2
Back
Fore
SplineSet
377 300 m 1,0,1
 292 293 292 293 259 250 c 0,2,3
 234 217 234 217 234 152 c 0,4,5
 234 133 234 133 236.5 94 c 128,-1,6
 239 55 239 55 239 36 c 0,7,8
 239 -38 239 -38 206 -74 c 0,9,10
 162 -120 162 -120 50 -120 c 1,11,-1
 50 -98 l 1,12,13
 128 -98 128 -98 158 -60 c 0,14,15
 181 -31 181 -31 181 31 c 0,16,17
 181 47 181 47 179 81.5 c 128,-1,18
 177 116 177 116 177 134 c 0,19,20
 177 206 177 206 203 245 c 0,21,22
 238 297 238 297 327 313 c 1,23,24
 238 329 238 329 203 381 c 0,25,26
 178 420 178 420 178 492 c 0,27,28
 178 510 178 510 179.5 544 c 128,-1,29
 181 578 181 578 181 594 c 0,30,31
 181 657 181 657 158 686 c 0,32,33
 128 724 128 724 50 724 c 1,34,-1
 50 747 l 1,35,-1
 55 747 l 2,36,37
 164 747 164 747 206 701 c 0,38,39
 238 667 238 667 238 593 c 0,40,41
 238 574 238 574 235.5 535 c 128,-1,42
 233 496 233 496 233 478 c 0,43,44
 233 412 233 412 259 378 c 0,45,46
 292 334 292 334 377 327 c 1,47,-1
 377 300 l 1,0,1
EndSplineSet
EndChar

StartChar: asciitilde
Encoding: 126 126 97
Width: 744
Flags: W
LayerCount: 2
Back
Fore
SplineSet
702 319 m 1,0,1
 598 246 598 246 513 246 c 0,2,3
 464 246 464 246 372.5 280.5 c 128,-1,4
 281 315 281 315 231 315 c 0,5,6
 151 315 151 315 42 237 c 1,7,-1
 42 283 l 1,8,9
 145 355 145 355 231 355 c 0,10,11
 281 355 281 355 372.5 320.5 c 128,-1,12
 464 286 464 286 513 286 c 0,13,14
 592 286 592 286 702 365 c 1,15,-1
 702 319 l 1,0,1
EndSplineSet
EndChar

StartChar: Adieresis
Encoding: 196 196 98
Width: 868
Flags: W
LayerCount: 2
Back
Fore
SplineSet
900 827 m 0,0,1
 900 795 900 795 868 795 c 256,2,3
 836 795 836 795 836 827 c 0,4,5
 836 840 836 840 845.5 849.5 c 128,-1,6
 855 859 855 859 868 859 c 256,7,8
 881 859 881 859 890.5 849.5 c 128,-1,9
 900 840 900 840 900 827 c 0,0,1
774 827 m 0,10,11
 774 795 774 795 742 795 c 256,12,13
 710 795 710 795 710 827 c 0,14,15
 710 840 710 840 719.5 849.5 c 128,-1,16
 729 859 729 859 742 859 c 256,17,18
 755 859 755 859 764.5 849.5 c 128,-1,19
 774 840 774 840 774 827 c 0,10,11
812 699 m 1,20,21
 676 547 676 547 580 399 c 0,22,23
 441 184 441 184 441 54 c 0,24,25
 441 8 441 8 476 8 c 0,26,27
 527 8 527 8 629 116 c 0,28,29
 693 183 693 183 755 267 c 1,30,-1
 761 262 l 1,31,32
 563 -11 563 -11 446 -11 c 0,33,34
 382 -11 382 -11 382 73 c 0,35,36
 382 163 382 163 460 304 c 1,37,-1
 358 304 l 1,38,39
 252 170 252 170 185 107 c 0,40,41
 60 -9 60 -9 -39 -9 c 0,42,43
 -73 -9 -73 -9 -97 4 c 0,44,45
 -127 21 -127 21 -127 52 c 0,46,47
 -127 69 -127 69 -117 82 c 128,-1,48
 -107 95 -107 95 -90 95 c 0,49,50
 -61 95 -61 95 -61 64 c 1,51,52
 -61 64 -61 64 -78 30 c 1,53,54
 -60 10 -60 10 -16 10 c 0,55,56
 82 10 82 10 225 163 c 1,57,58
 359 317 359 317 494 471 c 1,59,60
 664 654 664 654 807 704 c 1,61,-1
 812 699 l 1,20,21
735 664 m 1,62,63
 574 583 574 583 364 311 c 1,64,-1
 464 311 l 1,65,66
 570 502 570 502 735 664 c 1,62,63
EndSplineSet
EndChar

StartChar: Aring
Encoding: 197 197 99
Width: 868
Flags: W
LayerCount: 2
Back
Fore
SplineSet
909 859 m 0,0,1
 909 815 909 815 879.5 786.5 c 128,-1,2
 850 758 850 758 806 758 c 0,3,4
 779 758 779 758 760 773.5 c 128,-1,5
 741 789 741 789 741 816 c 0,6,7
 741 855 741 855 774 886 c 128,-1,8
 807 917 807 917 846 917 c 0,9,10
 872 917 872 917 890.5 901 c 128,-1,11
 909 885 909 885 909 859 c 0,0,1
802 699 m 1,12,13
 666 547 666 547 570 399 c 0,14,15
 431 184 431 184 431 54 c 0,16,17
 431 8 431 8 466 8 c 0,18,19
 517 8 517 8 620 116 c 0,20,21
 683 183 683 183 745 267 c 1,22,-1
 751 262 l 1,23,24
 554 -11 554 -11 436 -11 c 0,25,26
 372 -11 372 -11 372 73 c 0,27,28
 372 163 372 163 450 304 c 1,29,-1
 348 304 l 1,30,31
 243 170 243 170 175 107 c 0,32,33
 51 -9 51 -9 -49 -9 c 0,34,35
 -83 -9 -83 -9 -107 4 c 0,36,37
 -137 21 -137 21 -137 52 c 0,38,39
 -137 69 -137 69 -126.5 82 c 128,-1,40
 -116 95 -116 95 -100 95 c 0,41,42
 -71 95 -71 95 -71 64 c 1,43,44
 -71 64 -71 64 -88 30 c 1,45,46
 -70 10 -70 10 -26 10 c 0,47,48
 72 10 72 10 216 163 c 1,49,50
 350 317 350 317 484 471 c 1,51,52
 655 654 655 654 797 704 c 1,53,-1
 802 699 l 1,12,13
885 865 m 0,54,55
 885 906 885 906 851 906 c 0,56,57
 823 906 823 906 796 870.5 c 128,-1,58
 769 835 769 835 769 806 c 0,59,60
 769 768 769 768 804 768 c 0,61,62
 834 768 834 768 859.5 801.5 c 128,-1,63
 885 835 885 835 885 865 c 0,54,55
725 664 m 1,64,65
 564 583 564 583 354 311 c 1,66,-1
 454 311 l 1,67,68
 560 502 560 502 725 664 c 1,64,65
EndSplineSet
EndChar

StartChar: Ccedilla
Encoding: 199 199 100
Width: 709
Flags: W
LayerCount: 2
Back
Fore
SplineSet
648 598 m 0,0,1
 648 531 648 531 591.5 484.5 c 128,-1,2
 535 438 535 438 467 438 c 0,3,4
 427 438 427 438 398 458 c 0,5,6
 366 481 366 481 366 520 c 0,7,8
 366 524 366 524 370 553 c 1,9,-1
 376 552 l 1,10,-1
 373 525 l 2,11,12
 373 492 373 492 396 471 c 128,-1,13
 419 450 419 450 452 450 c 0,14,15
 511 450 511 450 563.5 504.5 c 128,-1,16
 616 559 616 559 616 619 c 0,17,18
 616 652 616 652 593.5 670.5 c 128,-1,19
 571 689 571 689 537 689 c 0,20,21
 434 689 434 689 316 595 c 0,22,23
 207 509 207 509 131 380 c 128,-1,24
 55 251 55 251 55 147 c 0,25,26
 55 81 55 81 84 40 c 0,27,28
 117 -8 117 -8 180 -8 c 0,29,30
 262 -8 262 -8 335 70 c 128,-1,31
 408 148 408 148 408 230 c 0,32,33
 408 267 408 267 388 294.5 c 128,-1,34
 368 322 368 322 332 322 c 0,35,36
 286 322 286 322 248 282 c 0,37,38
 217 249 217 249 200 200 c 1,39,-1
 193 203 l 1,40,41
 212 257 212 257 248 292 c 0,42,43
 290 333 290 333 342 333 c 0,44,45
 388 333 388 333 417.5 305 c 128,-1,46
 447 277 447 277 447 231 c 0,47,48
 447 132 447 132 351 54 c 0,49,50
 259 -21 259 -21 158 -21 c 0,51,52
 126 -21 126 -21 99 -13 c 1,53,-1
 59 -79 l 2,54,55
 62 -79 62 -79 68 -78 c 0,56,57
 74 -78 74 -78 77 -78 c 0,58,59
 105 -78 105 -78 126 -94.5 c 128,-1,60
 147 -111 147 -111 147 -138 c 0,61,62
 147 -192 147 -192 70 -222 c 0,63,64
 17 -243 17 -243 -51 -247 c 1,65,-1
 -51 -239 l 1,66,67
 104 -222 104 -222 104 -153 c 0,68,69
 104 -114 104 -114 50 -114 c 0,70,71
 37 -114 37 -114 24 -116 c 1,72,-1
 90 -9 l 1,73,74
 -12 29 -12 29 -12 159 c 0,75,76
 -12 267 -12 267 80 398 c 0,77,78
 167 522 167 522 292 608 c 0,79,80
 424 698 424 698 532 698 c 0,81,82
 582 698 582 698 613 673 c 0,83,84
 648 646 648 646 648 598 c 0,0,1
EndSplineSet
EndChar

StartChar: Eacute
Encoding: 201 201 101
Width: 653
Flags: W
LayerCount: 2
Back
Fore
SplineSet
633 953 m 1,0,-1
 439 747 l 1,1,-1
 433 750 l 1,2,-1
 566 953 l 1,3,-1
 633 953 l 1,0,-1
582 601 m 0,4,5
 582 542 582 542 529 501 c 0,6,7
 481 464 481 464 420 464 c 0,8,9
 394 464 394 464 368 472 c 1,10,-1
 370 478 l 1,11,12
 398 471 398 471 414 471 c 0,13,14
 464 471 464 471 501.5 509.5 c 128,-1,15
 539 548 539 548 539 599 c 0,16,17
 539 640 539 640 512.5 667 c 128,-1,18
 486 694 486 694 445 694 c 0,19,20
 393 694 393 694 352.5 663.5 c 128,-1,21
 312 633 312 633 301 584 c 0,22,23
 298 572 298 572 294 505 c 0,24,25
 291 457 291 457 272.5 430 c 128,-1,26
 254 403 254 403 184 370 c 0,27,28
 106 332 106 332 76 304 c 0,29,30
 24 253 24 253 24 172 c 0,31,32
 24 95 24 95 73.5 47 c 128,-1,33
 123 -1 123 -1 200 -1 c 0,34,35
 279 -1 279 -1 343 49 c 0,36,37
 411 103 411 103 411 181 c 0,38,39
 411 219 411 219 389.5 243 c 128,-1,40
 368 267 368 267 331 267 c 0,41,42
 272 267 272 267 198 179 c 1,43,-1
 192 183 l 1,44,45
 267 279 267 279 359 279 c 0,46,47
 401 279 401 279 429.5 255.5 c 128,-1,48
 458 232 458 232 458 191 c 0,49,50
 458 97 458 97 351 37 c 0,51,52
 260 -15 260 -15 159 -15 c 0,53,54
 72 -15 72 -15 18 23 c 0,55,56
 -43 66 -43 66 -43 149 c 0,57,58
 -43 235 -43 235 21 290 c 0,59,60
 49 315 49 315 144 363 c 0,61,62
 215 399 215 399 225 432 c 0,63,64
 230 453 230 453 233 513 c 0,65,66
 235 564 235 564 251 595 c 0,67,68
 277 647 277 647 336 676 c 0,69,70
 390 702 390 702 453 702 c 0,71,72
 504 702 504 702 540 678 c 0,73,74
 582 650 582 650 582 601 c 0,4,5
EndSplineSet
EndChar

StartChar: Ntilde
Encoding: 209 209 102
Width: 910
Flags: W
LayerCount: 2
Back
Fore
SplineSet
837 859 m 1,0,1
 822 821 822 821 811 807 c 0,2,3
 793 783 793 783 763 783 c 0,4,5
 740 783 740 783 699 800 c 128,-1,6
 658 817 658 817 639 817 c 0,7,8
 603 817 603 817 595 777 c 1,9,-1
 583 778 l 1,10,11
 594 814 594 814 605 828 c 0,12,13
 622 850 622 850 652 850 c 0,14,15
 672 850 672 850 713 835 c 128,-1,16
 754 820 754 820 777 820 c 0,17,18
 807 820 807 820 826 861 c 1,19,-1
 837 859 l 1,0,1
972 626 m 0,20,21
 972 564 972 564 889 529 c 1,22,-1
 885 533 l 1,23,24
 926 549 926 549 926 598 c 0,25,26
 926 657 926 657 871 657 c 0,27,28
 699 657 699 657 412 -12 c 1,29,-1
 405 -10 l 1,30,31
 416 40 416 40 416 99 c 0,32,33
 416 163 416 163 397.5 290.5 c 128,-1,34
 379 418 379 418 379 482 c 0,35,36
 379 527 379 527 386 566 c 1,37,38
 281 334 281 334 209 221 c 0,39,40
 61 -8 61 -8 -73 -8 c 0,41,42
 -101 -8 -101 -8 -121 4 c 0,43,44
 -144 18 -144 18 -144 44 c 0,45,46
 -144 52 -144 52 -131 66.5 c 128,-1,47
 -118 81 -118 81 -110 81 c 0,48,49
 -76 81 -76 81 -76 50 c 0,50,51
 -76 36 -76 36 -87 26 c 1,52,53
 -62 11 -62 11 -44 11 c 0,54,55
 54 11 54 11 174 189 c 0,56,57
 248 298 248 298 353 519 c 0,58,59
 437 697 437 697 450 698 c 1,60,-1
 455 694 l 1,61,62
 429 659 429 659 429 592 c 0,63,64
 429 528 429 528 445.5 400 c 128,-1,65
 462 272 462 272 462 208 c 0,66,67
 462 155 462 155 446 91 c 1,68,-1
 447 90 l 1,69,70
 530 290 530 290 626 442 c 0,71,72
 781 689 781 689 905 689 c 0,73,74
 972 689 972 689 972 626 c 0,20,21
EndSplineSet
EndChar

StartChar: Odieresis
Encoding: 214 214 103
Width: 750
Flags: W
LayerCount: 2
Back
Fore
SplineSet
608 827 m 0,0,1
 608 795 608 795 576 795 c 256,2,3
 544 795 544 795 544 827 c 0,4,5
 544 840 544 840 554 849.5 c 128,-1,6
 564 859 564 859 576 859 c 0,7,8
 590 859 590 859 599 849.5 c 128,-1,9
 608 840 608 840 608 827 c 0,0,1
482 827 m 0,10,11
 482 795 482 795 450 795 c 256,12,13
 418 795 418 795 418 827 c 0,14,15
 418 840 418 840 428 849.5 c 128,-1,16
 438 859 438 859 450 859 c 0,17,18
 464 859 464 859 473 849.5 c 128,-1,19
 482 840 482 840 482 827 c 0,10,11
729 256 m 1,20,21
 657 191 657 191 568 191 c 0,22,23
 526 191 526 191 485 209 c 1,24,25
 419 120 419 120 345 63 c 0,26,27
 248 -13 248 -13 161 -13 c 0,28,29
 20 -13 20 -13 20 153 c 0,30,31
 20 361 20 361 227 546 c 0,32,33
 268 582 268 582 324 609 c 0,34,35
 374 634 374 634 423 658 c 0,36,37
 444 671 444 671 464.5 682.5 c 128,-1,38
 485 694 485 694 512 694 c 0,39,40
 564 694 564 694 593 652 c 0,41,42
 617 616 617 616 617 562 c 0,43,44
 617 394 617 394 490 216 c 1,45,46
 526 199 526 199 568 199 c 0,47,48
 654 199 654 199 724 262 c 1,49,-1
 729 256 l 1,20,21
570 560 m 0,50,51
 570 683 570 683 497 683 c 0,52,53
 466 683 466 683 435 660 c 1,54,55
 476 660 476 660 502.5 639 c 128,-1,56
 529 618 529 618 529 579 c 0,57,58
 529 573 529 573 527 553 c 1,59,-1
 521 554 l 1,60,-1
 522 575 l 2,61,62
 524 609 524 609 502 631.5 c 128,-1,63
 480 654 480 654 446 652 c 2,64,-1
 426 651 l 1,65,66
 349 571 349 571 349 451 c 0,67,68
 349 311 349 311 466 227 c 1,69,70
 570 418 570 418 570 560 c 0,50,51
461 220 m 1,71,72
 333 305 333 305 333 448 c 0,73,74
 333 565 333 565 416 649 c 1,75,76
 288 610 288 610 182 447 c 0,77,78
 80 291 80 291 80 152 c 0,79,80
 80 3 80 3 196 3 c 0,81,82
 266 3 266 3 350 82 c 0,83,84
 411 140 411 140 461 220 c 1,71,72
EndSplineSet
EndChar

StartChar: Udieresis
Encoding: 220 220 104
Width: 888
Flags: W
LayerCount: 2
Back
Fore
SplineSet
838 827 m 0,0,1
 838 795 838 795 806 795 c 256,2,3
 774 795 774 795 774 827 c 0,4,5
 774 840 774 840 783.5 849.5 c 128,-1,6
 793 859 793 859 806 859 c 256,7,8
 819 859 819 859 828.5 849.5 c 128,-1,9
 838 840 838 840 838 827 c 0,0,1
712 827 m 0,10,11
 712 795 712 795 680 795 c 256,12,13
 648 795 648 795 648 827 c 0,14,15
 648 840 648 840 657.5 849.5 c 128,-1,16
 667 859 667 859 680 859 c 256,17,18
 693 859 693 859 702.5 849.5 c 128,-1,19
 712 840 712 840 712 827 c 0,10,11
825 683 m 1,20,21
 725 534 725 534 625 386 c 1,22,23
 452 116 452 116 452 49 c 0,24,25
 452 30 452 30 466 16 c 128,-1,26
 480 2 480 2 499 2 c 0,27,28
 562 2 562 2 669 109 c 0,29,30
 745 185 745 185 804 268 c 1,31,-1
 810 263 l 1,32,33
 617 -11 617 -11 481 -11 c 0,34,35
 444 -11 444 -11 423 11.5 c 128,-1,36
 402 34 402 34 402 71 c 0,37,38
 402 115 402 115 438 174 c 1,39,40
 377 104 377 104 314 56 c 0,41,42
 226 -10 226 -10 160 -10 c 0,43,44
 90 -10 90 -10 90 64 c 0,45,46
 90 117 90 117 170 243 c 1,47,48
 245 353 245 353 320 463 c 0,49,50
 400 585 400 585 400 629 c 0,51,52
 400 687 400 687 346 687 c 0,53,54
 257 687 257 687 163 604 c 0,55,56
 66 519 66 519 66 431 c 0,57,58
 66 401 66 401 84.5 378 c 128,-1,59
 103 355 103 355 133 355 c 0,60,61
 183 355 183 355 254 432 c 1,62,-1
 258 428 l 1,63,64
 199 343 199 343 129 343 c 0,65,66
 97 343 97 343 73.5 368 c 128,-1,67
 50 393 50 393 50 425 c 0,68,69
 50 524 50 524 156 613 c 0,70,71
 258 698 258 698 359 698 c 0,72,73
 451 698 451 698 451 615 c 0,74,75
 451 571 451 571 371 446 c 0,76,77
 296 333 296 333 222 221 c 0,78,79
 142 94 142 94 142 47 c 0,80,81
 142 30 142 30 155.5 17.5 c 128,-1,82
 169 5 169 5 186 5 c 0,83,84
 276 5 276 5 413 164 c 0,85,86
 512 278 512 278 632 472 c 0,87,88
 694 576 694 576 755 679 c 1,89,-1
 825 683 l 1,20,21
EndSplineSet
EndChar

StartChar: aacute
Encoding: 225 225 105
Width: 529
Flags: W
LayerCount: 2
Back
Fore
SplineSet
471 616 m 1,0,-1
 277 410 l 1,1,-1
 271 413 l 1,2,-1
 404 616 l 1,3,-1
 471 616 l 1,0,-1
539 263 m 1,4,5
 343 -10 343 -10 243 -10 c 0,6,7
 221 -10 221 -10 205 4 c 128,-1,8
 189 18 189 18 189 40 c 0,9,10
 189 68 189 68 216 107 c 1,11,-1
 213 110 l 1,12,13
 178 66 178 66 136 34 c 0,14,15
 82 -6 82 -6 38 -6 c 0,16,17
 7 -6 7 -6 -9.5 16 c 128,-1,18
 -26 38 -26 38 -26 70 c 0,19,20
 -26 154 -26 154 68 249.5 c 128,-1,21
 162 345 162 345 246 345 c 0,22,23
 305 345 305 345 315 279 c 1,24,-1
 350 336 l 1,25,-1
 418 339 l 1,26,27
 368 272 368 272 312 185 c 0,28,29
 229 56 229 56 229 24 c 0,30,31
 229 2 229 2 253 2 c 0,32,33
 337 2 337 2 533 268 c 1,34,-1
 539 263 l 1,4,5
285 287 m 0,35,36
 285 338 285 338 245 338 c 0,37,38
 180 338 180 338 105 232 c 0,39,40
 34 132 34 132 34 62 c 0,41,42
 34 15 34 15 71 15 c 0,43,44
 132 15 132 15 210 119 c 0,45,46
 285 220 285 220 285 287 c 0,35,36
EndSplineSet
EndChar

StartChar: agrave
Encoding: 224 224 106
Width: 529
Flags: W
LayerCount: 2
Back
Fore
SplineSet
321 403 m 1,0,-1
 312 401 l 1,1,2
 292 488 292 488 285 514 c 0,3,4
 267 579 267 579 245 622 c 1,5,-1
 300 622 l 1,6,7
 320 494 320 494 321 403 c 1,0,-1
539 263 m 1,8,9
 343 -10 343 -10 243 -10 c 0,10,11
 221 -10 221 -10 205 4 c 128,-1,12
 189 18 189 18 189 40 c 0,13,14
 189 68 189 68 216 107 c 1,15,-1
 213 110 l 1,16,17
 178 66 178 66 136 34 c 0,18,19
 82 -6 82 -6 38 -6 c 0,20,21
 7 -6 7 -6 -9.5 16 c 128,-1,22
 -26 38 -26 38 -26 70 c 0,23,24
 -26 154 -26 154 68 249.5 c 128,-1,25
 162 345 162 345 246 345 c 0,26,27
 305 345 305 345 315 279 c 1,28,-1
 350 336 l 1,29,-1
 418 339 l 1,30,31
 368 272 368 272 312 185 c 0,32,33
 229 56 229 56 229 24 c 0,34,35
 229 2 229 2 253 2 c 0,36,37
 337 2 337 2 533 268 c 1,38,-1
 539 263 l 1,8,9
285 287 m 0,39,40
 285 338 285 338 245 338 c 0,41,42
 180 338 180 338 105 232 c 0,43,44
 34 132 34 132 34 62 c 0,45,46
 34 15 34 15 71 15 c 0,47,48
 132 15 132 15 210 119 c 0,49,50
 285 220 285 220 285 287 c 0,39,40
EndSplineSet
EndChar

StartChar: acircumflex
Encoding: 226 226 107
Width: 529
Flags: W
LayerCount: 2
Back
Fore
SplineSet
437 420 m 1,0,-1
 431 414 l 1,1,2
 342 449 342 449 342 564 c 1,3,-1
 190 420 l 1,4,-1
 186 425 l 1,5,-1
 366 612 l 1,6,-1
 400 612 l 1,7,8
 386 570 386 570 386 535 c 0,9,10
 386 451 386 451 437 420 c 1,0,-1
539 263 m 1,11,12
 343 -10 343 -10 243 -10 c 0,13,14
 221 -10 221 -10 205 4 c 128,-1,15
 189 18 189 18 189 40 c 0,16,17
 189 68 189 68 216 107 c 1,18,-1
 213 110 l 1,19,20
 178 66 178 66 136 34 c 0,21,22
 82 -6 82 -6 38 -6 c 0,23,24
 7 -6 7 -6 -9.5 16 c 128,-1,25
 -26 38 -26 38 -26 70 c 0,26,27
 -26 154 -26 154 68 249.5 c 128,-1,28
 162 345 162 345 246 345 c 0,29,30
 305 345 305 345 315 279 c 1,31,-1
 350 336 l 1,32,-1
 418 339 l 1,33,34
 368 272 368 272 312 185 c 0,35,36
 229 56 229 56 229 24 c 0,37,38
 229 2 229 2 253 2 c 0,39,40
 337 2 337 2 533 268 c 1,41,-1
 539 263 l 1,11,12
285 287 m 0,42,43
 285 338 285 338 245 338 c 0,44,45
 180 338 180 338 105 232 c 0,46,47
 34 132 34 132 34 62 c 0,48,49
 34 15 34 15 71 15 c 0,50,51
 132 15 132 15 210 119 c 0,52,53
 285 220 285 220 285 287 c 0,42,43
EndSplineSet
EndChar

StartChar: adieresis
Encoding: 228 228 108
Width: 529
Flags: W
LayerCount: 2
Back
Fore
SplineSet
416 490 m 0,0,1
 416 458 416 458 384 458 c 256,2,3
 352 458 352 458 352 490 c 0,4,5
 352 503 352 503 361.5 512.5 c 128,-1,6
 371 522 371 522 384 522 c 256,7,8
 397 522 397 522 406.5 512.5 c 128,-1,9
 416 503 416 503 416 490 c 0,0,1
290 490 m 0,10,11
 290 458 290 458 258 458 c 256,12,13
 226 458 226 458 226 490 c 0,14,15
 226 503 226 503 235.5 512.5 c 128,-1,16
 245 522 245 522 258 522 c 256,17,18
 271 522 271 522 280.5 512.5 c 128,-1,19
 290 503 290 503 290 490 c 0,10,11
539 263 m 1,20,21
 343 -10 343 -10 243 -10 c 0,22,23
 221 -10 221 -10 205 4 c 128,-1,24
 189 18 189 18 189 40 c 0,25,26
 189 68 189 68 216 107 c 1,27,-1
 213 110 l 1,28,29
 178 66 178 66 136 34 c 0,30,31
 82 -6 82 -6 38 -6 c 0,32,33
 7 -6 7 -6 -9.5 16 c 128,-1,34
 -26 38 -26 38 -26 70 c 0,35,36
 -26 154 -26 154 68 249.5 c 128,-1,37
 162 345 162 345 246 345 c 0,38,39
 305 345 305 345 315 279 c 1,40,-1
 350 336 l 1,41,-1
 418 339 l 1,42,43
 368 272 368 272 312 185 c 0,44,45
 229 56 229 56 229 24 c 0,46,47
 229 2 229 2 253 2 c 0,48,49
 337 2 337 2 533 268 c 1,50,-1
 539 263 l 1,20,21
285 287 m 0,51,52
 285 338 285 338 245 338 c 0,53,54
 180 338 180 338 105 232 c 0,55,56
 34 132 34 132 34 62 c 0,57,58
 34 15 34 15 71 15 c 0,59,60
 132 15 132 15 210 119 c 0,61,62
 285 220 285 220 285 287 c 0,51,52
EndSplineSet
EndChar

StartChar: atilde
Encoding: 227 227 109
Width: 529
Flags: W
LayerCount: 2
Back
Fore
SplineSet
426 522 m 1,0,1
 411 484 411 484 401 470 c 0,2,3
 382 446 382 446 352 446 c 0,4,5
 330 446 330 446 289 463 c 128,-1,6
 248 480 248 480 228 480 c 0,7,8
 193 480 193 480 184 440 c 1,9,-1
 172 441 l 1,10,11
 184 477 184 477 194 491 c 0,12,13
 211 513 211 513 241 513 c 0,14,15
 262 513 262 513 303 498 c 128,-1,16
 344 483 344 483 366 483 c 0,17,18
 397 483 397 483 415 524 c 1,19,-1
 426 522 l 1,0,1
539 263 m 1,20,21
 343 -10 343 -10 243 -10 c 0,22,23
 221 -10 221 -10 205 4 c 128,-1,24
 189 18 189 18 189 40 c 0,25,26
 189 68 189 68 216 107 c 1,27,-1
 213 110 l 1,28,29
 178 66 178 66 136 34 c 0,30,31
 82 -6 82 -6 38 -6 c 0,32,33
 7 -6 7 -6 -9.5 16 c 128,-1,34
 -26 38 -26 38 -26 70 c 0,35,36
 -26 154 -26 154 68 249.5 c 128,-1,37
 162 345 162 345 246 345 c 0,38,39
 305 345 305 345 315 279 c 1,40,-1
 350 336 l 1,41,-1
 418 339 l 1,42,43
 368 272 368 272 312 185 c 0,44,45
 229 56 229 56 229 24 c 0,46,47
 229 2 229 2 253 2 c 0,48,49
 337 2 337 2 533 268 c 1,50,-1
 539 263 l 1,20,21
285 287 m 0,51,52
 285 338 285 338 245 338 c 0,53,54
 180 338 180 338 105 232 c 0,55,56
 34 132 34 132 34 62 c 0,57,58
 34 15 34 15 71 15 c 0,59,60
 132 15 132 15 210 119 c 0,61,62
 285 220 285 220 285 287 c 0,51,52
EndSplineSet
EndChar

StartChar: aring
Encoding: 229 229 110
Width: 529
Flags: W
LayerCount: 2
Back
Fore
SplineSet
424 510 m 0,0,1
 424 468 424 468 393.5 440 c 128,-1,2
 363 412 363 412 321 412 c 0,3,4
 293 412 293 412 274.5 427.5 c 128,-1,5
 256 443 256 443 256 470 c 0,6,7
 256 509 256 509 288.5 540.5 c 128,-1,8
 321 572 321 572 360 572 c 0,9,10
 387 572 387 572 405.5 554.5 c 128,-1,11
 424 537 424 537 424 510 c 0,0,1
539 263 m 1,12,13
 343 -10 343 -10 243 -10 c 0,14,15
 221 -10 221 -10 205 4 c 128,-1,16
 189 18 189 18 189 40 c 0,17,18
 189 68 189 68 216 107 c 1,19,-1
 213 110 l 1,20,21
 178 66 178 66 136 34 c 0,22,23
 82 -6 82 -6 38 -6 c 0,24,25
 7 -6 7 -6 -9.5 16 c 128,-1,26
 -26 38 -26 38 -26 70 c 0,27,28
 -26 154 -26 154 68 249.5 c 128,-1,29
 162 345 162 345 246 345 c 0,30,31
 305 345 305 345 315 279 c 1,32,-1
 350 336 l 1,33,-1
 418 339 l 1,34,35
 368 272 368 272 312 185 c 0,36,37
 229 56 229 56 229 24 c 0,38,39
 229 2 229 2 253 2 c 0,40,41
 337 2 337 2 533 268 c 1,42,-1
 539 263 l 1,12,13
401 519 m 0,43,44
 401 561 401 561 366 561 c 0,45,46
 338 561 338 561 311 525.5 c 128,-1,47
 284 490 284 490 284 461 c 0,48,49
 284 421 284 421 319 421 c 0,50,51
 349 421 349 421 376 456 c 0,52,53
 401 488 401 488 401 519 c 0,43,44
285 287 m 0,54,55
 285 338 285 338 245 338 c 0,56,57
 180 338 180 338 105 232 c 0,58,59
 34 132 34 132 34 62 c 0,60,61
 34 15 34 15 71 15 c 0,62,63
 132 15 132 15 210 119 c 0,64,65
 285 220 285 220 285 287 c 0,54,55
EndSplineSet
EndChar

StartChar: ccedilla
Encoding: 231 231 111
Width: 375
Flags: W
LayerCount: 2
Back
Fore
SplineSet
456 263 m 1,0,1
 383 159 383 159 302 87 c 0,2,3
 189 -14 189 -14 97 -19 c 1,4,-1
 60 -79 l 2,5,6
 63 -79 63 -79 69 -78 c 0,7,8
 75 -78 75 -78 78 -78 c 0,9,10
 106 -78 106 -78 127 -94.5 c 128,-1,11
 148 -111 148 -111 148 -138 c 0,12,13
 148 -192 148 -192 71 -222 c 0,14,15
 18 -243 18 -243 -50 -247 c 1,16,-1
 -50 -239 l 1,17,18
 105 -222 105 -222 105 -153 c 0,19,20
 105 -114 105 -114 51 -114 c 0,21,22
 39 -114 39 -114 25 -116 c 1,23,-1
 85 -19 l 1,24,25
 47 -18 47 -18 25 6.5 c 128,-1,26
 3 31 3 31 3 70 c 0,27,28
 3 160 3 160 100 254 c 128,-1,29
 197 348 197 348 286 348 c 0,30,31
 353 348 353 348 353 304 c 0,32,33
 353 286 353 286 336.5 273.5 c 128,-1,34
 320 261 320 261 301 261 c 2,35,36
 301 261 301 261 289 263 c 1,37,38
 297 286 297 286 297 300 c 0,39,40
 297 337 297 337 262 337 c 0,41,42
 202 337 202 337 132 232 c 0,43,44
 66 134 66 134 66 67 c 0,45,46
 66 2 66 2 123 2 c 0,47,48
 199 2 199 2 307 104 c 0,49,50
 383 175 383 175 449 269 c 1,51,-1
 456 263 l 1,0,1
EndSplineSet
EndChar

StartChar: eacute
Encoding: 233 233 112
Width: 350
Flags: W
LayerCount: 2
Back
Fore
SplineSet
407 616 m 1,0,-1
 213 410 l 1,1,-1
 207 413 l 1,2,-1
 340 616 l 1,3,-1
 407 616 l 1,0,-1
421 264 m 1,4,5
 350 158 350 158 265 84 c 0,6,7
 153 -13 153 -13 55 -13 c 0,8,9
 18 -13 18 -13 -2.5 10 c 128,-1,10
 -23 33 -23 33 -23 70 c 0,11,12
 -23 163 -23 163 68.5 257 c 128,-1,13
 160 351 160 351 252 351 c 0,14,15
 306 351 306 351 306 313 c 0,16,17
 306 248 306 248 62 168 c 1,18,19
 37 114 37 114 37 70 c 0,20,21
 37 6 37 6 92 6 c 0,22,23
 170 6 170 6 275 105 c 0,24,25
 348 174 348 174 414 269 c 1,26,-1
 421 264 l 1,4,5
255 314 m 0,27,28
 255 340 255 340 228 340 c 0,29,30
 190 340 190 340 134 275 c 0,31,32
 91 226 91 226 66 177 c 1,33,34
 130 196 130 196 180 225 c 0,35,36
 255 268 255 268 255 314 c 0,27,28
EndSplineSet
EndChar

StartChar: egrave
Encoding: 232 232 113
Width: 350
Flags: W
LayerCount: 2
Back
Fore
SplineSet
257 403 m 1,0,-1
 248 401 l 1,1,2
 228 488 228 488 221 514 c 0,3,4
 203 579 203 579 181 622 c 1,5,-1
 236 622 l 1,6,7
 256 494 256 494 257 403 c 1,0,-1
421 264 m 1,8,9
 350 158 350 158 265 84 c 0,10,11
 153 -13 153 -13 55 -13 c 0,12,13
 18 -13 18 -13 -2.5 10 c 128,-1,14
 -23 33 -23 33 -23 70 c 0,15,16
 -23 163 -23 163 68.5 257 c 128,-1,17
 160 351 160 351 252 351 c 0,18,19
 306 351 306 351 306 313 c 0,20,21
 306 248 306 248 62 168 c 1,22,23
 37 114 37 114 37 70 c 0,24,25
 37 6 37 6 92 6 c 0,26,27
 170 6 170 6 275 105 c 0,28,29
 348 174 348 174 414 269 c 1,30,-1
 421 264 l 1,8,9
255 314 m 0,31,32
 255 340 255 340 228 340 c 0,33,34
 190 340 190 340 134 275 c 0,35,36
 91 226 91 226 66 177 c 1,37,38
 130 196 130 196 180 225 c 0,39,40
 255 268 255 268 255 314 c 0,31,32
EndSplineSet
EndChar

StartChar: ecircumflex
Encoding: 234 234 114
Width: 350
Flags: W
LayerCount: 2
Back
Fore
SplineSet
373 420 m 1,0,-1
 367 414 l 1,1,2
 278 449 278 449 278 564 c 1,3,-1
 126 420 l 1,4,-1
 122 425 l 1,5,-1
 302 612 l 1,6,-1
 336 612 l 1,7,8
 322 570 322 570 322 535 c 0,9,10
 322 451 322 451 373 420 c 1,0,-1
421 264 m 1,11,12
 350 158 350 158 265 84 c 0,13,14
 153 -13 153 -13 55 -13 c 0,15,16
 18 -13 18 -13 -2.5 10 c 128,-1,17
 -23 33 -23 33 -23 70 c 0,18,19
 -23 163 -23 163 68.5 257 c 128,-1,20
 160 351 160 351 252 351 c 0,21,22
 306 351 306 351 306 313 c 0,23,24
 306 248 306 248 62 168 c 1,25,26
 37 114 37 114 37 70 c 0,27,28
 37 6 37 6 92 6 c 0,29,30
 170 6 170 6 275 105 c 0,31,32
 348 174 348 174 414 269 c 1,33,-1
 421 264 l 1,11,12
255 314 m 0,34,35
 255 340 255 340 228 340 c 0,36,37
 190 340 190 340 134 275 c 0,38,39
 91 226 91 226 66 177 c 1,40,41
 130 196 130 196 180 225 c 0,42,43
 255 268 255 268 255 314 c 0,34,35
EndSplineSet
EndChar

StartChar: edieresis
Encoding: 235 235 115
Width: 350
Flags: W
LayerCount: 2
Back
Fore
SplineSet
352 490 m 0,0,1
 352 458 352 458 320 458 c 256,2,3
 288 458 288 458 288 490 c 0,4,5
 288 503 288 503 297.5 512.5 c 128,-1,6
 307 522 307 522 320 522 c 256,7,8
 333 522 333 522 342.5 512.5 c 128,-1,9
 352 503 352 503 352 490 c 0,0,1
226 490 m 0,10,11
 226 458 226 458 194 458 c 256,12,13
 162 458 162 458 162 490 c 0,14,15
 162 503 162 503 171.5 512.5 c 128,-1,16
 181 522 181 522 194 522 c 256,17,18
 207 522 207 522 216.5 512.5 c 128,-1,19
 226 503 226 503 226 490 c 0,10,11
421 264 m 1,20,21
 350 158 350 158 265 84 c 0,22,23
 153 -13 153 -13 55 -13 c 0,24,25
 18 -13 18 -13 -2.5 10 c 128,-1,26
 -23 33 -23 33 -23 70 c 0,27,28
 -23 163 -23 163 68.5 257 c 128,-1,29
 160 351 160 351 252 351 c 0,30,31
 306 351 306 351 306 313 c 0,32,33
 306 248 306 248 62 168 c 1,34,35
 37 114 37 114 37 70 c 0,36,37
 37 6 37 6 92 6 c 0,38,39
 170 6 170 6 275 105 c 0,40,41
 348 174 348 174 414 269 c 1,42,-1
 421 264 l 1,20,21
255 314 m 0,43,44
 255 340 255 340 228 340 c 0,45,46
 190 340 190 340 134 275 c 0,47,48
 91 226 91 226 66 177 c 1,49,50
 130 196 130 196 180 225 c 0,51,52
 255 268 255 268 255 314 c 0,43,44
EndSplineSet
EndChar

StartChar: iacute
Encoding: 237 237 116
Width: 253
Flags: W
LayerCount: 2
Back
Fore
SplineSet
349 616 m 1,0,-1
 155 410 l 1,1,-1
 149 413 l 1,2,-1
 282 616 l 1,3,-1
 349 616 l 1,0,-1
308 263 m 1,4,5
 105 -4 105 -4 4 -4 c 0,6,7
 -19 -4 -19 -4 -33.5 12 c 128,-1,8
 -48 28 -48 28 -48 52 c 0,9,10
 -48 91 -48 91 22 200 c 0,11,12
 69 267 69 267 115 335 c 1,13,-1
 185 340 l 1,14,15
 132 262 132 262 79 184 c 0,16,17
 -7 53 -7 53 -7 27 c 0,18,19
 -7 8 -7 8 13 8 c 0,20,21
 67 8 67 8 172 115 c 0,22,23
 244 190 244 190 300 268 c 1,24,-1
 308 263 l 1,4,5
EndSplineSet
EndChar

StartChar: igrave
Encoding: 236 236 117
Width: 253
Flags: W
LayerCount: 2
Back
Fore
SplineSet
219 403 m 1,0,-1
 210 401 l 1,1,2
 190 488 190 488 183 514 c 0,3,4
 165 579 165 579 143 622 c 1,5,-1
 198 622 l 1,6,7
 218 494 218 494 219 403 c 1,0,-1
328 263 m 1,8,9
 125 -4 125 -4 24 -4 c 0,10,11
 1 -4 1 -4 -13.5 12 c 128,-1,12
 -28 28 -28 28 -28 52 c 0,13,14
 -28 91 -28 91 43 200 c 0,15,16
 89 267 89 267 135 335 c 1,17,-1
 205 340 l 1,18,19
 152 262 152 262 99 184 c 0,20,21
 13 53 13 53 13 27 c 0,22,23
 13 8 13 8 33 8 c 0,24,25
 88 8 88 8 192 115 c 0,26,27
 264 190 264 190 320 268 c 1,28,-1
 328 263 l 1,8,9
EndSplineSet
EndChar

StartChar: icircumflex
Encoding: 238 238 118
Width: 253
Flags: W
LayerCount: 2
Back
Fore
SplineSet
332 420 m 1,0,-1
 326 414 l 1,1,2
 237 449 237 449 237 564 c 1,3,-1
 85 420 l 1,4,-1
 81 425 l 1,5,-1
 261 612 l 1,6,-1
 295 612 l 1,7,8
 281 570 281 570 281 535 c 0,9,10
 281 451 281 451 332 420 c 1,0,-1
325 263 m 1,11,12
 122 -4 122 -4 21 -4 c 0,13,14
 -2 -4 -2 -4 -16.5 12 c 128,-1,15
 -31 28 -31 28 -31 52 c 0,16,17
 -31 91 -31 91 39 200 c 0,18,19
 86 267 86 267 132 335 c 1,20,-1
 202 340 l 1,21,22
 149 262 149 262 96 184 c 0,23,24
 10 53 10 53 10 27 c 0,25,26
 10 8 10 8 30 8 c 0,27,28
 84 8 84 8 189 115 c 0,29,30
 261 190 261 190 317 268 c 1,31,-1
 325 263 l 1,11,12
EndSplineSet
EndChar

StartChar: idieresis
Encoding: 239 239 119
Width: 253
Flags: W
LayerCount: 2
Back
Fore
SplineSet
314 490 m 0,0,1
 314 458 314 458 282 458 c 256,2,3
 250 458 250 458 250 490 c 0,4,5
 250 503 250 503 260 512.5 c 128,-1,6
 270 522 270 522 282 522 c 0,7,8
 295 522 295 522 304.5 512.5 c 128,-1,9
 314 503 314 503 314 490 c 0,0,1
188 490 m 0,10,11
 188 458 188 458 156 458 c 256,12,13
 124 458 124 458 124 490 c 0,14,15
 124 503 124 503 134 512.5 c 128,-1,16
 144 522 144 522 156 522 c 0,17,18
 169 522 169 522 178.5 512.5 c 128,-1,19
 188 503 188 503 188 490 c 0,10,11
328 263 m 1,20,21
 125 -4 125 -4 24 -4 c 0,22,23
 1 -4 1 -4 -13.5 12 c 128,-1,24
 -28 28 -28 28 -28 52 c 0,25,26
 -28 91 -28 91 43 200 c 0,27,28
 89 267 89 267 135 335 c 1,29,-1
 205 340 l 1,30,31
 152 262 152 262 99 184 c 0,32,33
 13 53 13 53 13 27 c 0,34,35
 13 8 13 8 33 8 c 0,36,37
 88 8 88 8 192 115 c 0,38,39
 264 190 264 190 320 268 c 1,40,-1
 328 263 l 1,20,21
EndSplineSet
EndChar

StartChar: ntilde
Encoding: 241 241 120
Width: 506
Flags: W
LayerCount: 2
Back
Fore
SplineSet
463 522 m 1,0,1
 448 484 448 484 437 470 c 0,2,3
 419 446 419 446 389 446 c 0,4,5
 366 446 366 446 325 463 c 128,-1,6
 284 480 284 480 265 480 c 0,7,8
 229 480 229 480 221 440 c 1,9,-1
 209 441 l 1,10,11
 220 477 220 477 231 491 c 0,12,13
 248 513 248 513 278 513 c 0,14,15
 298 513 298 513 339 498 c 128,-1,16
 380 483 380 483 403 483 c 0,17,18
 433 483 433 483 452 524 c 1,19,-1
 463 522 l 1,0,1
576 264 m 1,20,21
 384 -5 384 -5 277 -5 c 0,22,23
 251 -5 251 -5 236.5 12 c 128,-1,24
 222 29 222 29 222 55 c 0,25,26
 222 97 222 97 295.5 198.5 c 128,-1,27
 369 300 369 300 369 319 c 0,28,29
 369 342 369 342 345 342 c 0,30,31
 268 342 268 342 161 206 c 0,32,33
 87 113 87 113 32 5 c 1,34,-1
 -38 0 l 1,35,-1
 173 339 l 1,36,-1
 240 343 l 1,37,-1
 117 170 l 1,38,-1
 121 168 l 1,39,40
 254 354 254 354 354 354 c 0,41,42
 377 354 377 354 395.5 339.5 c 128,-1,43
 414 325 414 325 414 302 c 0,44,45
 414 267 414 267 339 163 c 128,-1,46
 264 59 264 59 264 29 c 0,47,48
 264 7 264 7 291 7 c 0,49,50
 344 7 344 7 446 116 c 0,51,52
 511 186 511 186 570 269 c 1,53,-1
 576 264 l 1,20,21
EndSplineSet
EndChar

StartChar: oacute
Encoding: 243 243 121
Width: 470
Flags: W
LayerCount: 2
Back
Fore
SplineSet
458 616 m 1,0,-1
 264 410 l 1,1,-1
 258 413 l 1,2,-1
 391 616 l 1,3,-1
 458 616 l 1,0,-1
522 264 m 1,4,5
 467 195 467 195 407 195 c 256,6,7
 347 195 347 195 329 257 c 1,8,9
 315 164 315 164 234 81 c 0,10,11
 149 -7 149 -7 58 -7 c 0,12,13
 -22 -7 -22 -7 -22 86 c 0,14,15
 -22 173 -22 173 74.5 264.5 c 128,-1,16
 171 356 171 356 257 356 c 0,17,18
 303 356 303 356 320 316 c 0,19,20
 331 280 331 280 343 243 c 0,21,22
 360 203 360 203 407 203 c 0,23,24
 463 203 463 203 516 268 c 1,25,-1
 522 264 l 1,4,5
281 291 m 0,26,27
 281 344 281 344 240 344 c 0,28,29
 178 344 178 344 102 235 c 0,30,31
 30 131 30 131 30 62 c 0,32,33
 30 38 30 38 41 22 c 0,34,35
 54 3 54 3 76 3 c 0,36,37
 140 3 140 3 213 115 c 0,38,39
 281 221 281 221 281 291 c 0,26,27
EndSplineSet
EndChar

StartChar: ograve
Encoding: 242 242 122
Width: 470
Flags: W
LayerCount: 2
Back
Fore
SplineSet
308 403 m 1,0,-1
 299 401 l 1,1,2
 279 488 279 488 272 514 c 0,3,4
 254 579 254 579 232 622 c 1,5,-1
 287 622 l 1,6,7
 307 494 307 494 308 403 c 1,0,-1
522 264 m 1,8,9
 467 195 467 195 407 195 c 256,10,11
 347 195 347 195 329 257 c 1,12,13
 315 164 315 164 234 81 c 0,14,15
 149 -7 149 -7 58 -7 c 0,16,17
 -22 -7 -22 -7 -22 86 c 0,18,19
 -22 173 -22 173 74.5 264.5 c 128,-1,20
 171 356 171 356 257 356 c 0,21,22
 303 356 303 356 320 316 c 0,23,24
 331 280 331 280 343 243 c 0,25,26
 360 203 360 203 407 203 c 0,27,28
 463 203 463 203 516 268 c 1,29,-1
 522 264 l 1,8,9
281 291 m 0,30,31
 281 344 281 344 240 344 c 0,32,33
 178 344 178 344 102 235 c 0,34,35
 30 131 30 131 30 62 c 0,36,37
 30 38 30 38 41 22 c 0,38,39
 54 3 54 3 76 3 c 0,40,41
 140 3 140 3 213 115 c 0,42,43
 281 221 281 221 281 291 c 0,30,31
EndSplineSet
EndChar

StartChar: ocircumflex
Encoding: 244 244 123
Width: 470
Flags: W
LayerCount: 2
Back
Fore
SplineSet
424 420 m 1,0,-1
 418 414 l 1,1,2
 329 449 329 449 329 564 c 1,3,-1
 177 420 l 1,4,-1
 173 425 l 1,5,-1
 353 612 l 1,6,-1
 387 612 l 1,7,8
 373 570 373 570 373 535 c 0,9,10
 373 451 373 451 424 420 c 1,0,-1
522 264 m 1,11,12
 467 195 467 195 407 195 c 256,13,14
 347 195 347 195 329 257 c 1,15,16
 315 164 315 164 234 81 c 0,17,18
 149 -7 149 -7 58 -7 c 0,19,20
 -22 -7 -22 -7 -22 86 c 0,21,22
 -22 173 -22 173 74.5 264.5 c 128,-1,23
 171 356 171 356 257 356 c 0,24,25
 303 356 303 356 320 316 c 0,26,27
 331 280 331 280 343 243 c 0,28,29
 360 203 360 203 407 203 c 0,30,31
 463 203 463 203 516 268 c 1,32,-1
 522 264 l 1,11,12
281 291 m 0,33,34
 281 344 281 344 240 344 c 0,35,36
 178 344 178 344 102 235 c 0,37,38
 30 131 30 131 30 62 c 0,39,40
 30 38 30 38 41 22 c 0,41,42
 54 3 54 3 76 3 c 0,43,44
 140 3 140 3 213 115 c 0,45,46
 281 221 281 221 281 291 c 0,33,34
EndSplineSet
EndChar

StartChar: odieresis
Encoding: 246 246 124
Width: 470
Flags: W
LayerCount: 2
Back
Fore
SplineSet
403 490 m 0,0,1
 403 458 403 458 371 458 c 256,2,3
 339 458 339 458 339 490 c 0,4,5
 339 503 339 503 349 512.5 c 128,-1,6
 359 522 359 522 371 522 c 0,7,8
 384 522 384 522 393.5 512.5 c 128,-1,9
 403 503 403 503 403 490 c 0,0,1
277 490 m 0,10,11
 277 458 277 458 245 458 c 256,12,13
 213 458 213 458 213 490 c 0,14,15
 213 503 213 503 223 512.5 c 128,-1,16
 233 522 233 522 245 522 c 0,17,18
 258 522 258 522 267.5 512.5 c 128,-1,19
 277 503 277 503 277 490 c 0,10,11
522 264 m 1,20,21
 467 195 467 195 407 195 c 256,22,23
 347 195 347 195 329 257 c 1,24,25
 315 164 315 164 234 81 c 0,26,27
 149 -7 149 -7 58 -7 c 0,28,29
 -22 -7 -22 -7 -22 86 c 0,30,31
 -22 173 -22 173 74.5 264.5 c 128,-1,32
 171 356 171 356 257 356 c 0,33,34
 303 356 303 356 320 316 c 0,35,36
 331 280 331 280 343 243 c 0,37,38
 360 203 360 203 407 203 c 0,39,40
 463 203 463 203 516 268 c 1,41,-1
 522 264 l 1,20,21
281 291 m 0,42,43
 281 344 281 344 240 344 c 0,44,45
 178 344 178 344 102 235 c 0,46,47
 30 131 30 131 30 62 c 0,48,49
 30 38 30 38 41 22 c 0,50,51
 54 3 54 3 76 3 c 0,52,53
 140 3 140 3 213 115 c 0,54,55
 281 221 281 221 281 291 c 0,42,43
EndSplineSet
EndChar

StartChar: otilde
Encoding: 245 245 125
Width: 470
Flags: W
LayerCount: 2
Back
Fore
SplineSet
413 522 m 1,0,1
 398 484 398 484 388 470 c 0,2,3
 369 446 369 446 339 446 c 0,4,5
 317 446 317 446 276 463 c 128,-1,6
 235 480 235 480 215 480 c 0,7,8
 180 480 180 480 171 440 c 1,9,-1
 159 441 l 1,10,11
 171 477 171 477 182 491 c 0,12,13
 199 513 199 513 228 513 c 0,14,15
 249 513 249 513 290 498 c 128,-1,16
 331 483 331 483 353 483 c 0,17,18
 384 483 384 483 402 524 c 1,19,-1
 413 522 l 1,0,1
522 264 m 1,20,21
 467 195 467 195 407 195 c 256,22,23
 347 195 347 195 329 257 c 1,24,25
 315 164 315 164 234 81 c 0,26,27
 149 -7 149 -7 58 -7 c 0,28,29
 -22 -7 -22 -7 -22 86 c 0,30,31
 -22 173 -22 173 74.5 264.5 c 128,-1,32
 171 356 171 356 257 356 c 0,33,34
 303 356 303 356 320 316 c 0,35,36
 331 280 331 280 343 243 c 0,37,38
 360 203 360 203 407 203 c 0,39,40
 463 203 463 203 516 268 c 1,41,-1
 522 264 l 1,20,21
281 291 m 0,42,43
 281 344 281 344 240 344 c 0,44,45
 178 344 178 344 102 235 c 0,46,47
 30 131 30 131 30 62 c 0,48,49
 30 38 30 38 41 22 c 0,50,51
 54 3 54 3 76 3 c 0,52,53
 140 3 140 3 213 115 c 0,54,55
 281 221 281 221 281 291 c 0,42,43
EndSplineSet
EndChar

StartChar: uacute
Encoding: 250 250 126
Width: 495
Flags: W
LayerCount: 2
Back
Fore
SplineSet
485 616 m 1,0,-1
 291 410 l 1,1,-1
 285 413 l 1,2,-1
 418 616 l 1,3,-1
 485 616 l 1,0,-1
550 258 m 1,4,5
 487 169 487 169 418 100 c 0,6,7
 315 -5 315 -5 251 -5 c 0,8,9
 225 -5 225 -5 209.5 10.5 c 128,-1,10
 194 26 194 26 194 51 c 0,11,12
 194 81 194 81 218 117 c 1,13,-1
 216 118 l 1,14,15
 117 -7 117 -7 32 -7 c 0,16,17
 -26 -7 -26 -7 -26 43 c 0,18,19
 -26 84 -26 84 45 191 c 0,20,21
 95 262 95 262 145 333 c 1,22,-1
 219 340 l 1,23,24
 164 265 164 265 109 190 c 0,25,26
 22 66 22 66 22 34 c 0,27,28
 22 6 22 6 46 6 c 0,29,30
 161 6 161 6 357 336 c 1,31,-1
 432 341 l 1,32,33
 324 191 324 191 323 190 c 0,34,35
 240 67 240 67 240 33 c 0,36,37
 240 7 240 7 265 7 c 0,38,39
 316 7 316 7 419 113 c 0,40,41
 491 188 491 188 545 262 c 1,42,-1
 550 258 l 1,4,5
EndSplineSet
EndChar

StartChar: ugrave
Encoding: 249 249 127
Width: 495
Flags: W
LayerCount: 2
Back
Fore
SplineSet
335 403 m 1,0,-1
 326 401 l 1,1,2
 306 488 306 488 299 514 c 0,3,4
 281 579 281 579 259 622 c 1,5,-1
 314 622 l 1,6,7
 333 494 333 494 335 403 c 1,0,-1
550 258 m 1,8,9
 487 169 487 169 418 100 c 0,10,11
 315 -5 315 -5 251 -5 c 0,12,13
 225 -5 225 -5 209.5 10.5 c 128,-1,14
 194 26 194 26 194 51 c 0,15,16
 194 81 194 81 218 117 c 1,17,-1
 216 118 l 1,18,19
 117 -7 117 -7 32 -7 c 0,20,21
 -26 -7 -26 -7 -26 43 c 0,22,23
 -26 84 -26 84 45 191 c 0,24,25
 95 262 95 262 145 333 c 1,26,-1
 219 340 l 1,27,28
 164 265 164 265 109 190 c 0,29,30
 22 66 22 66 22 34 c 0,31,32
 22 6 22 6 46 6 c 0,33,34
 161 6 161 6 357 336 c 1,35,-1
 432 341 l 1,36,37
 324 191 324 191 323 190 c 0,38,39
 240 67 240 67 240 33 c 0,40,41
 240 7 240 7 265 7 c 0,42,43
 316 7 316 7 419 113 c 0,44,45
 491 188 491 188 545 262 c 1,46,-1
 550 258 l 1,8,9
EndSplineSet
EndChar

StartChar: ucircumflex
Encoding: 251 251 128
Width: 495
Flags: W
LayerCount: 2
Back
Fore
SplineSet
451 420 m 1,0,-1
 445 414 l 1,1,2
 356 449 356 449 356 564 c 1,3,-1
 204 420 l 1,4,-1
 200 425 l 1,5,-1
 380 612 l 1,6,-1
 414 612 l 1,7,8
 400 570 400 570 400 535 c 0,9,10
 400 451 400 451 451 420 c 1,0,-1
550 258 m 1,11,12
 487 169 487 169 418 100 c 0,13,14
 315 -5 315 -5 251 -5 c 0,15,16
 225 -5 225 -5 209.5 10.5 c 128,-1,17
 194 26 194 26 194 51 c 0,18,19
 194 81 194 81 218 117 c 1,20,-1
 216 118 l 1,21,22
 117 -7 117 -7 32 -7 c 0,23,24
 -26 -7 -26 -7 -26 43 c 0,25,26
 -26 84 -26 84 45 191 c 0,27,28
 95 262 95 262 145 333 c 1,29,-1
 219 340 l 1,30,31
 164 265 164 265 109 190 c 0,32,33
 22 66 22 66 22 34 c 0,34,35
 22 6 22 6 46 6 c 0,36,37
 161 6 161 6 357 336 c 1,38,-1
 432 341 l 1,39,40
 324 191 324 191 323 190 c 0,41,42
 240 67 240 67 240 33 c 0,43,44
 240 7 240 7 265 7 c 0,45,46
 316 7 316 7 419 113 c 0,47,48
 491 188 491 188 545 262 c 1,49,-1
 550 258 l 1,11,12
EndSplineSet
EndChar

StartChar: udieresis
Encoding: 252 252 129
Width: 495
Flags: W
LayerCount: 2
Back
Fore
SplineSet
430 490 m 0,0,1
 430 458 430 458 398 458 c 256,2,3
 366 458 366 458 366 490 c 0,4,5
 366 503 366 503 375.5 512.5 c 128,-1,6
 385 522 385 522 398 522 c 256,7,8
 411 522 411 522 420.5 512.5 c 128,-1,9
 430 503 430 503 430 490 c 0,0,1
304 490 m 0,10,11
 304 458 304 458 272 458 c 256,12,13
 240 458 240 458 240 490 c 0,14,15
 240 503 240 503 249.5 512.5 c 128,-1,16
 259 522 259 522 272 522 c 256,17,18
 285 522 285 522 294.5 512.5 c 128,-1,19
 304 503 304 503 304 490 c 0,10,11
550 258 m 1,20,21
 487 169 487 169 418 100 c 0,22,23
 315 -5 315 -5 251 -5 c 0,24,25
 225 -5 225 -5 209.5 10.5 c 128,-1,26
 194 26 194 26 194 51 c 0,27,28
 194 81 194 81 218 117 c 1,29,-1
 216 118 l 1,30,31
 117 -7 117 -7 32 -7 c 0,32,33
 -26 -7 -26 -7 -26 43 c 0,34,35
 -26 84 -26 84 45 191 c 0,36,37
 95 262 95 262 145 333 c 1,38,-1
 219 340 l 1,39,40
 164 265 164 265 109 190 c 0,41,42
 22 66 22 66 22 34 c 0,43,44
 22 6 22 6 46 6 c 0,45,46
 161 6 161 6 357 336 c 1,47,-1
 432 341 l 1,48,49
 324 191 324 191 323 190 c 0,50,51
 240 67 240 67 240 33 c 0,52,53
 240 7 240 7 265 7 c 0,54,55
 316 7 316 7 419 113 c 0,56,57
 491 188 491 188 545 262 c 1,58,-1
 550 258 l 1,20,21
EndSplineSet
EndChar

StartChar: dagger
Encoding: 8224 8224 130
Width: 459
Flags: W
LayerCount: 2
Back
Fore
SplineSet
424 686 m 0,0,1
 424 670 424 670 366 595 c 0,2,3
 332 551 332 551 298 507 c 1,4,-1
 290 511 l 1,5,-1
 367 685 l 2,6,7
 378 711 378 711 399 711 c 0,8,9
 424 711 424 711 424 686 c 0,0,1
489 478 m 1,10,-1
 482 467 l 1,11,-1
 65 467 l 1,12,-1
 72 478 l 1,13,-1
 489 478 l 1,10,-1
259 411 m 0,14,15
 259 396 259 396 130 193 c 0,16,17
 55 76 55 76 -20 -41 c 1,18,-1
 -30 -41 l 1,19,-1
 207 409 l 2,20,21
 219 433 219 433 236 433 c 0,22,23
 259 433 259 433 259 411 c 0,14,15
EndSplineSet
EndChar

StartChar: degree
Encoding: 176 176 131
Width: 268
Flags: W
LayerCount: 2
Back
Fore
SplineSet
268 580 m 0,0,1
 268 524 268 524 228.5 484.5 c 128,-1,2
 189 445 189 445 134 445 c 0,3,4
 78 445 78 445 39.5 484.5 c 128,-1,5
 1 524 1 524 1 580 c 256,6,7
 1 636 1 636 40 675.5 c 128,-1,8
 79 715 79 715 135 715 c 0,9,10
 189 715 189 715 228.5 675 c 128,-1,11
 268 635 268 635 268 580 c 0,0,1
239 580 m 256,12,13
 239 623 239 623 208.5 654 c 128,-1,14
 178 685 178 685 135 685 c 0,15,16
 91 685 91 685 61 654 c 128,-1,17
 31 623 31 623 31 580 c 256,18,19
 31 537 31 537 61 506 c 128,-1,20
 91 475 91 475 135 475 c 0,21,22
 178 475 178 475 208.5 506 c 128,-1,23
 239 537 239 537 239 580 c 256,12,13
EndSplineSet
EndChar

StartChar: cent
Encoding: 162 162 132
Width: 446
Flags: W
LayerCount: 2
Back
Fore
SplineSet
407 442 m 1,0,-1
 350 347 l 1,1,2
 406 344 406 344 406 304 c 0,3,4
 406 286 406 286 388.5 273.5 c 128,-1,5
 371 261 371 261 353 261 c 2,6,-1
 342 263 l 1,7,8
 349 279 349 279 349 303 c 0,9,10
 349 321 349 321 338 329 c 1,11,-1
 141 12 l 1,12,13
 160 3 160 3 177 3 c 0,14,15
 247 3 247 3 349 93 c 1,16,-1
 355 86 l 1,17,18
 295 35 295 35 248 12 c 0,19,20
 196 -12 196 -12 124 -19 c 1,21,-1
 48 -139 l 1,22,-1
 40 -134 l 1,23,-1
 114 -16 l 1,24,25
 55 3 55 3 55 68 c 0,26,27
 55 158 55 158 150.5 252.5 c 128,-1,28
 246 347 246 347 337 347 c 1,29,-1
 398 445 l 1,30,-1
 407 442 l 1,0,-1
330 334 m 1,31,-1
 319 335 l 1,32,33
 254 335 254 335 184 233 c 0,34,35
 119 137 119 137 119 67 c 0,36,37
 119 32 119 32 133 18 c 1,38,-1
 330 334 l 1,31,-1
EndSplineSet
EndChar

StartChar: sterling
Encoding: 163 163 133
Width: 737
Flags: W
LayerCount: 2
Back
Fore
SplineSet
853 522 m 0,0,1
 853 451 853 451 802 392 c 0,2,3
 748 332 748 332 677 332 c 0,4,5
 645 332 645 332 622 353 c 128,-1,6
 599 374 599 374 599 406 c 0,7,8
 599 489 599 489 736 550 c 1,9,-1
 739 543 l 1,10,11
 608 478 608 478 608 407 c 0,12,13
 608 379 608 379 627.5 361 c 128,-1,14
 647 343 647 343 674 343 c 0,15,16
 738 343 738 343 786 413 c 0,17,18
 829 476 829 476 829 542 c 0,19,20
 829 581 829 581 805.5 605.5 c 128,-1,21
 782 630 782 630 742 630 c 0,22,23
 639 630 639 630 544 490 c 0,24,25
 508 436 508 436 423 260 c 1,26,-1
 649 260 l 1,27,-1
 649 247 l 1,28,-1
 418 247 l 1,29,30
 353 112 353 112 211 28 c 1,31,32
 324 -8 324 -8 388 -8 c 0,33,34
 514 -8 514 -8 605 131 c 1,35,-1
 612 125 l 1,36,37
 506 -37 506 -37 359 -37 c 0,38,39
 300 -37 300 -37 176 14 c 1,40,41
 88 -15 88 -15 23 -15 c 0,42,43
 -117 -15 -117 -15 -117 47 c 0,44,45
 -117 91 -117 91 -52 91 c 0,46,47
 35 91 35 91 199 32 c 1,48,49
 294 103 294 103 364 247 c 1,50,-1
 98 247 l 1,51,-1
 98 260 l 1,52,-1
 369 260 l 1,53,54
 438 417 438 417 503 503 c 0,55,56
 608 639 608 639 729 639 c 0,57,58
 784 639 784 639 818.5 607.5 c 128,-1,59
 853 576 853 576 853 522 c 0,0,1
161 18 m 1,60,61
 32 81 32 81 -55 81 c 0,62,63
 -108 81 -108 81 -108 49 c 0,64,65
 -108 19 -108 19 -57 4 c 0,66,67
 -22 -7 -22 -7 19 -7 c 0,68,69
 86 -7 86 -7 161 18 c 1,60,61
EndSplineSet
EndChar

StartChar: section
Encoding: 167 167 134
Width: 506
Flags: W
LayerCount: 2
Back
Fore
SplineSet
566 616 m 0,0,1
 566 588 566 588 545.5 567 c 128,-1,2
 525 546 525 546 497 545 c 1,3,4
 518 579 518 579 518 611 c 0,5,6
 518 650 518 650 495 674 c 128,-1,7
 472 698 472 698 434 698 c 0,8,9
 385 698 385 698 349.5 664 c 128,-1,10
 314 630 314 630 314 582 c 0,11,12
 314 536 314 536 373.5 442.5 c 128,-1,13
 433 349 433 349 433 302 c 0,14,15
 433 181 433 181 271 148 c 1,16,17
 280 121 280 121 280 99 c 0,18,19
 280 31 280 31 220 -13 c 0,20,21
 166 -52 166 -52 96 -52 c 0,22,23
 36 -52 36 -52 -9 -21 c 0,24,25
 -59 13 -59 13 -59 70 c 0,26,27
 -59 164 -59 164 53 164 c 1,28,29
 -5 127 -5 127 -5 64 c 0,30,31
 -5 18 -5 18 27 -11 c 128,-1,32
 59 -40 59 -40 106 -40 c 0,33,34
 158 -40 158 -40 197 -5 c 128,-1,35
 236 30 236 30 236 82 c 0,36,37
 236 126 236 126 174 218.5 c 128,-1,38
 112 311 112 311 112 367 c 0,39,40
 112 431 112 431 164 470 c 0,41,42
 207 501 207 501 278 510 c 1,43,44
 265 540 265 540 265 565 c 0,45,46
 265 632 265 632 321 673 c 0,47,48
 373 710 373 710 442 710 c 0,49,50
 489 710 489 710 525 687 c 0,51,52
 566 661 566 661 566 616 c 0,0,1
387 281 m 0,53,54
 387 324 387 324 347 395 c 0,55,56
 314 448 314 448 282 502 c 1,57,58
 158 489 158 489 158 381 c 0,59,60
 158 341 158 341 200 266 c 0,61,62
 233 212 233 212 267 158 c 1,63,64
 387 178 387 178 387 281 c 0,53,54
EndSplineSet
EndChar

StartChar: bullet
Encoding: 8226 8226 135
Width: 431
Flags: W
LayerCount: 2
Back
Fore
SplineSet
360 376 m 256,0,1
 360 316 360 316 317.5 272.5 c 128,-1,2
 275 229 275 229 215 229 c 256,3,4
 155 229 155 229 113 272.5 c 128,-1,5
 71 316 71 316 71 376 c 256,6,7
 71 436 71 436 113.5 478.5 c 128,-1,8
 156 521 156 521 216 521 c 256,9,10
 276 521 276 521 318 478.5 c 128,-1,11
 360 436 360 436 360 376 c 256,0,1
EndSplineSet
EndChar

StartChar: paragraph
Encoding: 182 182 136
Width: 545
Flags: W
LayerCount: 2
Back
Fore
SplineSet
478 698 m 1,0,-1
 415 698 l 1,1,-1
 415 0 l 1,2,-1
 381 0 l 1,3,-1
 381 698 l 1,4,-1
 287 698 l 1,5,-1
 287 0 l 1,6,-1
 253 0 l 1,7,-1
 253 386 l 1,8,9
 173 389 173 389 122 433 c 0,10,11
 67 480 67 480 67 558 c 0,12,13
 67 639 67 639 124 685 c 0,14,15
 178 729 178 729 260 729 c 2,16,-1
 478 729 l 1,17,-1
 478 698 l 1,0,-1
EndSplineSet
EndChar

StartChar: germandbls
Encoding: 223 223 137
Width: 913
Flags: W
LayerCount: 2
Back
Fore
SplineSet
1065 257 m 1,0,1
 878 -10 878 -10 693 -10 c 0,2,3
 650 -10 650 -10 619 16 c 128,-1,4
 588 42 588 42 588 85 c 0,5,6
 588 113 588 113 604 135 c 128,-1,7
 620 157 620 157 647 157 c 0,8,9
 685 157 685 157 684 121 c 1,10,-1
 651 90 l 1,11,-1
 625 113 l 1,12,13
 610 71 610 71 610 71 c 1,14,15
 610 0 610 0 682 0 c 0,16,17
 723 0 723 0 748 30 c 0,18,19
 770 58 770 58 770 100 c 0,20,21
 770 129 770 129 748.5 184.5 c 128,-1,22
 727 240 727 240 727 270 c 0,23,24
 727 325 727 325 800 370 c 0,25,26
 868 411 868 411 936 451 c 1,27,28
 1008 506 1008 506 1008 584 c 0,29,30
 1008 615 1008 615 984.5 636.5 c 128,-1,31
 961 658 961 658 929 658 c 0,32,33
 801 658 801 658 649 412 c 1,34,35
 513 184 513 184 377 -44 c 1,36,37
 202 -290 202 -290 13 -290 c 0,38,39
 -53 -290 -53 -290 -97 -267 c 0,40,41
 -153 -237 -153 -237 -153 -176 c 0,42,43
 -153 -137 -153 -137 -124 -111 c 128,-1,44
 -95 -85 -95 -85 -56 -85 c 2,45,-1
 -14 -89 l 2,46,47
 -12 -91 -12 -91 -12 -92 c 0,48,49
 -12 -95 -12 -95 -30 -95 c 0,50,51
 -62 -96 -62 -96 -83 -119 c 128,-1,52
 -104 -142 -104 -142 -104 -175 c 0,53,54
 -104 -223 -104 -223 -68 -252.5 c 128,-1,55
 -32 -282 -32 -282 16 -282 c 0,56,57
 159 -282 159 -282 320 -35 c 1,58,59
 458 193 458 193 596 422 c 1,60,61
 765 669 765 669 927 669 c 0,62,63
 973 669 973 669 1007 640 c 128,-1,64
 1041 611 1041 611 1041 566 c 0,65,66
 1041 495 1041 495 973 450 c 1,67,68
 909 416 909 416 845 383 c 0,69,70
 776 343 776 343 776 285 c 0,71,72
 776 254 776 254 800.5 198.5 c 128,-1,73
 825 143 825 143 825 112 c 0,74,75
 825 30 825 30 738 3 c 1,76,-1
 738 1 l 1,77,78
 904 28 904 28 1058 261 c 1,79,-1
 1065 257 l 1,0,1
EndSplineSet
EndChar

StartChar: registered
Encoding: 174 174 138
Width: 765
Flags: W
LayerCount: 2
Back
Fore
SplineSet
719 334 m 0,0,1
 719 195 719 195 620 94.5 c 128,-1,2
 521 -6 521 -6 382 -6 c 256,3,4
 243 -6 243 -6 144 94.5 c 128,-1,5
 45 195 45 195 45 334 c 0,6,7
 45 474 45 474 144 575 c 128,-1,8
 243 676 243 676 383 676 c 256,9,10
 523 676 523 676 621 575 c 128,-1,11
 719 474 719 474 719 334 c 0,0,1
682 334 m 0,12,13
 682 460 682 460 595.5 550 c 128,-1,14
 509 640 509 640 383 640 c 0,15,16
 259 640 259 640 171 549.5 c 128,-1,17
 83 459 83 459 83 334 c 256,18,19
 83 209 83 209 170.5 119 c 128,-1,20
 258 29 258 29 382 29 c 0,21,22
 507 29 507 29 594.5 119 c 128,-1,23
 682 209 682 209 682 334 c 0,12,13
596 222 m 2,24,25
 596 135 596 135 523 135 c 0,26,27
 467 135 467 135 458 190 c 0,28,29
 452 239 452 239 445 289 c 1,30,31
 425 341 425 341 340 337 c 2,32,-1
 321 336 l 1,33,-1
 321 214 l 2,34,35
 321 184 321 184 341 173 c 0,36,37
 355 165 355 165 388 164 c 1,38,-1
 388 144 l 1,39,-1
 200 144 l 1,40,-1
 200 164 l 1,41,42
 234 165 234 165 248 173 c 0,43,44
 267 184 267 184 267 214 c 2,45,-1
 267 467 l 2,46,47
 267 497 267 497 248 509 c 0,48,49
 234 517 234 517 200 518 c 1,50,-1
 200 536 l 1,51,-1
 391 536 l 2,52,53
 451 536 451 536 492 517 c 0,54,55
 545 492 545 492 545 439 c 0,56,57
 545 369 545 369 403 341 c 1,58,59
 486 314 486 314 506 235 c 0,60,61
 510 213 510 213 514 192 c 0,62,63
 522 163 522 163 539 163 c 0,64,65
 577 163 577 163 578 226 c 1,66,-1
 596 226 l 1,67,-1
 596 222 l 2,24,25
482 439 m 0,68,69
 482 481 482 481 449 502 c 0,70,71
 421 521 421 521 376 521 c 0,72,73
 321 521 321 521 321 484 c 2,74,-1
 321 354 l 1,75,76
 334 352 334 352 354 352 c 0,77,78
 482 352 482 352 482 439 c 0,68,69
EndSplineSet
EndChar

StartChar: copyright
Encoding: 169 169 139
Width: 765
Flags: W
LayerCount: 2
Back
Fore
SplineSet
719 334 m 0,0,1
 719 195 719 195 620 94.5 c 128,-1,2
 521 -6 521 -6 382 -6 c 256,3,4
 243 -6 243 -6 144 94.5 c 128,-1,5
 45 195 45 195 45 334 c 0,6,7
 45 474 45 474 144 575 c 128,-1,8
 243 676 243 676 383 676 c 256,9,10
 523 676 523 676 621 575 c 128,-1,11
 719 474 719 474 719 334 c 0,0,1
682 334 m 0,12,13
 682 460 682 460 595.5 550 c 128,-1,14
 509 640 509 640 383 640 c 0,15,16
 259 640 259 640 171 549.5 c 128,-1,17
 83 459 83 459 83 334 c 256,18,19
 83 209 83 209 170.5 119 c 128,-1,20
 258 29 258 29 382 29 c 0,21,22
 507 29 507 29 594.5 119 c 128,-1,23
 682 209 682 209 682 334 c 0,12,13
539 223 m 1,24,25
 484 121 484 121 375 121 c 0,26,27
 293 121 293 121 237 184 c 0,28,29
 182 244 182 244 182 327 c 0,30,31
 182 413 182 413 234 475 c 0,32,33
 289 542 289 542 373 542 c 0,34,35
 404 542 404 542 442 525.5 c 128,-1,36
 480 509 480 509 485 509 c 0,37,38
 514 509 514 509 517 539 c 1,39,-1
 532 539 l 1,40,-1
 532 388 l 1,41,-1
 514 388 l 1,42,43
 483 523 483 523 375 523 c 0,44,45
 249 523 249 523 249 337 c 0,46,47
 249 148 249 148 384 148 c 0,48,49
 471 148 471 148 524 233 c 1,50,-1
 539 223 l 1,24,25
EndSplineSet
EndChar

StartChar: trademark
Encoding: 8482 8482 140
Width: 630
Flags: W
LayerCount: 2
Back
Fore
SplineSet
603 445 m 1,0,-1
 492 445 l 1,1,-1
 492 458 l 1,2,3
 531 458 531 458 531 485 c 2,4,-1
 531 685 l 1,5,-1
 440 443 l 1,6,-1
 436 443 l 1,7,-1
 351 684 l 1,8,-1
 351 485 l 2,9,10
 351 458 351 458 390 458 c 1,11,-1
 390 445 l 1,12,-1
 293 445 l 1,13,-1
 293 457 l 1,14,15
 332 457 332 457 332 485 c 2,16,-1
 332 666 l 2,17,18
 332 694 332 694 293 694 c 1,19,-1
 293 706 l 1,20,-1
 376 706 l 1,21,-1
 447 502 l 1,22,-1
 524 706 l 1,23,-1
 603 706 l 1,24,-1
 603 694 l 1,25,26
 564 694 564 694 564 667 c 2,27,-1
 564 485 l 2,28,29
 564 458 564 458 603 458 c 1,30,-1
 603 445 l 1,0,-1
249 620 m 1,31,-1
 238 620 l 1,32,33
 234 662 234 662 217.5 678.5 c 128,-1,34
 201 695 201 695 157 695 c 1,35,-1
 157 485 l 2,36,37
 157 458 157 458 196 458 c 1,38,-1
 196 445 l 1,39,-1
 78 445 l 1,40,-1
 78 458 l 1,41,42
 118 458 118 458 118 485 c 2,43,-1
 118 695 l 1,44,-1
 107 695 l 2,45,46
 44 695 44 695 37 620 c 1,47,-1
 26 620 l 1,48,-1
 31 706 l 1,49,-1
 244 706 l 1,50,-1
 249 620 l 1,31,-1
EndSplineSet
EndChar

StartChar: acute
Encoding: 180 180 141
Width: 315
Flags: W
LayerCount: 2
Back
Fore
SplineSet
258 616 m 1,0,-1
 64 410 l 1,1,-1
 58 413 l 1,2,-1
 191 616 l 1,3,-1
 258 616 l 1,0,-1
EndSplineSet
EndChar

StartChar: dieresis
Encoding: 168 168 142
Width: 311
Flags: W
LayerCount: 2
Back
Fore
SplineSet
250 490 m 0,0,1
 250 458 250 458 218 458 c 256,2,3
 186 458 186 458 186 490 c 0,4,5
 186 503 186 503 196 512.5 c 128,-1,6
 206 522 206 522 218 522 c 0,7,8
 231 522 231 522 240.5 512.5 c 128,-1,9
 250 503 250 503 250 490 c 0,0,1
124 490 m 0,10,11
 124 458 124 458 92 458 c 256,12,13
 60 458 60 458 60 490 c 0,14,15
 60 503 60 503 70 512.5 c 128,-1,16
 80 522 80 522 92 522 c 0,17,18
 105 522 105 522 114.5 512.5 c 128,-1,19
 124 503 124 503 124 490 c 0,10,11
EndSplineSet
EndChar

StartChar: AE
Encoding: 198 198 143
Width: 968
Flags: W
LayerCount: 2
Back
Fore
SplineSet
1018 646 m 0,0,1
 1018 574 1018 574 873 574 c 0,2,3
 856 574 856 574 830.5 575 c 128,-1,4
 805 576 805 576 799 576 c 0,5,6
 749 576 749 576 685 467 c 0,7,8
 644 396 644 396 615 315 c 1,9,10
 676 318 676 318 745 335 c 1,11,12
 788 389 788 389 826 386 c 2,13,-1
 849 384 l 1,14,15
 739 297 739 297 702 189 c 1,16,-1
 697 189 l 1,17,18
 714 263 714 263 740 325 c 1,19,20
 668 309 668 309 611 306 c 1,21,22
 554 125 554 125 405 31 c 1,23,24
 432 31 432 31 486.5 27.5 c 128,-1,25
 541 24 541 24 569 24 c 0,26,27
 709 24 709 24 794 88 c 0,28,29
 852 131 852 131 947 269 c 1,30,-1
 952 265 l 1,31,32
 767 -19 767 -19 614 -19 c 0,33,34
 580 -19 580 -19 515.5 1.5 c 128,-1,35
 451 22 451 22 417 22 c 0,36,37
 390 22 390 22 340 8 c 128,-1,38
 290 -6 290 -6 265 -6 c 1,39,-1
 245 6 l 1,40,41
 245 21 245 21 311 27 c 0,42,43
 351 29 351 29 391 32 c 1,44,45
 476 52 476 52 553 301 c 1,46,47
 465 301 465 301 395 315 c 1,48,-1
 391 310 l 2,49,50
 344 246 344 246 296 182 c 0,51,52
 232 97 232 97 180 54 c 0,53,54
 110 -5 110 -5 43 -5 c 0,55,56
 7 -5 7 -5 -19 12 c 0,57,58
 -49 31 -49 31 -49 65 c 0,59,60
 -49 105 -49 105 -12 105 c 0,61,62
 26 105 26 105 26 74 c 0,63,64
 26 56 26 56 2 44 c 1,65,66
 18 10 18 10 67 10 c 0,67,68
 121 10 121 10 215 100 c 0,69,70
 300 181 300 181 391 310 c 1,71,-1
 395 315 l 1,72,-1
 395 315 l 1,73,-1
 400 322 l 1,74,-1
 399 322 l 1,75,76
 456 403 456 403 549 501 c 0,77,78
 584 538 584 538 648 599 c 1,79,80
 531 613 531 613 470 613 c 0,81,82
 331 613 331 613 213 555 c 0,83,84
 65 483 65 483 65 358 c 0,85,86
 65 323 65 323 88.5 300 c 128,-1,87
 112 277 112 277 147 277 c 0,88,89
 212 277 212 277 268 328.5 c 128,-1,90
 324 380 324 380 324 444 c 0,91,92
 324 479 324 479 298 507 c 1,93,-1
 303 511 l 1,94,95
 333 481 333 481 333 437 c 0,96,97
 333 368 333 368 279.5 313.5 c 128,-1,98
 226 259 226 259 158 259 c 0,99,100
 57 259 57 259 57 357 c 0,101,102
 57 512 57 512 248 585 c 0,103,104
 390 639 390 639 602 639 c 0,105,106
 661 639 661 639 712 634 c 1,107,108
 807 701 807 701 907 701 c 0,109,110
 1018 701 1018 701 1018 646 c 0,0,1
1008 650 m 0,111,112
 1008 694 1008 694 907 694 c 0,113,114
 807 694 807 694 725 633 c 1,115,116
 848 613 848 613 945 613 c 0,117,118
 1008 613 1008 613 1008 650 c 0,111,112
785 578 m 1,119,120
 713 587 713 587 658 598 c 1,121,122
 587 542 587 542 549 501 c 0,123,124
 522 472 522 472 400 322 c 1,125,126
 459 309 459 309 522 309 c 0,127,128
 543 309 543 309 556 310 c 1,129,130
 621 502 621 502 785 578 c 1,119,120
EndSplineSet
EndChar

StartChar: Oslash
Encoding: 216 216 144
Width: 588
Flags: W
LayerCount: 2
Back
Fore
SplineSet
613 731 m 1,0,-1
 560 664 l 1,1,2
 596 621 596 621 596 551 c 0,3,4
 596 448 596 448 527 313 c 128,-1,5
 458 178 458 178 357 88 c 0,6,7
 245 -13 245 -13 140 -13 c 0,8,9
 76 -13 76 -13 42 21 c 1,10,-1
 -18 -51 l 1,11,-1
 -26 -42 l 1,12,-1
 34 30 l 1,13,14
 -1 81 -1 81 -1 153 c 0,15,16
 -1 246 -1 246 61.5 362 c 128,-1,17
 124 478 124 478 215 556 c 0,18,19
 315 641 315 641 408 641 c 0,20,21
 465 641 465 641 486 592 c 1,22,-1
 530 644 l 1,23,24
 499 698 499 698 423 698 c 0,25,26
 349 698 349 698 272 645 c 0,27,28
 208 601 208 601 155 530 c 1,29,-1
 149 536 l 1,30,31
 205 612 205 612 274 658 c 0,32,33
 355 712 355 712 438 712 c 0,34,35
 506 712 506 712 552 674 c 1,36,-1
 604 738 l 1,37,-1
 613 731 l 1,0,-1
549 557 m 0,38,39
 549 589 549 589 536 634 c 1,40,-1
 490 579 l 1,41,-1
 492 551 l 1,42,-1
 491 524 l 1,43,-1
 483 524 l 1,44,-1
 484 569 l 1,45,-1
 75 64 l 1,46,47
 104 4 104 4 173 4 c 0,48,49
 265 4 265 4 358 109 c 0,50,51
 439 199 439 199 496 336 c 0,52,53
 549 466 549 466 549 557 c 0,38,39
479 584 m 1,54,55
 462 634 462 634 407 634 c 0,56,57
 324 634 324 634 238 544 c 0,58,59
 162 465 162 465 109 346 c 0,60,61
 58 232 58 232 58 149 c 0,62,63
 58 115 58 115 69 75 c 1,64,-1
 479 584 l 1,54,55
EndSplineSet
EndChar

StartChar: plusminus
Encoding: 177 177 145
Width: 791
Flags: W
LayerCount: 2
Back
Fore
SplineSet
688 359 m 1,0,-1
 415 359 l 1,1,-1
 415 185 l 1,2,-1
 376 185 l 1,3,-1
 376 359 l 1,4,-1
 103 359 l 1,5,-1
 103 398 l 1,6,-1
 376 398 l 1,7,-1
 376 573 l 1,8,-1
 415 573 l 1,9,-1
 415 398 l 1,10,-1
 688 398 l 1,11,-1
 688 359 l 1,0,-1
688 30 m 1,12,-1
 103 30 l 1,13,-1
 103 70 l 1,14,-1
 688 70 l 1,15,-1
 688 30 l 1,12,-1
EndSplineSet
EndChar

StartChar: yen
Encoding: 165 165 146
Width: 509
Flags: W
LayerCount: 2
Back
Fore
SplineSet
570 512 m 1,0,-1
 568 506 l 1,1,2
 493 500 493 500 441 453 c 1,3,4
 390 398 390 398 340 343 c 1,5,-1
 460 343 l 1,6,-1
 454 332 l 1,7,-1
 328 332 l 1,8,-1
 213 212 l 1,9,-1
 381 212 l 1,10,-1
 374 201 l 1,11,-1
 202 201 l 1,12,13
 185 197 185 197 150 114 c 0,14,15
 130 63 130 63 110 11 c 1,16,-1
 185 8 l 1,17,-1
 182 0 l 1,18,-1
 -25 0 l 1,19,-1
 -21 8 l 1,20,-1
 57 11 l 1,21,-1
 133 187 l 1,22,-1
 131 201 l 1,23,-1
 -61 201 l 1,24,-1
 -54 212 l 1,25,-1
 130 212 l 1,26,-1
 117 332 l 1,27,-1
 -4 332 l 1,28,-1
 2 343 l 1,29,-1
 115 343 l 1,30,-1
 100 501 l 1,31,-1
 34 504 l 1,32,-1
 37 512 l 1,33,-1
 214 512 l 1,34,-1
 211 503 l 1,35,-1
 147 501 l 1,36,-1
 162 343 l 1,37,-1
 321 343 l 1,38,39
 352 375 352 375 383 406 c 0,40,41
 439 466 439 466 439 483 c 0,42,43
 439 498 439 498 412 503 c 0,44,45
 393 505 393 505 374 506 c 1,46,-1
 376 512 l 1,47,-1
 570 512 l 1,0,-1
310 332 m 1,48,-1
 164 332 l 1,49,-1
 178 196 l 1,50,-1
 310 332 l 1,48,-1
EndSplineSet
EndChar

StartChar: mu
Encoding: 181 181 147
AltUni2: 0003bc.ffffffff.0
Width: 646
Flags: W
LayerCount: 2
Back
Fore
SplineSet
593 152 m 1,0,1
 592 97 592 97 556 47 c 0,2,3
 517 -7 517 -7 464 -7 c 0,4,5
 423 -7 423 -7 405 25 c 0,6,7
 390 53 390 53 395 95 c 1,8,9
 353 -10 353 -10 263 -10 c 0,10,11
 169 -10 169 -10 156 94 c 1,12,13
 148 12 148 12 139 -71 c 0,14,15
 121 -205 121 -205 87 -205 c 256,16,17
 53 -205 53 -205 53 -175 c 0,18,19
 53 -125 53 -125 113 139 c 0,20,21
 148 288 148 288 183 436 c 1,22,-1
 241 436 l 1,23,24
 223 362 223 362 204 287 c 0,25,26
 183 196 183 196 183 137 c 0,27,28
 183 95 183 95 203 66 c 0,29,30
 225 33 225 33 265 33 c 0,31,32
 330 33 330 33 375 122 c 0,33,34
 408 186 408 186 431 300 c 0,35,36
 443 368 443 368 455 436 c 1,37,-1
 513 436 l 1,38,39
 491 350 491 350 469 264 c 0,40,41
 443 158 443 158 443 89 c 0,42,43
 443 42 443 42 480 42 c 0,44,45
 512 42 512 42 533 74 c 0,46,47
 544 90 544 90 559 135 c 0,48,49
 571 167 571 167 580 167 c 1,50,-1
 593 152 l 1,0,1
EndSplineSet
EndChar

StartChar: ordfeminine
Encoding: 170 170 148
Width: 329
Flags: W
LayerCount: 2
Back
Fore
SplineSet
363 648 m 1,0,1
 222 459 222 459 156 459 c 0,2,3
 117 459 117 459 117 495 c 0,4,5
 117 513 117 513 136 541 c 1,6,-1
 134 543 l 1,7,8
 70 462 70 462 11 462 c 0,9,10
 -34 462 -34 462 -34 514 c 0,11,12
 -34 574 -34 574 31.5 640.5 c 128,-1,13
 97 707 97 707 157 707 c 0,14,15
 197 707 197 707 205 661 c 1,16,-1
 230 701 l 1,17,-1
 277 703 l 1,18,19
 145 525 145 525 145 483 c 0,20,21
 145 468 145 468 162 468 c 0,22,23
 219 468 219 468 358 653 c 1,24,-1
 363 648 l 1,0,1
180 661 m 0,25,26
 180 699 180 699 152 699 c 0,27,28
 110 699 110 699 58 627 c 0,29,30
 10 559 10 559 10 513 c 0,31,32
 10 481 10 481 35 481 c 0,33,34
 75 481 75 481 127.5 549 c 128,-1,35
 180 617 180 617 180 661 c 0,25,26
EndSplineSet
EndChar

StartChar: ordmasculine
Encoding: 186 186 149
Width: 333
Flags: W
LayerCount: 2
Back
Fore
SplineSet
370 646 m 1,0,1
 320 596 320 596 273 596 c 0,2,3
 221 596 221 596 208 640 c 1,4,5
 195 574 195 574 142 519 c 0,6,7
 84 459 84 459 20 459 c 0,8,9
 -37 459 -37 459 -37 523 c 0,10,11
 -37 585 -37 585 30 648.5 c 128,-1,12
 97 712 97 712 159 712 c 0,13,14
 191 712 191 712 203 684 c 0,15,16
 212 658 212 658 221 632 c 0,17,18
 235 604 235 604 272 604 c 0,19,20
 318 604 318 604 365 650 c 1,21,-1
 370 646 l 1,0,1
173 664 m 0,22,23
 173 701 173 701 144 701 c 0,24,25
 104 701 104 701 53.5 628.5 c 128,-1,26
 3 556 3 556 3 511 c 0,27,28
 3 470 3 470 34 470 c 0,29,30
 76 470 76 470 126 546 c 0,31,32
 173 618 173 618 173 664 c 0,22,23
EndSplineSet
EndChar

StartChar: ae
Encoding: 230 230 150
Width: 652
Flags: W
LayerCount: 2
Back
Fore
SplineSet
670 264 m 1,0,1
 601 160 601 160 515 85 c 0,2,3
 403 -13 403 -13 307 -13 c 0,4,5
 227 -13 227 -13 227 77 c 0,6,7
 227 93 227 93 229 113 c 1,8,-1
 226 115 l 1,9,10
 130 -6 130 -6 46 -6 c 0,11,12
 15 -6 15 -6 -1.5 16 c 128,-1,13
 -18 38 -18 38 -18 70 c 0,14,15
 -18 154 -18 154 76 249.5 c 128,-1,16
 170 345 170 345 254 345 c 0,17,18
 313 345 313 345 323 279 c 1,19,-1
 354 336 l 1,20,-1
 419 339 l 1,21,-1
 408 319 l 1,22,23
 457 351 457 351 499 351 c 0,24,25
 554 351 554 351 554 313 c 0,26,27
 554 247 554 247 311 168 c 1,28,29
 286 114 286 114 286 70 c 0,30,31
 286 6 286 6 340 6 c 0,32,33
 419 6 419 6 524 105 c 0,34,35
 597 174 597 174 663 269 c 1,36,-1
 670 264 l 1,0,1
504 314 m 0,37,38
 504 340 504 340 477 340 c 0,39,40
 439 340 439 340 383 275 c 0,41,42
 339 225 339 225 315 177 c 1,43,44
 378 196 378 196 429 225 c 0,45,46
 504 269 504 269 504 314 c 0,37,38
293 287 m 0,47,48
 293 338 293 338 253 338 c 0,49,50
 189 338 189 338 114 232 c 0,51,52
 42 132 42 132 42 62 c 0,53,54
 42 15 42 15 79 15 c 0,55,56
 140 15 140 15 218 119 c 0,57,58
 293 220 293 220 293 287 c 0,47,48
EndSplineSet
EndChar

StartChar: oslash
Encoding: 248 248 151
Width: 508
Flags: W
LayerCount: 2
Back
Fore
SplineSet
536 264 m 1,0,1
 480 195 480 195 421 195 c 0,2,3
 360 195 360 195 343 257 c 1,4,5
 330 171 330 171 249 84 c 0,6,7
 162 -9 162 -9 76 -9 c 0,8,9
 55 -9 55 -9 35 -2 c 1,10,-1
 -17 -67 l 1,11,-1
 -27 -60 l 1,12,-1
 24 5 l 1,13,14
 -8 33 -8 33 -8 85 c 0,15,16
 -8 164 -8 164 85.5 260 c 128,-1,17
 179 356 179 356 263 356 c 0,18,19
 282 356 282 356 298 350 c 1,20,-1
 341 402 l 1,21,-1
 350 395 l 1,22,-1
 310 344 l 1,23,24
 332 329 332 329 342 290 c 0,25,26
 356 240 356 240 362 231 c 0,27,28
 379 203 379 203 421 203 c 0,29,30
 477 203 477 203 530 268 c 1,31,-1
 536 264 l 1,0,1
284 330 m 1,32,33
 272 342 272 342 253 342 c 0,34,35
 192 342 192 342 116 236 c 0,36,37
 45 134 45 134 45 69 c 0,38,39
 45 63 45 63 48 34 c 1,40,-1
 284 330 l 1,32,33
295 284 m 0,41,42
 295 291 295 291 291 320 c 1,43,-1
 54 24 l 1,44,45
 67 3 67 3 90 3 c 0,46,47
 151 3 151 3 225 113 c 0,48,49
 295 217 295 217 295 284 c 0,41,42
EndSplineSet
EndChar

StartChar: questiondown
Encoding: 191 191 152
Width: 482
Flags: W
LayerCount: 2
Back
Fore
SplineSet
445 480 m 256,0,1
 445 464 445 464 432.5 452 c 128,-1,2
 420 440 420 440 405 440 c 0,3,4
 389 440 389 440 377.5 452 c 128,-1,5
 366 464 366 464 366 480 c 256,6,7
 366 496 366 496 377 507.5 c 128,-1,8
 388 519 388 519 405 519 c 0,9,10
 420 519 420 519 432.5 507.5 c 128,-1,11
 445 496 445 496 445 480 c 256,0,1
362 156 m 0,12,13
 362 91 362 91 296 39 c 0,14,15
 235 -9 235 -9 168 -9 c 0,16,17
 112 -9 112 -9 75 21 c 128,-1,18
 38 51 38 51 38 105 c 0,19,20
 38 182 38 182 102 232 c 0,21,22
 125 250 125 250 237 307 c 0,23,24
 323 351 323 351 352 397 c 1,25,-1
 358 393 l 1,26,27
 330 350 330 350 255 307 c 0,28,29
 166 254 166 254 143 234 c 0,30,31
 91 184 91 184 91 111 c 0,32,33
 91 65 91 65 116.5 36 c 128,-1,34
 142 7 142 7 188 7 c 0,35,36
 244 7 244 7 287 48 c 128,-1,37
 330 89 330 89 330 145 c 0,38,39
 330 228 330 228 271 228 c 0,40,41
 236 228 236 228 191 184 c 1,42,-1
 187 190 l 1,43,44
 230 237 230 237 281 237 c 0,45,46
 316 237 316 237 339 214.5 c 128,-1,47
 362 192 362 192 362 156 c 0,12,13
EndSplineSet
EndChar

StartChar: exclamdown
Encoding: 161 161 153
Width: 310
Flags: W
LayerCount: 2
Back
Fore
SplineSet
333 475 m 256,0,1
 333 459 333 459 321 447 c 128,-1,2
 309 435 309 435 293 435 c 256,3,4
 277 435 277 435 265.5 447 c 128,-1,5
 254 459 254 459 254 475 c 256,6,7
 254 491 254 491 265.5 502.5 c 128,-1,8
 277 514 277 514 293 514 c 256,9,10
 309 514 309 514 321 502.5 c 128,-1,11
 333 491 333 491 333 475 c 256,0,1
237 379 m 1,12,13
 139 226 139 226 86 101 c 0,14,15
 72 68 72 68 59 36 c 0,16,17
 37 -6 37 -6 10 -6 c 0,18,19
 -23 -6 -23 -6 -23 29 c 0,20,21
 -23 52 -23 52 7 88 c 0,22,23
 30 113 30 113 53 139 c 0,24,25
 110 204 110 204 231 384 c 1,26,-1
 237 379 l 1,12,13
EndSplineSet
EndChar

StartChar: logicalnot
Encoding: 172 172 154
Width: 783
Flags: W
LayerCount: 2
Back
Fore
SplineSet
684 175 m 1,0,-1
 645 175 l 1,1,-1
 645 383 l 1,2,-1
 99 383 l 1,3,-1
 99 422 l 1,4,-1
 684 422 l 1,5,-1
 684 175 l 1,0,-1
EndSplineSet
EndChar

StartChar: florin
Encoding: 402 402 155
Width: 607
Flags: W
LayerCount: 2
Back
Fore
SplineSet
727 531 m 0,0,1
 727 509 727 509 714 494 c 128,-1,2
 701 479 701 479 679 479 c 0,3,4
 642 479 642 479 642 509 c 0,5,6
 642 537 642 537 667 537 c 0,7,8
 676 537 676 537 699 525 c 1,9,-1
 702 547 l 2,10,11
 702 569 702 569 684.5 581 c 128,-1,12
 667 593 667 593 643 593 c 0,13,14
 595 593 595 593 538 528 c 0,15,16
 496 480 496 480 447 394 c 0,17,18
 418 339 418 339 388 285 c 1,19,-1
 520 285 l 1,20,-1
 516 274 l 1,21,-1
 382 274 l 1,22,23
 296 115 296 115 290 106 c 0,24,25
 227 1 227 1 164 -53 c 0,26,27
 83 -124 83 -124 -10 -124 c 0,28,29
 -56 -124 -56 -124 -87 -99 c 0,30,31
 -121 -71 -121 -71 -121 -26 c 0,32,33
 -121 39 -121 39 -76 39 c 0,34,35
 -43 39 -43 39 -43 8 c 1,36,-1
 -69 -18 l 1,37,-1
 -87 -9 l 1,38,39
 -101 -29 -101 -29 -101 -41 c 0,40,41
 -101 -71 -101 -71 -77.5 -92 c 128,-1,42
 -54 -113 -54 -113 -23 -113 c 0,43,44
 54 -113 54 -113 130 -39 c 0,45,46
 188 17 188 17 249 121 c 0,47,48
 291 198 291 198 332 274 c 1,49,-1
 189 274 l 1,50,-1
 193 285 l 1,51,-1
 337 285 l 1,52,53
 374 348 374 348 411 411 c 0,54,55
 463 497 463 497 513 542 c 0,56,57
 578 602 578 602 645 602 c 0,58,59
 678 602 678 602 702.5 582.5 c 128,-1,60
 727 563 727 563 727 531 c 0,0,1
EndSplineSet
EndChar

StartChar: guillemotleft
Encoding: 171 171 156
Width: 458
Flags: W
LayerCount: 2
Back
Fore
SplineSet
393 307 m 1,0,-1
 235 157 l 1,1,-1
 304 12 l 1,2,-1
 299 8 l 1,3,-1
 188 157 l 1,4,-1
 389 313 l 1,5,-1
 393 307 l 1,0,-1
270 307 m 1,6,-1
 112 157 l 1,7,-1
 181 12 l 1,8,-1
 176 8 l 1,9,-1
 65 157 l 1,10,-1
 266 313 l 1,11,-1
 270 307 l 1,6,-1
EndSplineSet
EndChar

StartChar: guillemotright
Encoding: 187 187 157
Width: 386
Flags: W
LayerCount: 2
Back
Fore
SplineSet
357 165 m 1,0,-1
 156 8 l 1,1,-1
 152 14 l 1,2,-1
 310 164 l 1,3,-1
 241 308 l 1,4,-1
 246 313 l 1,5,-1
 357 165 l 1,0,-1
234 165 m 1,6,-1
 33 8 l 1,7,-1
 29 14 l 1,8,-1
 186 164 l 1,9,-1
 118 308 l 1,10,-1
 123 313 l 1,11,-1
 234 165 l 1,6,-1
EndSplineSet
EndChar

StartChar: ellipsis
Encoding: 8230 8230 158
Width: 1040
Flags: W
LayerCount: 2
Back
Fore
SplineSet
893 32 m 256,0,1
 893 16 893 16 881.5 4.5 c 128,-1,2
 870 -7 870 -7 854 -7 c 256,3,4
 838 -7 838 -7 826.5 4.5 c 128,-1,5
 815 16 815 16 815 32 c 256,6,7
 815 48 815 48 826.5 60 c 128,-1,8
 838 72 838 72 854 72 c 256,9,10
 870 72 870 72 881.5 60 c 128,-1,11
 893 48 893 48 893 32 c 256,0,1
560 32 m 256,12,13
 560 16 560 16 548.5 4.5 c 128,-1,14
 537 -7 537 -7 521 -7 c 256,15,16
 505 -7 505 -7 493 4.5 c 128,-1,17
 481 16 481 16 481 32 c 256,18,19
 481 48 481 48 493 60 c 128,-1,20
 505 72 505 72 521 72 c 256,21,22
 537 72 537 72 548.5 60 c 128,-1,23
 560 48 560 48 560 32 c 256,12,13
227 32 m 256,24,25
 227 16 227 16 215 4.5 c 128,-1,26
 203 -7 203 -7 187 -7 c 256,27,28
 171 -7 171 -7 159.5 4.5 c 128,-1,29
 148 16 148 16 148 32 c 256,30,31
 148 48 148 48 159.5 60 c 128,-1,32
 171 72 171 72 187 72 c 256,33,34
 203 72 203 72 215 60 c 128,-1,35
 227 48 227 48 227 32 c 256,24,25
EndSplineSet
EndChar

StartChar: Agrave
Encoding: 192 192 160
Width: 868
Flags: W
LayerCount: 2
Back
Fore
SplineSet
849 740 m 1,0,-1
 840 738 l 1,1,2
 820 825 820 825 813 851 c 0,3,4
 795 916 795 916 773 959 c 1,5,-1
 828 959 l 1,6,7
 847 831 847 831 849 740 c 1,0,-1
856 699 m 1,8,9
 720 547 720 547 624 399 c 0,10,11
 485 184 485 184 485 54 c 0,12,13
 485 8 485 8 520 8 c 0,14,15
 571 8 571 8 673 116 c 0,16,17
 737 183 737 183 799 267 c 1,18,-1
 805 262 l 1,19,20
 607 -11 607 -11 490 -11 c 0,21,22
 426 -11 426 -11 426 73 c 0,23,24
 426 163 426 163 504 304 c 1,25,-1
 402 304 l 1,26,27
 296 170 296 170 229 107 c 0,28,29
 104 -9 104 -9 5 -9 c 0,30,31
 -29 -9 -29 -9 -53 4 c 0,32,33
 -83 21 -83 21 -83 52 c 0,34,35
 -83 69 -83 69 -73 82 c 128,-1,36
 -63 95 -63 95 -46 95 c 0,37,38
 -17 95 -17 95 -17 64 c 1,39,40
 -17 64 -17 64 -34 30 c 1,41,42
 -16 10 -16 10 28 10 c 0,43,44
 126 10 126 10 269 163 c 1,45,46
 403 317 403 317 538 471 c 1,47,48
 708 654 708 654 851 704 c 1,49,-1
 856 699 l 1,8,9
779 664 m 1,50,51
 618 583 618 583 408 311 c 1,52,-1
 508 311 l 1,53,54
 614 502 614 502 779 664 c 1,50,51
EndSplineSet
EndChar

StartChar: Atilde
Encoding: 195 195 161
Width: 868
Flags: W
LayerCount: 2
Back
Fore
SplineSet
905 859 m 1,0,1
 890 821 890 821 879 807 c 0,2,3
 861 783 861 783 831 783 c 0,4,5
 808 783 808 783 767 800 c 128,-1,6
 726 817 726 817 707 817 c 0,7,8
 671 817 671 817 663 777 c 1,9,-1
 651 778 l 1,10,11
 662 814 662 814 673 828 c 0,12,13
 690 850 690 850 720 850 c 0,14,15
 741 850 741 850 781.5 835 c 128,-1,16
 822 820 822 820 845 820 c 0,17,18
 875 820 875 820 894 861 c 1,19,-1
 905 859 l 1,0,1
807 699 m 1,20,21
 671 547 671 547 575 399 c 0,22,23
 436 184 436 184 436 54 c 0,24,25
 436 8 436 8 471 8 c 0,26,27
 522 8 522 8 624 116 c 0,28,29
 688 183 688 183 750 267 c 1,30,-1
 756 262 l 1,31,32
 558 -11 558 -11 441 -11 c 0,33,34
 377 -11 377 -11 377 73 c 0,35,36
 377 163 377 163 455 304 c 1,37,-1
 353 304 l 1,38,39
 247 170 247 170 180 107 c 0,40,41
 55 -9 55 -9 -44 -9 c 0,42,43
 -78 -9 -78 -9 -102 4 c 0,44,45
 -132 21 -132 21 -132 52 c 0,46,47
 -132 69 -132 69 -122 82 c 128,-1,48
 -112 95 -112 95 -95 95 c 0,49,50
 -66 95 -66 95 -66 64 c 1,51,52
 -66 64 -66 64 -83 30 c 1,53,54
 -65 10 -65 10 -21 10 c 0,55,56
 77 10 77 10 220 163 c 1,57,58
 354 317 354 317 489 471 c 1,59,60
 659 654 659 654 802 704 c 1,61,-1
 807 699 l 1,20,21
730 664 m 1,62,63
 569 583 569 583 359 311 c 1,64,-1
 459 311 l 1,65,66
 565 502 565 502 730 664 c 1,62,63
EndSplineSet
EndChar

StartChar: Otilde
Encoding: 213 213 162
Width: 705
Flags: W
LayerCount: 2
Back
Fore
SplineSet
602 859 m 1,0,1
 587 821 587 821 576 807 c 0,2,3
 558 783 558 783 528 783 c 0,4,5
 505 783 505 783 464 800 c 128,-1,6
 423 817 423 817 404 817 c 0,7,8
 368 817 368 817 360 777 c 1,9,-1
 348 778 l 1,10,11
 359 814 359 814 370 828 c 0,12,13
 387 850 387 850 417 850 c 0,14,15
 438 850 438 850 478.5 835 c 128,-1,16
 519 820 519 820 542 820 c 0,17,18
 572 820 572 820 591 861 c 1,19,-1
 602 859 l 1,0,1
713 256 m 1,20,21
 640 191 640 191 552 191 c 0,22,23
 509 191 509 191 469 209 c 1,24,25
 402 120 402 120 328 63 c 0,26,27
 231 -13 231 -13 145 -13 c 0,28,29
 4 -13 4 -13 4 153 c 0,30,31
 4 361 4 361 211 546 c 0,32,33
 251 582 251 582 307 609 c 0,34,35
 357 634 357 634 407 658 c 0,36,37
 427 671 427 671 447.5 682.5 c 128,-1,38
 468 694 468 694 496 694 c 0,39,40
 547 694 547 694 576 652 c 0,41,42
 601 616 601 616 601 562 c 0,43,44
 601 394 601 394 474 216 c 1,45,46
 509 199 509 199 552 199 c 0,47,48
 637 199 637 199 708 262 c 1,49,-1
 713 256 l 1,20,21
554 560 m 0,50,51
 554 683 554 683 481 683 c 0,52,53
 449 683 449 683 419 660 c 1,54,55
 459 660 459 660 486 639 c 128,-1,56
 513 618 513 618 513 579 c 0,57,58
 513 573 513 573 511 553 c 1,59,-1
 505 554 l 1,60,-1
 506 575 l 2,61,62
 507 609 507 609 485 631.5 c 128,-1,63
 463 654 463 654 430 652 c 2,64,-1
 410 651 l 1,65,66
 333 571 333 571 333 451 c 0,67,68
 333 311 333 311 450 227 c 1,69,70
 554 418 554 418 554 560 c 0,50,51
445 220 m 1,71,72
 317 305 317 305 317 448 c 0,73,74
 317 565 317 565 400 649 c 1,75,76
 271 610 271 610 165 447 c 0,77,78
 64 291 64 291 64 152 c 0,79,80
 64 3 64 3 180 3 c 0,81,82
 250 3 250 3 333 82 c 0,83,84
 394 140 394 140 445 220 c 1,71,72
EndSplineSet
EndChar

StartChar: OE
Encoding: 338 338 163
Width: 939
Flags: W
LayerCount: 2
Back
Fore
SplineSet
954 604 m 0,0,1
 954 547 954 547 905 508 c 0,2,3
 860 471 860 471 802 471 c 0,4,5
 779 471 779 471 753 479 c 1,6,-1
 755 485 l 1,7,8
 787 478 787 478 796 478 c 0,9,10
 845 478 845 478 879.5 517 c 128,-1,11
 914 556 914 556 914 606 c 0,12,13
 914 643 914 643 888 669 c 128,-1,14
 862 695 862 695 825 695 c 0,15,16
 729 695 729 695 707 631 c 1,17,18
 693 563 693 563 679 494 c 1,19,20
 648 405 648 405 538 362 c 1,21,22
 479 227 479 227 371 114 c 1,23,24
 420 -1 420 -1 544 -1 c 0,25,26
 624 -1 624 -1 687 49 c 0,27,28
 755 103 755 103 755 181 c 0,29,30
 755 219 755 219 733.5 243 c 128,-1,31
 712 267 712 267 675 267 c 0,32,33
 616 267 616 267 542 179 c 1,34,-1
 536 183 l 1,35,36
 611 279 611 279 703 279 c 0,37,38
 745 279 745 279 773 255.5 c 128,-1,39
 801 232 801 232 801 191 c 0,40,41
 801 97 801 97 695 36 c 0,42,43
 605 -15 605 -15 503 -15 c 0,44,45
 366 -15 366 -15 320 71 c 1,46,47
 209 -13 209 -13 126 -13 c 0,48,49
 54 -13 54 -13 18 36 c 0,50,51
 -15 80 -15 80 -15 154 c 0,52,53
 -15 246 -15 246 47.5 362 c 128,-1,54
 110 478 110 478 201 556 c 0,55,56
 301 641 301 641 394 641 c 0,57,58
 434 641 434 641 456.5 616 c 128,-1,59
 479 591 479 591 478 551 c 2,60,-1
 477 524 l 1,61,-1
 469 524 l 1,62,63
 469 576 469 576 457 600 c 0,64,65
 440 634 440 634 393 634 c 0,66,67
 309 634 309 634 223 544 c 0,68,69
 147 465 147 465 95 346 c 0,70,71
 44 232 44 232 44 149 c 0,72,73
 44 88 44 88 71 49 c 0,74,75
 101 4 101 4 160 4 c 0,76,77
 223 4 223 4 315 81 c 1,78,79
 300 117 300 117 300 153 c 0,80,81
 300 229 300 229 360 286 c 0,82,83
 412 336 412 336 492 359 c 1,84,85
 535 482 535 482 535 556 c 0,86,87
 535 698 535 698 408 698 c 0,88,89
 334 698 334 698 257 644 c 0,90,91
 194 600 194 600 141 530 c 1,92,-1
 135 536 l 1,93,94
 190 612 190 612 260 658 c 0,95,96
 341 712 341 712 424 712 c 0,97,98
 582 712 582 712 582 548 c 0,99,100
 582 470 582 470 542 375 c 1,101,102
 606 398 606 398 625 486 c 0,103,104
 651 611 651 611 663 630 c 0,105,106
 705 702 705 702 833 702 c 0,107,108
 882 702 882 702 916 678 c 0,109,110
 954 651 954 651 954 604 c 0,0,1
488 347 m 1,111,112
 434 328 434 328 399 277.5 c 128,-1,113
 364 227 364 227 364 169 c 0,114,115
 364 162 364 162 366 136 c 1,116,117
 447 237 447 237 488 347 c 1,111,112
EndSplineSet
EndChar

StartChar: oe
Encoding: 339 339 164
Width: 653
Flags: W
LayerCount: 2
Back
Fore
SplineSet
667 264 m 1,0,1
 598 160 598 160 512 85 c 0,2,3
 400 -13 400 -13 304 -13 c 0,4,5
 232 -13 232 -13 223 64 c 1,6,7
 139 -7 139 -7 66 -7 c 0,8,9
 -14 -7 -14 -7 -14 86 c 0,10,11
 -14 173 -14 173 82 264.5 c 128,-1,12
 178 356 178 356 265 356 c 0,13,14
 297 356 297 356 317 334 c 128,-1,15
 337 312 337 312 339 279 c 1,16,17
 424 351 424 351 499 351 c 0,18,19
 552 351 552 351 552 313 c 0,20,21
 552 247 552 247 309 168 c 1,22,23
 284 114 284 114 284 70 c 0,24,25
 284 6 284 6 338 6 c 0,26,27
 416 6 416 6 522 105 c 0,28,29
 595 174 595 174 661 269 c 1,30,-1
 667 264 l 1,0,1
502 314 m 0,31,32
 502 340 502 340 475 340 c 0,33,34
 436 340 436 340 380 275 c 0,35,36
 337 226 337 226 313 177 c 1,37,38
 376 196 376 196 427 225 c 0,39,40
 502 269 502 269 502 314 c 0,31,32
289 291 m 0,41,42
 289 343 289 343 248 343 c 0,43,44
 185 343 185 343 110 235 c 0,45,46
 39 132 39 132 39 64 c 0,47,48
 39 3 39 3 84 3 c 0,49,50
 147 3 147 3 220 115 c 0,51,52
 289 221 289 221 289 291 c 0,41,42
EndSplineSet
EndChar

StartChar: endash
Encoding: 8211 8211 165
Width: 548
Flags: W
LayerCount: 2
Back
Fore
SplineSet
483 225 m 1,0,-1
 463 194 l 1,1,-1
 64 194 l 1,2,-1
 84 225 l 1,3,-1
 483 225 l 1,0,-1
EndSplineSet
EndChar

StartChar: emdash
Encoding: 8212 8212 166
Width: 1071
Flags: W
LayerCount: 2
Back
Fore
SplineSet
1036 225 m 1,0,-1
 1016 194 l 1,1,-1
 35 194 l 1,2,-1
 55 225 l 1,3,-1
 1036 225 l 1,0,-1
EndSplineSet
EndChar

StartChar: quotedblleft
Encoding: 8220 8220 167
Width: 347
Flags: W
LayerCount: 2
Back
Fore
SplineSet
336 700 m 1,0,1
 211 686 211 686 187 574 c 1,2,3
 201 580 201 580 205 580 c 0,4,5
 235 580 235 580 235 546 c 0,6,7
 235 529 235 529 224 517.5 c 128,-1,8
 213 506 213 506 196 506 c 0,9,10
 158 506 158 506 158 553 c 0,11,12
 158 615 158 615 218 661 c 0,13,14
 272 704 272 704 336 708 c 1,15,-1
 336 700 l 1,0,1
188 700 m 1,16,17
 63 686 63 686 39 574 c 1,18,19
 53 580 53 580 57 580 c 0,20,21
 87 580 87 580 87 546 c 0,22,23
 87 529 87 529 76 517.5 c 128,-1,24
 65 506 65 506 48 506 c 0,25,26
 10 506 10 506 10 553 c 0,27,28
 10 615 10 615 70 661 c 0,29,30
 124 704 124 704 188 708 c 1,31,-1
 188 700 l 1,16,17
EndSplineSet
EndChar

StartChar: quotedblright
Encoding: 8221 8221 168
Width: 347
Flags: W
LayerCount: 2
Back
Fore
SplineSet
336 662 m 0,0,1
 336 599 336 599 277 553 c 0,2,3
 223 511 223 511 158 506 c 1,4,-1
 158 514 l 1,5,6
 281 527 281 527 307 640 c 1,7,8
 297 634 297 634 287 634 c 0,9,10
 259 634 259 634 259 667 c 0,11,12
 259 708 259 708 298 708 c 0,13,14
 336 708 336 708 336 662 c 0,0,1
188 662 m 0,15,16
 188 599 188 599 129 553 c 0,17,18
 75 511 75 511 10 506 c 1,19,-1
 10 514 l 1,20,21
 133 527 133 527 159 640 c 1,22,23
 149 634 149 634 139 634 c 0,24,25
 111 634 111 634 111 667 c 0,26,27
 111 708 111 708 149 708 c 0,28,29
 188 708 188 708 188 662 c 0,15,16
EndSplineSet
EndChar

StartChar: quoteleft
Encoding: 8216 8216 169
Width: 180
Flags: W
LayerCount: 2
Back
Fore
SplineSet
179 700 m 1,0,1
 54 686 54 686 30 574 c 1,2,3
 44 580 44 580 48 580 c 0,4,5
 78 580 78 580 78 546 c 0,6,7
 78 529 78 529 67 517.5 c 128,-1,8
 56 506 56 506 39 506 c 0,9,10
 1 506 1 506 1 553 c 0,11,12
 1 615 1 615 61 661 c 0,13,14
 114 704 114 704 179 708 c 1,15,-1
 179 700 l 1,0,1
EndSplineSet
EndChar

StartChar: quoteright
Encoding: 8217 8217 170
Width: 180
Flags: W
LayerCount: 2
Back
Fore
SplineSet
179 662 m 0,0,1
 179 599 179 599 120 553 c 0,2,3
 66 511 66 511 1 506 c 1,4,-1
 1 514 l 1,5,6
 124 527 124 527 150 640 c 1,7,8
 140 634 140 634 130 634 c 0,9,10
 102 634 102 634 102 667 c 0,11,12
 102 708 102 708 141 708 c 0,13,14
 179 708 179 708 179 662 c 0,0,1
EndSplineSet
EndChar

StartChar: divide
Encoding: 247 247 171
Width: 670
Flags: W
LayerCount: 2
Back
Fore
SplineSet
383 472 m 256,0,1
 383 452 383 452 369.5 437 c 128,-1,2
 356 422 356 422 335 422 c 0,3,4
 315 422 315 422 301 436.5 c 128,-1,5
 287 451 287 451 287 472 c 0,6,7
 287 492 287 492 301.5 506 c 128,-1,8
 316 520 316 520 335 520 c 0,9,10
 356 520 356 520 369.5 506 c 128,-1,11
 383 492 383 492 383 472 c 256,0,1
627 282 m 1,12,-1
 42 282 l 1,13,-1
 42 321 l 1,14,-1
 627 321 l 1,15,-1
 627 282 l 1,12,-1
383 131 m 256,16,17
 383 111 383 111 369.5 97 c 128,-1,18
 356 83 356 83 335 83 c 0,19,20
 315 83 315 83 301 96.5 c 128,-1,21
 287 110 287 110 287 131 c 0,22,23
 287 151 287 151 301.5 166 c 128,-1,24
 316 181 316 181 335 181 c 0,25,26
 356 181 356 181 369.5 166 c 128,-1,27
 383 151 383 151 383 131 c 256,16,17
EndSplineSet
EndChar

StartChar: ydieresis
Encoding: 255 255 172
Width: 472
Flags: W
LayerCount: 2
Back
Fore
SplineSet
680 490 m 0,0,1
 680 458 680 458 648 458 c 256,2,3
 616 458 616 458 616 490 c 0,4,5
 616 503 616 503 625.5 512.5 c 128,-1,6
 635 522 635 522 648 522 c 256,7,8
 661 522 661 522 670.5 512.5 c 128,-1,9
 680 503 680 503 680 490 c 0,0,1
554 490 m 0,10,11
 554 458 554 458 522 458 c 256,12,13
 490 458 490 458 490 490 c 0,14,15
 490 503 490 503 499.5 512.5 c 128,-1,16
 509 522 509 522 522 522 c 256,17,18
 535 522 535 522 544.5 512.5 c 128,-1,19
 554 503 554 503 554 490 c 0,10,11
804 262 m 1,20,21
 648 33 648 33 459 -1 c 1,22,23
 291 -291 291 -291 53 -291 c 0,24,25
 -8 -291 -8 -291 -51 -267 c 0,26,27
 -104 -237 -104 -237 -104 -181 c 0,28,29
 -104 -139 -104 -139 -73 -112 c 128,-1,30
 -42 -85 -42 -85 0 -85 c 1,31,32
 0 -85 0 -85 37 -89 c 1,33,-1
 36 -98 l 1,34,-1
 16 -97 l 2,35,36
 -15 -95 -15 -95 -35 -123 c 0,37,38
 -52 -147 -52 -147 -52 -180 c 0,39,40
 -52 -226 -52 -226 -21 -253 c 128,-1,41
 10 -280 10 -280 57 -280 c 0,42,43
 185 -280 185 -280 312 -126 c 0,44,45
 371 -56 371 -56 484 137 c 1,46,-1
 481 139 l 1,47,48
 366 -3 366 -3 270 -3 c 0,49,50
 249 -3 249 -3 236 11 c 128,-1,51
 223 25 223 25 223 45 c 0,52,53
 223 84 223 84 296 192 c 0,54,55
 346 263 346 263 396 333 c 1,56,-1
 473 339 l 1,57,58
 277 99 277 99 277 41 c 0,59,60
 277 13 277 13 307 13 c 0,61,62
 366 13 366 13 476 149 c 0,63,64
 549 239 549 239 606 335 c 1,65,-1
 684 340 l 1,66,-1
 467 10 l 1,67,68
 650 48 650 48 798 268 c 1,69,-1
 804 262 l 1,20,21
EndSplineSet
EndChar

StartChar: Ydieresis
Encoding: 376 376 173
Width: 968
Flags: W
LayerCount: 2
Back
Fore
SplineSet
849 827 m 0,0,1
 849 795 849 795 817 795 c 256,2,3
 785 795 785 795 785 827 c 0,4,5
 785 840 785 840 795 849.5 c 128,-1,6
 805 859 805 859 817 859 c 0,7,8
 831 859 831 859 840 849.5 c 128,-1,9
 849 840 849 840 849 827 c 0,0,1
723 827 m 0,10,11
 723 795 723 795 691 795 c 256,12,13
 659 795 659 795 659 827 c 0,14,15
 659 840 659 840 669 849.5 c 128,-1,16
 679 859 679 859 691 859 c 0,17,18
 705 859 705 859 714 849.5 c 128,-1,19
 723 840 723 840 723 827 c 0,10,11
896 678 m 1,20,-1
 445 -18 l 2,21,22
 270 -289 270 -289 65 -289 c 0,23,24
 2 -289 2 -289 -45 -260 c 0,25,26
 -99 -225 -99 -225 -99 -165 c 0,27,28
 -99 -120 -99 -120 -67.5 -86.5 c 128,-1,29
 -36 -53 -36 -53 8 -53 c 0,30,31
 59 -53 59 -53 97 -79 c 1,32,-1
 94 -85 l 1,33,34
 69 -67 69 -67 39 -67 c 0,35,36
 1 -67 1 -67 -22 -95.5 c 128,-1,37
 -45 -124 -45 -124 -45 -164 c 0,38,39
 -45 -216 -45 -216 -11 -247.5 c 128,-1,40
 23 -279 23 -279 75 -279 c 0,41,42
 197 -279 197 -279 336 -92 c 1,43,44
 433 54 433 54 530 200 c 1,45,-1
 527 202 l 1,46,47
 343 -12 343 -12 214 -12 c 0,48,49
 182 -12 182 -12 163.5 10.5 c 128,-1,50
 145 33 145 33 145 66 c 0,51,52
 145 118 145 118 228 241 c 0,53,54
 304 351 304 351 380 461 c 0,55,56
 462 585 462 585 462 637 c 0,57,58
 462 684 462 684 407 684 c 0,59,60
 316 684 316 684 226 599 c 0,61,62
 133 512 133 512 133 422 c 0,63,64
 133 394 133 394 149 374 c 128,-1,65
 165 354 165 354 192 354 c 0,66,67
 256 354 256 354 314 429 c 1,68,-1
 320 424 l 1,69,70
 257 344 257 344 189 344 c 0,71,72
 154 344 154 344 131.5 368.5 c 128,-1,73
 109 393 109 393 109 429 c 0,74,75
 109 526 109 526 219 612 c 0,76,77
 323 694 323 694 423 694 c 0,78,79
 461 694 461 694 486 674.5 c 128,-1,80
 511 655 511 655 511 618 c 0,81,82
 511 560 511 560 430 435 c 1,83,84
 354 326 354 326 278 216 c 0,85,86
 196 95 196 95 196 47 c 0,87,88
 196 1 196 1 239 1 c 0,89,90
 334 1 334 1 473 156 c 0,91,92
 573 268 573 268 696 461 c 0,93,94
 762 568 762 568 827 676 c 1,95,-1
 896 678 l 1,20,-1
EndSplineSet
EndChar

StartChar: currency
Encoding: 164 164 174
Width: 642
Flags: W
LayerCount: 2
Back
Fore
SplineSet
579 206 m 1,0,-1
 550 177 l 1,1,-1
 450 279 l 1,2,3
 393 233 393 233 321 233 c 256,4,5
 249 233 249 233 193 279 c 1,6,-1
 92 177 l 1,7,-1
 64 206 l 1,8,-1
 165 307 l 1,9,10
 120 364 120 364 120 436 c 256,11,12
 120 508 120 508 165 566 c 1,13,-1
 64 667 l 1,14,-1
 92 696 l 1,15,-1
 193 594 l 1,16,17
 250 640 250 640 321 640 c 256,18,19
 392 640 392 640 450 594 c 1,20,-1
 550 696 l 1,21,-1
 579 667 l 1,22,-1
 478 566 l 1,23,24
 523 508 523 508 523 436 c 256,25,26
 523 364 523 364 478 307 c 1,27,-1
 579 206 l 1,0,-1
484 437 m 256,28,29
 484 504 484 504 436.5 552 c 128,-1,30
 389 600 389 600 322 600 c 256,31,32
 255 600 255 600 207.5 552 c 128,-1,33
 160 504 160 504 160 437 c 256,34,35
 160 370 160 370 207 322 c 128,-1,36
 254 274 254 274 322 274 c 0,37,38
 389 274 389 274 436.5 322 c 128,-1,39
 484 370 484 370 484 437 c 256,28,29
EndSplineSet
EndChar

StartChar: guilsinglleft
Encoding: 8249 8249 175
Width: 287
Flags: W
LayerCount: 2
Back
Fore
SplineSet
246 307 m 1,0,-1
 89 157 l 1,1,-1
 157 12 l 1,2,-1
 152 8 l 1,3,-1
 41 157 l 1,4,-1
 242 313 l 1,5,-1
 246 307 l 1,0,-1
EndSplineSet
EndChar

StartChar: guilsinglright
Encoding: 8250 8250 176
Width: 371
Flags: W
LayerCount: 2
Back
Fore
SplineSet
288 165 m 1,0,-1
 87 8 l 1,1,-1
 83 14 l 1,2,-1
 240 164 l 1,3,-1
 172 308 l 1,4,-1
 177 313 l 1,5,-1
 288 165 l 1,0,-1
EndSplineSet
EndChar

StartChar: daggerdbl
Encoding: 8225 8225 177
Width: 465
Flags: W
LayerCount: 2
Back
Fore
SplineSet
453 686 m 0,0,1
 453 672 453 672 443 659 c 2,2,-1
 337 516 l 1,3,-1
 324 519 l 1,4,-1
 398 685 l 2,5,6
 409 711 409 711 430 711 c 0,7,8
 453 711 453 711 453 686 c 0,0,1
500 491 m 1,9,-1
 494 480 l 1,10,-1
 123 480 l 1,11,-1
 129 491 l 1,12,-1
 500 491 l 1,9,-1
307 423 m 0,13,14
 307 411 307 411 295 396 c 2,15,-1
 184 257 l 1,16,-1
 178 260 l 1,17,-1
 250 423 l 2,18,19
 261 449 261 449 281 449 c 0,20,21
 307 449 307 449 307 423 c 0,13,14
346 230 m 1,22,-1
 340 218 l 1,23,-1
 -34 218 l 1,24,-1
 -28 230 l 1,25,-1
 346 230 l 1,22,-1
157 159 m 0,26,27
 157 147 157 147 145 131 c 2,28,-1
 20 -32 l 1,29,-1
 10 -30 l 1,30,-1
 100 159 l 2,31,32
 112 185 112 185 131 185 c 0,33,34
 157 185 157 185 157 159 c 0,26,27
EndSplineSet
EndChar

StartChar: periodcentered
Encoding: 183 183 178
AltUni2: 002219.ffffffff.0
Width: 148
Flags: W
LayerCount: 2
Back
Fore
SplineSet
114 257 m 0,0,1
 114 240 114 240 102.5 228 c 128,-1,2
 91 216 91 216 75 216 c 0,3,4
 58 216 58 216 46.5 228.5 c 128,-1,5
 35 241 35 241 35 257 c 256,6,7
 35 273 35 273 47 284.5 c 128,-1,8
 59 296 59 296 75 296 c 256,9,10
 91 296 91 296 102.5 284.5 c 128,-1,11
 114 273 114 273 114 257 c 0,0,1
EndSplineSet
EndChar

StartChar: quotesinglbase
Encoding: 8218 8218 179
Width: 367
Flags: W
LayerCount: 2
Back
Fore
SplineSet
272 23 m 0,0,1
 272 -38 272 -38 212 -85 c 0,2,3
 159 -126 159 -126 95 -131 c 1,4,-1
 95 -123 l 1,5,6
 219 -110 219 -110 243 3 c 1,7,8
 229 -3 229 -3 226 -3 c 0,9,10
 196 -3 196 -3 196 30 c 0,11,12
 196 71 196 71 234 71 c 256,13,14
 272 71 272 71 272 23 c 0,0,1
EndSplineSet
EndChar

StartChar: quotedblbase
Encoding: 8222 8222 180
Width: 552
Flags: W
LayerCount: 2
Back
Fore
SplineSet
439 23 m 0,0,1
 439 -38 439 -38 379 -85 c 0,2,3
 325 -126 325 -126 261 -131 c 1,4,-1
 261 -123 l 1,5,6
 385 -110 385 -110 410 3 c 1,7,8
 397 -3 397 -3 392 -3 c 0,9,10
 362 -3 362 -3 362 30 c 0,11,12
 362 47 362 47 373 59 c 128,-1,13
 384 71 384 71 401 71 c 0,14,15
 439 71 439 71 439 23 c 0,0,1
291 23 m 0,16,17
 291 -39 291 -39 231 -85 c 0,18,19
 177 -126 177 -126 113 -131 c 1,20,-1
 113 -123 l 1,21,22
 238 -109 238 -109 262 3 c 1,23,24
 248 -3 248 -3 244 -3 c 0,25,26
 214 -3 214 -3 214 30 c 0,27,28
 214 47 214 47 225 59 c 128,-1,29
 236 71 236 71 253 71 c 0,30,31
 291 71 291 71 291 23 c 0,16,17
EndSplineSet
EndChar

StartChar: perthousand
Encoding: 8240 8240 181
Width: 1080
Flags: W
LayerCount: 2
Back
Fore
SplineSet
1025 207 m 0,0,1
 1025 137 1025 137 949.5 66 c 128,-1,2
 874 -5 874 -5 804 -5 c 0,3,4
 766 -5 766 -5 745.5 20 c 128,-1,5
 725 45 725 45 725 84 c 0,6,7
 725 160 725 160 795 224 c 128,-1,8
 865 288 865 288 942 288 c 0,9,10
 1025 288 1025 288 1025 207 c 0,0,1
683 207 m 0,11,12
 683 136 683 136 608.5 65.5 c 128,-1,13
 534 -5 534 -5 463 -5 c 0,14,15
 425 -5 425 -5 404 20 c 128,-1,16
 383 45 383 45 383 84 c 0,17,18
 383 159 383 159 453.5 223.5 c 128,-1,19
 524 288 524 288 600 288 c 0,20,21
 683 288 683 288 683 207 c 0,11,12
598 520 m 1,22,23
 588 490 588 490 384 244 c 0,24,25
 261 98 261 98 138 -48 c 1,26,-1
 132 -43 l 1,27,-1
 519 460 l 1,28,29
 472 416 472 416 427 416 c 0,30,31
 390 416 390 416 360 448 c 1,32,33
 356 368 356 368 288 294 c 128,-1,34
 220 220 220 220 142 220 c 0,35,36
 101 220 101 220 78.5 245 c 128,-1,37
 56 270 56 270 56 310 c 0,38,39
 56 386 56 386 129.5 452.5 c 128,-1,40
 203 519 203 519 280 519 c 0,41,42
 322 519 322 519 354.5 470.5 c 128,-1,43
 387 422 387 422 426 422 c 0,44,45
 462 422 462 422 497 451 c 0,46,47
 513 465 513 465 546 506 c 0,48,49
 571 535 571 535 583 535 c 1,50,-1
 598 520 l 1,22,23
984 239 m 0,51,52
 984 282 984 282 948 282 c 0,53,54
 887 282 887 282 824 197 c 0,55,56
 764 116 764 116 764 52 c 0,57,58
 764 3 764 3 804 3 c 0,59,60
 855 3 855 3 920 95 c 0,61,62
 984 184 984 184 984 239 c 0,51,52
643 239 m 0,63,64
 643 282 643 282 606 282 c 0,65,66
 546 282 546 282 483 196 c 0,67,68
 423 115 423 115 423 52 c 0,69,70
 423 3 423 3 463 3 c 0,71,72
 513 3 513 3 579 95 c 0,73,74
 643 184 643 184 643 239 c 0,63,64
317 467 m 0,75,76
 317 483 317 483 308 496.5 c 128,-1,77
 299 510 299 510 285 510 c 0,78,79
 221 510 221 510 157 423 c 0,80,81
 98 342 98 342 98 275 c 0,82,83
 98 227 98 227 138 227 c 0,84,85
 193 227 193 227 257 320 c 0,86,87
 317 407 317 407 317 467 c 0,75,76
EndSplineSet
EndChar

StartChar: Acircumflex
Encoding: 194 194 182
Width: 868
Flags: W
LayerCount: 2
Back
Fore
SplineSet
910 757 m 1,0,-1
 904 751 l 1,1,2
 815 786 815 786 815 901 c 1,3,-1
 663 757 l 1,4,-1
 659 762 l 1,5,-1
 839 949 l 1,6,-1
 873 949 l 1,7,8
 859 907 859 907 859 872 c 0,9,10
 859 788 859 788 910 757 c 1,0,-1
801 699 m 1,11,12
 665 547 665 547 569 399 c 0,13,14
 430 184 430 184 430 54 c 0,15,16
 430 8 430 8 465 8 c 0,17,18
 516 8 516 8 619 116 c 0,19,20
 682 183 682 183 744 267 c 1,21,-1
 750 262 l 1,22,23
 553 -11 553 -11 435 -11 c 0,24,25
 371 -11 371 -11 371 73 c 0,26,27
 371 163 371 163 449 304 c 1,28,-1
 347 304 l 1,29,30
 242 170 242 170 174 107 c 0,31,32
 50 -9 50 -9 -50 -9 c 0,33,34
 -84 -9 -84 -9 -108 4 c 0,35,36
 -138 21 -138 21 -138 52 c 0,37,38
 -138 69 -138 69 -127.5 82 c 128,-1,39
 -117 95 -117 95 -101 95 c 0,40,41
 -72 95 -72 95 -72 64 c 1,42,43
 -72 64 -72 64 -89 30 c 1,44,45
 -71 10 -71 10 -27 10 c 0,46,47
 71 10 71 10 215 163 c 1,48,49
 349 317 349 317 483 471 c 1,50,51
 654 654 654 654 796 704 c 1,52,-1
 801 699 l 1,11,12
724 664 m 1,53,54
 563 583 563 583 353 311 c 1,55,-1
 453 311 l 1,56,57
 559 502 559 502 724 664 c 1,53,54
EndSplineSet
EndChar

StartChar: Ecircumflex
Encoding: 202 202 183
Width: 653
Flags: W
LayerCount: 2
Back
Fore
SplineSet
616 757 m 1,0,-1
 610 751 l 1,1,2
 521 786 521 786 521 901 c 1,3,-1
 369 757 l 1,4,-1
 365 762 l 1,5,-1
 545 949 l 1,6,-1
 579 949 l 1,7,8
 565 907 565 907 565 872 c 0,9,10
 565 788 565 788 616 757 c 1,0,-1
599 601 m 0,11,12
 599 542 599 542 546 501 c 0,13,14
 498 464 498 464 437 464 c 0,15,16
 411 464 411 464 385 472 c 1,17,-1
 387 478 l 1,18,19
 415 471 415 471 431 471 c 0,20,21
 481 471 481 471 518.5 509.5 c 128,-1,22
 556 548 556 548 556 599 c 0,23,24
 556 640 556 640 529.5 667 c 128,-1,25
 503 694 503 694 462 694 c 0,26,27
 410 694 410 694 369.5 663.5 c 128,-1,28
 329 633 329 633 318 584 c 0,29,30
 315 572 315 572 311 505 c 0,31,32
 308 457 308 457 289.5 430 c 128,-1,33
 271 403 271 403 201 370 c 0,34,35
 123 332 123 332 93 304 c 0,36,37
 41 253 41 253 41 172 c 0,38,39
 41 95 41 95 90.5 47 c 128,-1,40
 140 -1 140 -1 217 -1 c 0,41,42
 296 -1 296 -1 360 49 c 0,43,44
 428 103 428 103 428 181 c 0,45,46
 428 219 428 219 406.5 243 c 128,-1,47
 385 267 385 267 348 267 c 0,48,49
 289 267 289 267 215 179 c 1,50,-1
 209 183 l 1,51,52
 284 279 284 279 376 279 c 0,53,54
 418 279 418 279 446.5 255.5 c 128,-1,55
 475 232 475 232 475 191 c 0,56,57
 475 97 475 97 368 37 c 0,58,59
 277 -15 277 -15 176 -15 c 0,60,61
 89 -15 89 -15 35 23 c 0,62,63
 -26 66 -26 66 -26 149 c 0,64,65
 -26 235 -26 235 38 290 c 0,66,67
 66 315 66 315 161 363 c 0,68,69
 232 399 232 399 242 432 c 0,70,71
 247 453 247 453 250 513 c 0,72,73
 252 564 252 564 268 595 c 0,74,75
 294 647 294 647 353 676 c 0,76,77
 407 702 407 702 470 702 c 0,78,79
 521 702 521 702 557 678 c 0,80,81
 599 650 599 650 599 601 c 0,11,12
EndSplineSet
EndChar

StartChar: Aacute
Encoding: 193 193 184
Width: 868
Flags: W
LayerCount: 2
Back
Fore
SplineSet
927 953 m 1,0,-1
 733 747 l 1,1,-1
 727 750 l 1,2,-1
 860 953 l 1,3,-1
 927 953 l 1,0,-1
784 699 m 1,4,5
 648 547 648 547 552 399 c 0,6,7
 413 184 413 184 413 54 c 0,8,9
 413 8 413 8 448 8 c 0,10,11
 499 8 499 8 602 116 c 0,12,13
 665 183 665 183 727 267 c 1,14,-1
 733 262 l 1,15,16
 536 -11 536 -11 418 -11 c 0,17,18
 354 -11 354 -11 354 73 c 0,19,20
 354 163 354 163 432 304 c 1,21,-1
 330 304 l 1,22,23
 225 170 225 170 157 107 c 0,24,25
 33 -9 33 -9 -67 -9 c 0,26,27
 -101 -9 -101 -9 -125 4 c 0,28,29
 -155 21 -155 21 -155 52 c 0,30,31
 -155 69 -155 69 -144.5 82 c 128,-1,32
 -134 95 -134 95 -118 95 c 0,33,34
 -89 95 -89 95 -89 64 c 1,35,36
 -89 64 -89 64 -106 30 c 1,37,38
 -88 10 -88 10 -44 10 c 0,39,40
 54 10 54 10 198 163 c 1,41,42
 332 317 332 317 466 471 c 1,43,44
 637 654 637 654 779 704 c 1,45,-1
 784 699 l 1,4,5
707 664 m 1,46,47
 546 583 546 583 336 311 c 1,48,-1
 436 311 l 1,49,50
 542 502 542 502 707 664 c 1,46,47
EndSplineSet
EndChar

StartChar: Edieresis
Encoding: 203 203 185
Width: 653
Flags: W
LayerCount: 2
Back
Fore
SplineSet
603 827 m 0,0,1
 603 795 603 795 571 795 c 256,2,3
 539 795 539 795 539 827 c 0,4,5
 539 840 539 840 548.5 849.5 c 128,-1,6
 558 859 558 859 571 859 c 256,7,8
 584 859 584 859 593.5 849.5 c 128,-1,9
 603 840 603 840 603 827 c 0,0,1
477 827 m 0,10,11
 477 795 477 795 445 795 c 256,12,13
 413 795 413 795 413 827 c 0,14,15
 413 840 413 840 422.5 849.5 c 128,-1,16
 432 859 432 859 445 859 c 256,17,18
 458 859 458 859 467.5 849.5 c 128,-1,19
 477 840 477 840 477 827 c 0,10,11
607 601 m 0,20,21
 607 542 607 542 555 501 c 0,22,23
 506 464 506 464 445 464 c 0,24,25
 420 464 420 464 393 472 c 1,26,-1
 395 478 l 1,27,28
 423 471 423 471 439 471 c 0,29,30
 489 471 489 471 526.5 509.5 c 128,-1,31
 564 548 564 548 564 599 c 0,32,33
 564 640 564 640 537.5 667 c 128,-1,34
 511 694 511 694 470 694 c 0,35,36
 419 694 419 694 378.5 663.5 c 128,-1,37
 338 633 338 633 326 584 c 0,38,39
 323 572 323 572 319 505 c 0,40,41
 316 457 316 457 297.5 430 c 128,-1,42
 279 403 279 403 210 370 c 0,43,44
 131 332 131 332 102 304 c 0,45,46
 49 253 49 253 49 172 c 0,47,48
 49 95 49 95 98.5 47 c 128,-1,49
 148 -1 148 -1 225 -1 c 0,50,51
 305 -1 305 -1 368 49 c 0,52,53
 436 103 436 103 436 181 c 0,54,55
 436 219 436 219 414.5 243 c 128,-1,56
 393 267 393 267 356 267 c 0,57,58
 297 267 297 267 223 179 c 1,59,-1
 217 183 l 1,60,61
 292 279 292 279 384 279 c 0,62,63
 426 279 426 279 454.5 255.5 c 128,-1,64
 483 232 483 232 483 191 c 0,65,66
 483 97 483 97 376 37 c 0,67,68
 285 -15 285 -15 184 -15 c 0,69,70
 98 -15 98 -15 44 23 c 0,71,72
 -18 66 -18 66 -18 149 c 0,73,74
 -18 235 -18 235 46 290 c 0,75,76
 75 315 75 315 170 363 c 0,77,78
 241 399 241 399 250 432 c 0,79,80
 256 453 256 453 258 513 c 0,81,82
 260 564 260 564 276 595 c 0,83,84
 303 647 303 647 362 676 c 0,85,86
 415 702 415 702 478 702 c 0,87,88
 529 702 529 702 566 678 c 0,89,90
 607 650 607 650 607 601 c 0,20,21
EndSplineSet
EndChar

StartChar: Egrave
Encoding: 200 200 186
Width: 653
Flags: W
LayerCount: 2
Back
Fore
SplineSet
508 740 m 1,0,-1
 499 738 l 1,1,2
 479 825 479 825 472 851 c 0,3,4
 454 916 454 916 432 959 c 1,5,-1
 487 959 l 1,6,7
 507 831 507 831 508 740 c 1,0,-1
607 601 m 0,8,9
 607 542 607 542 555 501 c 0,10,11
 506 464 506 464 445 464 c 0,12,13
 420 464 420 464 393 472 c 1,14,-1
 395 478 l 1,15,16
 423 471 423 471 439 471 c 0,17,18
 489 471 489 471 526.5 509.5 c 128,-1,19
 564 548 564 548 564 599 c 0,20,21
 564 640 564 640 537.5 667 c 128,-1,22
 511 694 511 694 470 694 c 0,23,24
 419 694 419 694 378.5 663.5 c 128,-1,25
 338 633 338 633 326 584 c 0,26,27
 323 572 323 572 319 505 c 0,28,29
 316 457 316 457 297.5 430 c 128,-1,30
 279 403 279 403 210 370 c 0,31,32
 131 332 131 332 102 304 c 0,33,34
 49 253 49 253 49 172 c 0,35,36
 49 95 49 95 98.5 47 c 128,-1,37
 148 -1 148 -1 225 -1 c 0,38,39
 305 -1 305 -1 368 49 c 0,40,41
 436 103 436 103 436 181 c 0,42,43
 436 219 436 219 414.5 243 c 128,-1,44
 393 267 393 267 356 267 c 0,45,46
 297 267 297 267 223 179 c 1,47,-1
 217 183 l 1,48,49
 292 279 292 279 384 279 c 0,50,51
 426 279 426 279 454.5 255.5 c 128,-1,52
 483 232 483 232 483 191 c 0,53,54
 483 97 483 97 376 37 c 0,55,56
 285 -15 285 -15 184 -15 c 0,57,58
 98 -15 98 -15 44 23 c 0,59,60
 -18 66 -18 66 -18 149 c 0,61,62
 -18 235 -18 235 46 290 c 0,63,64
 75 315 75 315 170 363 c 0,65,66
 241 399 241 399 250 432 c 0,67,68
 256 453 256 453 258 513 c 0,69,70
 260 564 260 564 276 595 c 0,71,72
 303 647 303 647 362 676 c 0,73,74
 415 702 415 702 478 702 c 0,75,76
 529 702 529 702 566 678 c 0,77,78
 607 650 607 650 607 601 c 0,8,9
EndSplineSet
EndChar

StartChar: Iacute
Encoding: 205 205 187
Width: 833
Flags: W
LayerCount: 2
Back
Fore
SplineSet
830 953 m 1,0,-1
 636 747 l 1,1,-1
 630 750 l 1,2,-1
 763 953 l 1,3,-1
 830 953 l 1,0,-1
891 676 m 1,4,5
 874 663 874 663 844 661 c 0,6,7
 820 660 820 660 795 659 c 0,8,9
 725 652 725 652 619 477 c 0,10,11
 461 217 461 217 411 157 c 0,12,13
 269 -13 269 -13 109 -13 c 0,14,15
 44 -13 44 -13 -2 14 c 0,16,17
 -58 46 -58 46 -58 107 c 0,18,19
 -58 164 -58 164 -14 164 c 0,20,21
 24 164 24 164 24 128 c 0,22,23
 24 106 24 106 -4 91 c 1,24,-1
 -14 92 l 1,25,26
 -3 -6 -3 -6 110 -6 c 0,27,28
 226 -6 226 -6 341 144 c 1,29,30
 439 294 439 294 537 443 c 1,31,32
 660 620 660 620 782 662 c 1,33,34
 599 660 599 660 449 619 c 0,35,36
 218 555 218 555 218 421 c 0,37,38
 218 384 218 384 242.5 357.5 c 128,-1,39
 267 331 267 331 304 331 c 0,40,41
 367 331 367 331 408.5 370 c 128,-1,42
 450 409 450 409 450 468 c 0,43,44
 450 486 450 486 446 504 c 1,45,-1
 453 507 l 1,46,47
 461 474 461 474 461 460 c 0,48,49
 461 400 461 400 405 360 c 0,50,51
 355 323 355 323 293 323 c 0,52,53
 241 323 241 323 206 353 c 128,-1,54
 171 383 171 383 171 434 c 0,55,56
 171 541 171 541 317 600 c 0,57,58
 424 643 424 643 620 664 c 0,59,60
 746 674 746 674 872 685 c 1,61,-1
 891 676 l 1,4,5
EndSplineSet
EndChar

StartChar: Icircumflex
Encoding: 206 206 188
Width: 910
Flags: W
LayerCount: 2
Back
Fore
SplineSet
731 757 m 1,0,-1
 725 751 l 1,1,2
 636 786 636 786 636 901 c 1,3,-1
 484 757 l 1,4,-1
 480 762 l 1,5,-1
 660 949 l 1,6,-1
 694 949 l 1,7,8
 680 907 680 907 680 872 c 0,9,10
 680 788 680 788 731 757 c 1,0,-1
826 676 m 1,11,12
 809 663 809 663 779 661 c 0,13,14
 754 660 754 660 730 659 c 0,15,16
 660 652 660 652 554 477 c 0,17,18
 396 217 396 217 346 157 c 0,19,20
 204 -13 204 -13 44 -13 c 0,21,22
 -22 -13 -22 -13 -68 14 c 0,23,24
 -123 46 -123 46 -123 107 c 0,25,26
 -123 164 -123 164 -79 164 c 0,27,28
 -41 164 -41 164 -41 128 c 0,29,30
 -41 106 -41 106 -69 91 c 1,31,-1
 -79 92 l 1,32,33
 -68 -6 -68 -6 45 -6 c 0,34,35
 161 -6 161 -6 276 144 c 1,36,37
 374 294 374 294 472 443 c 1,38,39
 595 620 595 620 717 662 c 1,40,41
 534 660 534 660 383 619 c 0,42,43
 153 555 153 555 153 421 c 0,44,45
 153 384 153 384 177.5 357.5 c 128,-1,46
 202 331 202 331 239 331 c 0,47,48
 302 331 302 331 343.5 370 c 128,-1,49
 385 409 385 409 385 468 c 0,50,51
 385 486 385 486 381 504 c 1,52,-1
 388 507 l 1,53,54
 396 474 396 474 396 460 c 0,55,56
 396 400 396 400 340 360 c 0,57,58
 289 323 289 323 228 323 c 0,59,60
 176 323 176 323 141 353 c 128,-1,61
 106 383 106 383 106 434 c 0,62,63
 106 541 106 541 252 600 c 0,64,65
 359 643 359 643 555 664 c 0,66,67
 681 674 681 674 807 685 c 1,68,-1
 826 676 l 1,11,12
EndSplineSet
EndChar

StartChar: Idieresis
Encoding: 207 207 189
Width: 910
Flags: W
LayerCount: 2
Back
Fore
SplineSet
710 827 m 0,0,1
 710 795 710 795 678 795 c 256,2,3
 646 795 646 795 646 827 c 0,4,5
 646 840 646 840 655.5 849.5 c 128,-1,6
 665 859 665 859 678 859 c 256,7,8
 691 859 691 859 700.5 849.5 c 128,-1,9
 710 840 710 840 710 827 c 0,0,1
584 827 m 0,10,11
 584 795 584 795 552 795 c 256,12,13
 520 795 520 795 520 827 c 0,14,15
 520 840 520 840 529.5 849.5 c 128,-1,16
 539 859 539 859 552 859 c 256,17,18
 565 859 565 859 574.5 849.5 c 128,-1,19
 584 840 584 840 584 827 c 0,10,11
826 676 m 1,20,21
 809 663 809 663 779 661 c 0,22,23
 754 660 754 660 730 659 c 0,24,25
 660 652 660 652 554 477 c 0,26,27
 396 217 396 217 346 157 c 0,28,29
 204 -13 204 -13 44 -13 c 0,30,31
 -22 -13 -22 -13 -68 14 c 0,32,33
 -123 46 -123 46 -123 107 c 0,34,35
 -123 164 -123 164 -79 164 c 0,36,37
 -41 164 -41 164 -41 128 c 0,38,39
 -41 106 -41 106 -69 91 c 1,40,-1
 -79 92 l 1,41,42
 -68 -6 -68 -6 45 -6 c 0,43,44
 161 -6 161 -6 276 144 c 1,45,46
 374 294 374 294 472 443 c 1,47,48
 595 620 595 620 717 662 c 1,49,50
 534 660 534 660 383 619 c 0,51,52
 153 555 153 555 153 421 c 0,53,54
 153 384 153 384 177.5 357.5 c 128,-1,55
 202 331 202 331 239 331 c 0,56,57
 302 331 302 331 343.5 370 c 128,-1,58
 385 409 385 409 385 468 c 0,59,60
 385 486 385 486 381 504 c 1,61,-1
 388 507 l 1,62,63
 396 474 396 474 396 460 c 0,64,65
 396 400 396 400 340 360 c 0,66,67
 289 323 289 323 228 323 c 0,68,69
 176 323 176 323 141 353 c 128,-1,70
 106 383 106 383 106 434 c 0,71,72
 106 541 106 541 252 600 c 0,73,74
 359 643 359 643 555 664 c 0,75,76
 681 674 681 674 807 685 c 1,77,-1
 826 676 l 1,20,21
EndSplineSet
EndChar

StartChar: Igrave
Encoding: 204 204 190
Width: 833
Flags: W
LayerCount: 2
Back
Fore
SplineSet
680 740 m 1,0,-1
 671 738 l 1,1,2
 651 825 651 825 644 851 c 0,3,4
 626 916 626 916 604 959 c 1,5,-1
 659 959 l 1,6,7
 678 831 678 831 680 740 c 1,0,-1
891 676 m 1,8,9
 874 663 874 663 844 661 c 0,10,11
 820 660 820 660 795 659 c 0,12,13
 725 652 725 652 619 477 c 0,14,15
 461 217 461 217 411 157 c 0,16,17
 269 -13 269 -13 109 -13 c 0,18,19
 44 -13 44 -13 -2 14 c 0,20,21
 -58 46 -58 46 -58 107 c 0,22,23
 -58 164 -58 164 -14 164 c 0,24,25
 24 164 24 164 24 128 c 0,26,27
 24 106 24 106 -4 91 c 1,28,-1
 -14 92 l 1,29,30
 -3 -6 -3 -6 110 -6 c 0,31,32
 226 -6 226 -6 341 144 c 1,33,34
 439 294 439 294 537 443 c 1,35,36
 660 620 660 620 782 662 c 1,37,38
 599 660 599 660 449 619 c 0,39,40
 218 555 218 555 218 421 c 0,41,42
 218 384 218 384 242.5 357.5 c 128,-1,43
 267 331 267 331 304 331 c 0,44,45
 367 331 367 331 408.5 370 c 128,-1,46
 450 409 450 409 450 468 c 0,47,48
 450 486 450 486 446 504 c 1,49,-1
 453 507 l 1,50,51
 461 474 461 474 461 460 c 0,52,53
 461 400 461 400 405 360 c 0,54,55
 355 323 355 323 293 323 c 0,56,57
 241 323 241 323 206 353 c 128,-1,58
 171 383 171 383 171 434 c 0,59,60
 171 541 171 541 317 600 c 0,61,62
 424 643 424 643 620 664 c 0,63,64
 746 674 746 674 872 685 c 1,65,-1
 891 676 l 1,8,9
EndSplineSet
EndChar

StartChar: Oacute
Encoding: 211 211 191
Width: 705
Flags: W
LayerCount: 2
Back
Fore
SplineSet
647 953 m 1,0,-1
 453 747 l 1,1,-1
 447 750 l 1,2,-1
 580 953 l 1,3,-1
 647 953 l 1,0,-1
713 256 m 1,4,5
 640 191 640 191 552 191 c 0,6,7
 509 191 509 191 469 209 c 1,8,9
 402 120 402 120 328 63 c 0,10,11
 231 -13 231 -13 145 -13 c 0,12,13
 4 -13 4 -13 4 153 c 0,14,15
 4 361 4 361 211 546 c 0,16,17
 251 582 251 582 307 609 c 0,18,19
 357 634 357 634 407 658 c 0,20,21
 427 671 427 671 447.5 682.5 c 128,-1,22
 468 694 468 694 496 694 c 0,23,24
 547 694 547 694 576 652 c 0,25,26
 601 616 601 616 601 562 c 0,27,28
 601 394 601 394 474 216 c 1,29,30
 509 199 509 199 552 199 c 0,31,32
 637 199 637 199 708 262 c 1,33,-1
 713 256 l 1,4,5
554 560 m 0,34,35
 554 683 554 683 481 683 c 0,36,37
 449 683 449 683 419 660 c 1,38,39
 459 660 459 660 486 639 c 128,-1,40
 513 618 513 618 513 579 c 0,41,42
 513 573 513 573 511 553 c 1,43,-1
 505 554 l 1,44,-1
 506 575 l 2,45,46
 507 609 507 609 485 631.5 c 128,-1,47
 463 654 463 654 430 652 c 2,48,-1
 410 651 l 1,49,50
 333 571 333 571 333 451 c 0,51,52
 333 311 333 311 450 227 c 1,53,54
 554 418 554 418 554 560 c 0,34,35
445 220 m 1,55,56
 317 305 317 305 317 448 c 0,57,58
 317 565 317 565 400 649 c 1,59,60
 271 610 271 610 165 447 c 0,61,62
 64 291 64 291 64 152 c 0,63,64
 64 3 64 3 180 3 c 0,65,66
 250 3 250 3 333 82 c 0,67,68
 394 140 394 140 445 220 c 1,55,56
EndSplineSet
EndChar

StartChar: Ocircumflex
Encoding: 212 212 192
Width: 705
Flags: W
LayerCount: 2
Back
Fore
SplineSet
613 757 m 1,0,-1
 607 751 l 1,1,2
 518 786 518 786 518 901 c 1,3,-1
 366 757 l 1,4,-1
 362 762 l 1,5,-1
 542 949 l 1,6,-1
 576 949 l 1,7,8
 562 907 562 907 562 872 c 0,9,10
 562 788 562 788 613 757 c 1,0,-1
713 256 m 1,11,12
 640 191 640 191 552 191 c 0,13,14
 509 191 509 191 469 209 c 1,15,16
 402 120 402 120 328 63 c 0,17,18
 231 -13 231 -13 145 -13 c 0,19,20
 4 -13 4 -13 4 153 c 0,21,22
 4 361 4 361 211 546 c 0,23,24
 251 582 251 582 307 609 c 0,25,26
 357 634 357 634 407 658 c 0,27,28
 427 671 427 671 447.5 682.5 c 128,-1,29
 468 694 468 694 496 694 c 0,30,31
 547 694 547 694 576 652 c 0,32,33
 601 616 601 616 601 562 c 0,34,35
 601 394 601 394 474 216 c 1,36,37
 509 199 509 199 552 199 c 0,38,39
 637 199 637 199 708 262 c 1,40,-1
 713 256 l 1,11,12
554 560 m 0,41,42
 554 683 554 683 481 683 c 0,43,44
 449 683 449 683 419 660 c 1,45,46
 459 660 459 660 486 639 c 128,-1,47
 513 618 513 618 513 579 c 0,48,49
 513 573 513 573 511 553 c 1,50,-1
 505 554 l 1,51,-1
 506 575 l 2,52,53
 507 609 507 609 485 631.5 c 128,-1,54
 463 654 463 654 430 652 c 2,55,-1
 410 651 l 1,56,57
 333 571 333 571 333 451 c 0,58,59
 333 311 333 311 450 227 c 1,60,61
 554 418 554 418 554 560 c 0,41,42
445 220 m 1,62,63
 317 305 317 305 317 448 c 0,64,65
 317 565 317 565 400 649 c 1,66,67
 271 610 271 610 165 447 c 0,68,69
 64 291 64 291 64 152 c 0,70,71
 64 3 64 3 180 3 c 0,72,73
 250 3 250 3 333 82 c 0,74,75
 394 140 394 140 445 220 c 1,62,63
EndSplineSet
EndChar

StartChar: Ograve
Encoding: 210 210 193
Width: 750
Flags: W
LayerCount: 2
Back
Fore
SplineSet
513 740 m 1,0,-1
 504 738 l 1,1,2
 484 825 484 825 478 851 c 0,3,4
 460 916 460 916 437 959 c 1,5,-1
 492 959 l 1,6,7
 512 831 512 831 513 740 c 1,0,-1
729 256 m 1,8,9
 657 191 657 191 568 191 c 0,10,11
 526 191 526 191 485 209 c 1,12,13
 419 120 419 120 345 63 c 0,14,15
 248 -13 248 -13 161 -13 c 0,16,17
 20 -13 20 -13 20 153 c 0,18,19
 20 361 20 361 227 546 c 0,20,21
 268 582 268 582 324 609 c 0,22,23
 374 634 374 634 423 658 c 0,24,25
 444 671 444 671 464.5 682.5 c 128,-1,26
 485 694 485 694 512 694 c 0,27,28
 564 694 564 694 593 652 c 0,29,30
 617 616 617 616 617 562 c 0,31,32
 617 394 617 394 490 216 c 1,33,34
 526 199 526 199 568 199 c 0,35,36
 654 199 654 199 724 262 c 1,37,-1
 729 256 l 1,8,9
570 560 m 0,38,39
 570 683 570 683 497 683 c 0,40,41
 466 683 466 683 435 660 c 1,42,43
 476 660 476 660 502.5 639 c 128,-1,44
 529 618 529 618 529 579 c 0,45,46
 529 573 529 573 527 553 c 1,47,-1
 521 554 l 1,48,-1
 522 575 l 2,49,50
 524 609 524 609 502 631.5 c 128,-1,51
 480 654 480 654 446 652 c 2,52,-1
 426 651 l 1,53,54
 349 571 349 571 349 451 c 0,55,56
 349 311 349 311 466 227 c 1,57,58
 570 418 570 418 570 560 c 0,38,39
461 220 m 1,59,60
 333 305 333 305 333 448 c 0,61,62
 333 565 333 565 416 649 c 1,63,64
 288 610 288 610 182 447 c 0,65,66
 80 291 80 291 80 152 c 0,67,68
 80 3 80 3 196 3 c 0,69,70
 266 3 266 3 350 82 c 0,71,72
 411 140 411 140 461 220 c 1,59,60
EndSplineSet
EndChar

StartChar: Uacute
Encoding: 218 218 194
Width: 840
Flags: W
LayerCount: 2
Back
Fore
SplineSet
842 953 m 1,0,-1
 648 747 l 1,1,-1
 642 750 l 1,2,-1
 775 953 l 1,3,-1
 842 953 l 1,0,-1
774 683 m 1,4,5
 674 534 674 534 574 386 c 1,6,7
 401 116 401 116 401 49 c 0,8,9
 401 30 401 30 415 16 c 128,-1,10
 429 2 429 2 448 2 c 0,11,12
 511 2 511 2 618 109 c 0,13,14
 694 185 694 185 753 268 c 1,15,-1
 759 263 l 1,16,17
 566 -11 566 -11 430 -11 c 0,18,19
 393 -11 393 -11 372 11.5 c 128,-1,20
 351 34 351 34 351 71 c 0,21,22
 351 115 351 115 387 174 c 1,23,24
 326 104 326 104 262 56 c 0,25,26
 175 -10 175 -10 109 -10 c 0,27,28
 39 -10 39 -10 39 64 c 0,29,30
 39 117 39 117 119 243 c 1,31,32
 194 353 194 353 268 463 c 0,33,34
 349 585 349 585 349 629 c 0,35,36
 349 687 349 687 295 687 c 0,37,38
 206 687 206 687 110.5 603 c 128,-1,39
 15 519 15 519 15 431 c 0,40,41
 15 401 15 401 33.5 378 c 128,-1,42
 52 355 52 355 82 355 c 0,43,44
 132 355 132 355 203 432 c 1,45,-1
 207 428 l 1,46,47
 148 343 148 343 78 343 c 0,48,49
 45 343 45 343 22 368 c 128,-1,50
 -1 393 -1 393 -1 425 c 0,51,52
 -1 524 -1 524 105 613 c 0,53,54
 206 698 206 698 308 698 c 0,55,56
 400 698 400 698 400 615 c 0,57,58
 400 571 400 571 320 446 c 0,59,60
 245 333 245 333 171 221 c 0,61,62
 91 94 91 94 91 47 c 0,63,64
 91 30 91 30 104.5 17.5 c 128,-1,65
 118 5 118 5 135 5 c 0,66,67
 225 5 225 5 362 164 c 0,68,69
 461 278 461 278 581 472 c 0,70,71
 642 576 642 576 704 679 c 1,72,-1
 774 683 l 1,4,5
EndSplineSet
EndChar

StartChar: Ucircumflex
Encoding: 219 219 195
Width: 840
Flags: W
LayerCount: 2
Back
Fore
SplineSet
825 757 m 1,0,-1
 819 751 l 1,1,2
 730 786 730 786 730 901 c 1,3,-1
 578 757 l 1,4,-1
 574 762 l 1,5,-1
 754 949 l 1,6,-1
 788 949 l 1,7,8
 774 907 774 907 774 872 c 0,9,10
 774 788 774 788 825 757 c 1,0,-1
791 683 m 1,11,12
 691 534 691 534 591 386 c 1,13,14
 418 116 418 116 418 49 c 0,15,16
 418 30 418 30 432 16 c 128,-1,17
 446 2 446 2 465 2 c 0,18,19
 528 2 528 2 635 109 c 0,20,21
 711 185 711 185 770 268 c 1,22,-1
 776 263 l 1,23,24
 583 -11 583 -11 447 -11 c 0,25,26
 410 -11 410 -11 389 11.5 c 128,-1,27
 368 34 368 34 368 71 c 0,28,29
 368 115 368 115 404 174 c 1,30,31
 343 104 343 104 279 56 c 0,32,33
 192 -10 192 -10 126 -10 c 0,34,35
 56 -10 56 -10 56 64 c 0,36,37
 56 117 56 117 136 243 c 1,38,39
 211 353 211 353 285 463 c 0,40,41
 366 585 366 585 366 629 c 0,42,43
 366 687 366 687 312 687 c 0,44,45
 223 687 223 687 127.5 603 c 128,-1,46
 32 519 32 519 32 431 c 0,47,48
 32 401 32 401 50.5 378 c 128,-1,49
 69 355 69 355 99 355 c 0,50,51
 149 355 149 355 220 432 c 1,52,-1
 224 428 l 1,53,54
 165 343 165 343 95 343 c 0,55,56
 62 343 62 343 39 368 c 128,-1,57
 16 393 16 393 16 425 c 0,58,59
 16 524 16 524 122 613 c 0,60,61
 223 698 223 698 325 698 c 0,62,63
 417 698 417 698 417 615 c 0,64,65
 417 571 417 571 337 446 c 0,66,67
 262 333 262 333 188 221 c 0,68,69
 108 94 108 94 108 47 c 0,70,71
 108 30 108 30 121.5 17.5 c 128,-1,72
 135 5 135 5 152 5 c 0,73,74
 242 5 242 5 379 164 c 0,75,76
 478 278 478 278 598 472 c 0,77,78
 659 576 659 576 721 679 c 1,79,-1
 791 683 l 1,11,12
EndSplineSet
EndChar

